<svg width="1000" height="1000" viewBox="0 0 1000 1000" fill="none" xmlns="http://www.w3.org/2000/svg">
<g clip-path="url(#clip0_1128_1448)">
<path d="M500.469 965.2C571.106 965.2 602.932 924.056 602.932 924.056V897.73C838.182 662.479 822.495 400.65 812.797 328.728C811.314 317.746 801.941 309.567 790.868 309.567H763.62V289.285C763.62 260.969 740.677 238.026 712.361 238.026H664.667L636.332 209.692C600.29 173.65 551.42 153.421 500.469 153.421C449.518 153.421 400.63 173.668 364.606 209.692L336.271 238.026H288.577C260.261 238.026 237.319 260.969 237.319 289.285V309.567H210.07C198.997 309.567 189.624 317.746 188.141 328.728C178.443 400.65 162.756 662.479 398.006 897.73V924.056C398.006 924.056 429.832 965.2 500.469 965.2Z" fill="#E13F55"/>
<path d="M500.469 935.708C463.866 935.708 440.689 922.138 430.122 914.05L427.498 912.042V885.499L418.868 876.868C358.888 816.888 311.122 750.232 276.925 678.745C249.55 621.534 230.697 561.048 220.89 498.951C212.115 443.422 212.368 396.072 214.123 366.127C215.01 350.947 227.657 339.042 242.891 339.042H266.811V296.323C266.811 280.437 279.748 267.5 295.634 267.5H348.485L385.449 230.535C416.172 199.813 457.009 182.896 500.469 182.896C543.93 182.896 584.766 199.813 615.489 230.535L652.454 267.5H705.305C721.191 267.5 734.127 280.437 734.127 296.323V339.042H758.047C773.3 339.042 785.929 350.929 786.815 366.127C788.57 396.072 788.824 443.422 780.049 498.951C770.242 561.048 751.389 621.534 724.013 678.745C689.799 750.232 642.05 816.888 582.07 876.868L573.44 885.499V911.969L570.834 913.978C560.322 922.083 537.199 935.69 500.469 935.69V935.708ZM440.888 905.329C451.056 912.422 470.615 922.319 500.469 922.319C530.323 922.319 549.918 912.404 560.051 905.311V879.962L572.608 867.405C631.52 808.493 678.4 743.085 711.945 672.974C738.759 616.938 757.233 557.682 766.84 496.87C775.417 442.518 775.181 396.199 773.462 366.924C772.992 358.8 766.225 352.449 758.065 352.449H720.756V296.341C720.756 287.837 713.827 280.907 705.323 280.907H646.917L606.026 240.016C577.837 211.827 540.347 196.303 500.487 196.303C460.628 196.303 423.138 211.827 394.948 240.016L354.057 280.907H295.652C287.148 280.907 280.218 287.837 280.218 296.341V352.449H242.91C234.749 352.449 227.983 358.8 227.512 366.924C225.793 396.199 225.558 442.518 234.134 496.87C243.742 557.682 262.215 616.938 289.03 672.974C322.575 743.085 369.473 808.493 428.367 867.405L440.924 879.962V905.347L440.888 905.329Z" fill="white"/>
<path d="M736.932 492.872L695.769 411.09C694.973 409.515 693.869 408.14 692.512 407.019C667.761 386.591 618.402 393.304 612.847 394.136C608.487 394.787 604.778 397.664 603.059 401.717L599.675 409.696L589.271 417.35C585.092 420.426 583.283 425.655 584.459 430.522L584.043 430.848C579.718 434.213 578.035 439.967 579.881 445.123L581.907 450.805C581.509 451.637 581.184 452.505 580.967 453.428C576.787 471.196 587.77 499.186 590.013 504.614C591.551 508.323 594.754 511.092 598.644 512.069L619.813 517.37L622.835 521.477L555.763 591.445L540.691 597.759C540.799 597.108 540.872 596.456 540.872 595.787C540.872 565.227 525.565 549.197 523.828 547.46C522.272 545.922 520.372 544.836 518.327 544.257L500.487 485.671C499.04 469.405 494.335 453.862 486.537 439.424C486.41 439.17 486.302 438.917 486.157 438.682C486.031 438.447 485.904 438.23 485.741 437.958C485.017 436.674 484.275 435.389 483.497 434.141L483.244 433.706C483.045 433.363 482.828 433.019 482.611 432.657C481.417 430.757 480.295 429.038 479.137 427.41C479.101 427.337 479.028 427.265 478.974 427.193C477.979 425.781 476.966 424.424 475.934 423.104L474.921 421.819C474.017 420.661 473.076 419.539 472.135 418.435L471.411 417.585C470.253 416.246 469.077 414.962 467.865 413.695L466.833 412.646C465.874 411.65 464.897 410.691 463.866 409.696L462.907 408.774C461.641 407.579 460.338 406.421 459.035 405.3C458.8 405.101 458.565 404.902 458.33 404.703L458.185 404.576C457.081 403.653 455.959 402.748 454.874 401.88C454.476 401.572 454.078 401.265 453.698 400.975C452.304 399.926 450.911 398.876 449.518 397.918L449.192 397.7C447.853 396.778 446.478 395.873 445.085 394.986L443.891 394.245C442.606 393.467 441.322 392.689 439.874 391.874L439.35 391.567C437.848 390.734 436.346 389.938 434.862 389.196C434.555 389.034 434.247 388.889 433.922 388.744L433.578 388.581C432.347 387.984 431.099 387.405 429.814 386.826L428.24 386.121C428.023 386.03 427.806 385.94 427.589 385.867C402.548 375.301 374.503 373.528 348.394 380.837C348.104 380.892 347.833 380.964 347.562 381.054C347.055 381.199 346.567 381.362 346.06 381.507L345.173 381.778C344.612 381.941 344.052 382.122 343.509 382.303C342.152 382.737 340.813 383.226 339.528 383.696L339.293 383.768C338.985 383.877 338.66 383.986 338.37 384.094C336.724 384.727 335.023 385.415 333.304 386.139C332.96 386.283 332.617 386.446 332.273 386.609L331.839 386.808C330.626 387.351 329.432 387.894 328.238 388.491C327.641 388.78 327.026 389.088 326.483 389.377C325.379 389.938 324.257 390.517 323.154 391.132C322.593 391.44 322.014 391.766 321.453 392.091C320.295 392.761 319.137 393.448 318.015 394.136L317.635 394.371C317.291 394.588 316.948 394.787 316.586 395.023C314.867 396.108 313.311 397.158 311.809 398.207C310.344 399.238 308.842 400.36 307.232 401.59C306.87 401.88 306.508 402.169 306.146 402.459L305.838 402.712C304.807 403.526 303.812 404.359 302.817 405.191C302.274 405.643 301.749 406.114 301.225 406.566C300.338 407.362 299.451 408.158 298.583 408.973C298.058 409.461 297.533 409.95 297.027 410.438C296.122 411.307 295.254 412.193 294.403 413.08L294.06 413.442C293.752 413.767 293.426 414.093 293.119 414.419C291.852 415.776 290.64 417.115 289.536 418.399C289.283 418.689 289.048 418.978 288.812 419.268L288.541 419.593C287.709 420.589 286.895 421.602 286.08 422.633C285.7 423.104 285.338 423.592 284.995 424.081L284.416 424.859C284.126 425.239 283.819 425.637 283.547 426.017C283.384 426.252 283.222 426.487 283.059 426.74C266.702 449.665 258.904 477.728 261.075 505.881C261.166 507.021 261.274 508.179 261.383 509.319C261.455 509.952 261.528 510.585 261.6 511.236C261.781 512.63 261.962 514.041 262.197 515.47L262.36 516.538C262.613 518.076 262.921 519.614 263.228 521.152C263.337 521.676 263.445 522.183 263.554 522.69C263.862 524.083 264.205 525.494 264.567 526.905L264.784 527.774C265.237 529.457 265.725 531.121 266.268 532.786L266.648 533.944C267.118 535.373 267.607 536.784 268.114 538.141L268.457 539.082C269.091 540.765 269.778 542.466 270.484 544.112L270.809 544.836C271.461 546.32 272.148 547.785 272.872 549.251L273.306 550.137C274.211 551.947 275.08 553.575 275.948 555.113C275.966 555.167 276.02 555.24 276.057 555.294C276.889 556.76 277.794 558.297 278.825 559.962L279.331 560.776C280.489 562.604 281.503 564.124 282.552 565.607C282.715 565.842 282.896 566.078 283.059 566.295C284.072 567.724 285.103 569.117 286.153 570.438C286.533 570.927 286.931 571.415 287.329 571.904L287.528 572.139C288.432 573.243 289.337 574.346 290.26 575.414L290.368 575.559C290.586 575.83 290.821 576.101 291.056 576.373C291.237 576.572 291.436 576.789 291.635 576.97C298.474 584.569 306.218 591.246 314.704 596.818L325.922 608.145C324.149 612.035 324.402 616.721 326.971 620.484L363.791 674.819C362 676.303 360.607 678.257 359.847 680.518C358.544 684.354 359.16 688.57 361.494 691.881L378.465 715.909C380.003 718.08 382.174 719.691 384.635 720.559L382.572 724.304C380.437 728.195 380.492 732.917 382.699 736.753C384.925 740.589 388.996 742.995 393.429 743.067L419.393 743.556C419.393 743.556 419.555 743.556 419.628 743.556C425.906 743.556 431.262 738.942 432.166 732.7L434.356 717.628L456.321 739.811C458.782 742.307 462.057 743.574 465.332 743.574C468.227 743.574 471.14 742.579 473.492 740.589C473.673 740.426 473.854 740.263 474.017 740.1C479.354 743.809 485.126 747.355 491.35 750.54L492.906 755.389C494.408 760.057 498.479 763.459 503.346 764.074L535.1 768.163C535.643 768.235 536.185 768.271 536.728 768.271C538.664 768.271 540.6 767.819 542.355 766.951C544.726 765.775 555.093 760.509 562.692 754.846L589.253 755.516C594.012 755.588 598.535 754.032 602.154 751.01L625.694 731.307C626.652 730.529 627.575 729.751 628.48 728.973L628.878 728.647C629.131 728.448 629.366 728.231 629.584 728.014C644.058 715.131 651.097 702.122 651.404 701.579C651.513 701.398 651.603 701.199 651.694 701L737.493 518.926C741.383 510.658 741.184 500.923 736.95 492.836L736.932 492.872Z" fill="white"/>
<path d="M495.837 834.059V840.482H468.606V846.724H490.897V852.659H468.606V863.189H460.464V834.059H495.837Z" fill="#FBE1AC"/>
<path d="M541.288 852.008C541.053 854.577 540.13 856.73 538.556 858.503C536.964 860.277 534.72 861.615 531.771 862.538C528.84 863.461 525.239 863.913 520.987 863.913C517.586 863.913 514.492 863.624 511.741 863.063C508.991 862.502 506.621 861.597 504.667 860.403C502.713 859.191 501.193 857.635 500.143 855.717C499.094 853.799 498.551 851.483 498.551 848.769C498.551 846.055 499.076 843.721 500.143 841.785C501.193 839.849 502.713 838.257 504.667 837.008C506.621 835.76 508.991 834.855 511.741 834.24C514.492 833.643 517.586 833.335 520.987 833.335C525.239 833.335 528.84 833.824 531.807 834.783C534.774 835.742 537.036 837.135 538.61 838.944C540.184 840.754 541.089 842.961 541.306 845.548H533.037C532.675 844.372 532.024 843.377 531.083 842.545C530.142 841.713 528.858 841.061 527.193 840.609C525.529 840.139 523.466 839.903 520.987 839.903C517.947 839.903 515.378 840.229 513.297 840.88C511.217 841.532 509.643 842.509 508.575 843.793C507.508 845.096 506.965 846.743 506.965 848.769C506.965 850.796 507.508 852.297 508.575 853.564C509.643 854.83 511.217 855.771 513.297 856.405C515.378 857.038 517.947 857.363 520.987 857.363C523.466 857.363 525.51 857.146 527.157 856.712C528.803 856.278 530.088 855.645 531.029 854.83C531.97 854.016 532.621 853.075 533.019 852.026H541.288V852.008Z" fill="#FBE1AC"/>
<path d="M347.743 308.446C350.99 308.446 353.623 305.813 353.623 302.565C353.623 299.318 350.99 296.685 347.743 296.685C344.495 296.685 341.862 299.318 341.862 302.565C341.862 305.813 344.495 308.446 347.743 308.446Z" fill="#FBE1AC"/>
<path d="M347.743 334.989C350.99 334.989 353.623 332.356 353.623 329.108C353.623 325.861 350.99 323.228 347.743 323.228C344.495 323.228 341.862 325.861 341.862 329.108C341.862 332.356 344.495 334.989 347.743 334.989Z" fill="#FBE1AC"/>
<path d="M428.096 312.987C431.093 312.987 433.524 310.557 433.524 307.559C433.524 304.561 431.093 302.131 428.096 302.131C425.098 302.131 422.667 304.561 422.667 307.559C422.667 310.557 425.098 312.987 428.096 312.987Z" fill="#FBE1AC"/>
<path d="M572.843 312.987C575.84 312.987 578.271 310.557 578.271 307.559C578.271 304.561 575.84 302.131 572.843 302.131C569.845 302.131 567.415 304.561 567.415 307.559C567.415 310.557 569.845 312.987 572.843 312.987Z" fill="#FBE1AC"/>
<path d="M500.469 896.789C503.467 896.789 505.897 894.359 505.897 891.361C505.897 888.363 503.467 885.933 500.469 885.933C497.471 885.933 495.041 888.363 495.041 891.361C495.041 894.359 497.471 896.789 500.469 896.789Z" fill="#FBE1AC"/>
<path d="M321.652 334.989C324.899 334.989 327.532 332.356 327.532 329.108C327.532 325.861 324.899 323.228 321.652 323.228C318.404 323.228 315.771 325.861 315.771 329.108C315.771 332.356 318.404 334.989 321.652 334.989Z" fill="#FBE1AC"/>
<path d="M615.814 412.989L665.01 411.723L685.058 423.14L721.787 508.649L631.176 699.281L585.707 734.31H552.704L535.552 750.287L508.177 744.533L490.264 730.275C490.264 730.275 467.937 737.35 421.039 678.004C386.408 634.181 347.29 596.457 347.29 596.457L371.843 582.669C371.843 582.669 398.929 599.496 421.039 588.948C444.09 577.965 469.33 559.745 482.629 507.111L497.194 522.943C497.194 522.943 523.104 564.196 533.236 617.481L575.448 603.929L644.149 525.024L628.371 499.639L604.361 493.505L598.282 464.302L601.756 453.32L597.992 441.939L605.23 434.394V425.836L613.607 421.62L615.796 412.989H615.814Z" fill="#F6C8B5"/>
<path style="mix-blend-mode:multiply" d="M615.814 412.989L665.01 411.723L685.058 423.14L721.787 508.649L631.176 699.281L585.707 734.31H552.704L535.552 750.287L508.177 744.533L490.264 730.275C490.264 730.275 467.937 737.35 421.039 678.004C386.408 634.181 347.29 596.457 347.29 596.457L371.843 582.669C371.843 582.669 398.929 599.496 421.039 588.948C444.09 577.965 469.33 559.745 482.629 507.111L497.194 522.943C497.194 522.943 523.104 564.196 533.236 617.481L575.448 603.929L644.149 525.024L628.371 499.639L604.361 493.505L598.282 464.302L601.756 453.32L597.992 441.939L605.23 434.394V425.836L613.607 421.62L615.796 412.989H615.814Z" fill="url(#paint0_linear_1128_1448)"/>
<path opacity="0.94" d="M310.434 474.634C310.434 459.942 313.673 445.594 319.806 432.53C302.545 448.905 292.485 471.757 292.485 496.49C292.485 545.198 332.11 584.822 380.799 584.822C396.758 584.822 412.246 580.498 425.725 572.537C366.198 582.796 309.873 535.156 310.434 474.652V474.634Z" fill="url(#paint1_linear_1128_1448)"/>
<path style="mix-blend-mode:multiply" d="M639.028 474.869C639.028 474.869 643.009 517.66 669.66 514.348L653.358 530.94L630.307 498.082L639.046 474.869H639.028Z" fill="url(#paint2_linear_1128_1448)"/>
<path style="mix-blend-mode:multiply" d="M647.261 596.04L594.428 728.683C594.428 728.683 554.786 746.306 534.521 719.962C534.521 719.962 563.832 736.626 581.908 704.438C599.983 672.25 644.149 590.232 644.149 590.232L647.261 596.022V596.04Z" fill="url(#paint3_linear_1128_1448)"/>
<path style="mix-blend-mode:multiply" d="M356.789 594.14L371.825 582.651L394.025 594.14C394.025 594.14 436.78 669.934 491.965 716.687C491.965 716.687 484.691 737.766 424.259 673.715C363.845 609.665 356.789 594.14 356.789 594.14Z" fill="url(#paint4_linear_1128_1448)"/>
<path style="mix-blend-mode:hard-light" opacity="0.77" d="M658.642 527.557L562.204 651.334L540.781 652.275L644.149 527.557H658.642Z" fill="url(#paint5_linear_1128_1448)"/>
<path style="mix-blend-mode:multiply" d="M611.78 711.965L682.543 548.527C682.543 548.527 693.689 522.472 687.247 578.146L624.825 709.468L611.762 711.983L611.78 711.965Z" fill="url(#paint6_linear_1128_1448)"/>
<path style="mix-blend-mode:hard-light" opacity="0.83" d="M614.078 458.277C614.078 458.277 605.501 471.341 615.797 494.5L606.424 495.133L600.924 459.236L614.078 458.259V458.277Z" fill="url(#paint7_linear_1128_1448)"/>
<path style="mix-blend-mode:hard-light" opacity="0.83" d="M615.326 464.266L621.134 466.908L663.943 449.466L650.21 445.956L607.455 455.599L615.326 464.266Z" fill="url(#paint8_linear_1128_1448)"/>
<path d="M715.835 509.192L707.494 513.552L626.001 690.651L652.001 662.353L715.835 509.192Z" fill="url(#paint9_linear_1128_1448)"/>
<path style="mix-blend-mode:hard-light" opacity="0.93" d="M458.999 559.293C458.999 559.293 513.08 559.293 511.524 641.147L534.539 623.036C534.539 623.036 494.426 528.263 482.774 524.915C471.122 521.568 458.999 559.311 458.999 559.311V559.293Z" fill="url(#paint10_linear_1128_1448)"/>
<path style="mix-blend-mode:hard-light" opacity="0.83" d="M363.954 589.599L465.277 730.909H472.225L384.11 603.911L363.954 589.599Z" fill="url(#paint11_linear_1128_1448)"/>
<path style="mix-blend-mode:multiply" d="M488.292 681.658C488.292 681.658 525.148 676.972 552.614 632.987C552.614 632.987 543.187 677.316 490.246 702.466L488.292 681.64V681.658Z" fill="url(#paint12_linear_1128_1448)"/>
<path style="mix-blend-mode:hard-light" opacity="0.83" d="M540.781 732.392C540.781 732.392 530.739 742.76 499.763 728.701L513.098 745.582L551.782 741.005L540.781 732.392Z" fill="url(#paint13_linear_1128_1448)"/>
<path style="mix-blend-mode:multiply" d="M499.763 728.701C499.763 728.701 528.079 742.308 540.781 732.392L493.792 718.153L499.763 728.701Z" fill="url(#paint14_linear_1128_1448)"/>
<path opacity="0.77" d="M344.287 447.349C344.287 447.349 356.301 473.946 351.054 493.324C345.806 512.702 360.028 469.766 360.028 469.766L344.287 447.349Z" fill="#B7DCD8"/>
<path style="mix-blend-mode:multiply" d="M671.705 519.198C671.705 519.198 677.314 536.802 693.598 521.314L606.225 612.505L615.797 583.321L644.131 546.175L671.687 519.216L671.705 519.198Z" fill="url(#paint15_linear_1128_1448)"/>
<path d="M653.195 308.446C656.443 308.446 659.076 305.813 659.076 302.565C659.076 299.318 656.443 296.685 653.195 296.685C649.948 296.685 647.315 299.318 647.315 302.565C647.315 305.813 649.948 308.446 653.195 308.446Z" fill="#FBE1AC"/>
<path d="M653.195 334.989C656.443 334.989 659.076 332.356 659.076 329.108C659.076 325.861 656.443 323.228 653.195 323.228C649.948 323.228 647.315 325.861 647.315 329.108C647.315 332.356 649.948 334.989 653.195 334.989Z" fill="#FBE1AC"/>
<path d="M679.304 334.989C682.552 334.989 685.185 332.356 685.185 329.108C685.185 325.861 682.552 323.228 679.304 323.228C676.057 323.228 673.424 325.861 673.424 329.108C673.424 332.356 676.057 334.989 679.304 334.989Z" fill="#FBE1AC"/>
<path style="mix-blend-mode:hard-light" opacity="0.83" d="M483.371 626.492L429.905 579.051L446.189 563.689L483.371 626.492Z" fill="url(#paint16_linear_1128_1448)"/>
<path d="M420.044 596.565L447.727 643.554L423.916 594.918L420.044 596.565Z" fill="url(#paint17_linear_1128_1448)"/>
<path d="M513.261 269.599L536.656 282.391L513.261 295.201L500.469 342.461L487.677 295.201L464.282 282.391L487.677 269.599L500.469 238.243L513.261 269.599Z" fill="white"/>
<path style="mix-blend-mode:hard-light" opacity="0.83" d="M605.23 453.88C605.23 453.88 606.297 440.147 613.824 438.41C621.351 436.674 604.108 434.774 604.108 434.774L596.491 447.584L605.23 453.862V453.88Z" fill="url(#paint18_linear_1128_1448)"/>
<path d="M612.105 423.339C612.105 423.339 605.591 428.405 607.998 434.376L610.621 434.104C610.621 434.104 615.869 423.484 615.253 423.321C614.638 423.158 612.105 423.321 612.105 423.321V423.339Z" fill="url(#paint19_linear_1128_1448)"/>
<path style="mix-blend-mode:multiply" d="M715.835 509.192L697.271 517.334L673.894 471.811L680.932 416.771L715.835 509.192Z" fill="url(#paint20_linear_1128_1448)"/>
<path style="mix-blend-mode:multiply" d="M616.954 475.357L660.016 462.692L641.742 488.385L616.954 475.357Z" fill="url(#paint21_linear_1128_1448)"/>
<g opacity="0.25">
<path style="mix-blend-mode:multiply" d="M639.028 474.869C639.028 474.869 643.009 517.66 669.66 514.348L653.358 530.94L630.307 498.082L639.046 474.869H639.028Z" fill="url(#paint22_linear_1128_1448)"/>
<path style="mix-blend-mode:multiply" d="M647.26 596.04L594.428 728.683C594.428 728.683 554.785 746.306 534.521 719.962C534.521 719.962 563.832 736.626 581.907 704.438C599.982 672.25 644.148 590.232 644.148 590.232L647.26 596.022V596.04Z" fill="url(#paint23_linear_1128_1448)"/>
<path style="mix-blend-mode:multiply" d="M356.789 594.14L371.825 582.651L394.025 594.14C394.025 594.14 436.78 669.934 491.965 716.687C491.965 716.687 484.691 737.766 424.259 673.715C363.845 609.665 356.789 594.14 356.789 594.14Z" fill="url(#paint24_linear_1128_1448)"/>
<path style="mix-blend-mode:multiply" d="M611.779 711.965L682.543 548.527C682.543 548.527 693.688 522.472 687.247 578.146L624.825 709.468L611.761 711.983L611.779 711.965Z" fill="url(#paint25_linear_1128_1448)"/>
<path style="mix-blend-mode:multiply" d="M488.292 681.658C488.292 681.658 525.148 676.972 552.614 632.987C552.614 632.987 543.187 677.316 490.246 702.465L488.292 681.64V681.658Z" fill="url(#paint26_linear_1128_1448)"/>
<path style="mix-blend-mode:multiply" d="M499.763 728.701C499.763 728.701 528.079 742.307 540.781 732.392L493.792 718.153L499.763 728.701Z" fill="url(#paint27_linear_1128_1448)"/>
<path style="mix-blend-mode:multiply" d="M715.835 509.192L697.271 517.334L673.894 471.811L680.932 416.771L715.835 509.192Z" fill="url(#paint28_linear_1128_1448)"/>
<path style="mix-blend-mode:multiply" d="M616.954 475.357L660.016 462.692L641.742 488.385L616.954 475.357Z" fill="url(#paint29_linear_1128_1448)"/>
</g>
<path style="mix-blend-mode:hard-light" opacity="0.83" d="M616.646 445.467L658.352 439.93L652.001 432.729L618.112 438.23L616.646 445.467Z" fill="url(#paint30_linear_1128_1448)"/>
<path style="mix-blend-mode:hard-light" opacity="0.83" d="M617.678 430.214H650.88V421.692L619.252 420.987L617.678 430.214Z" fill="url(#paint31_linear_1128_1448)"/>
<path style="mix-blend-mode:hard-light" opacity="0.83" d="M617.823 423.266L664.811 415.794L617.823 410.728V423.266Z" fill="url(#paint32_linear_1128_1448)"/>
<path style="mix-blend-mode:hard-light" opacity="0.83" d="M554.062 618.078L490.445 680.609L486.591 672.702L490.246 664.488L530.649 621.244L554.062 618.078Z" fill="url(#paint33_linear_1128_1448)"/>
<path d="M382.627 540.059L421.274 512.756L421.455 512.63L407.415 467.432L407.36 467.215L360.046 466.6H359.829L344.54 511.617L382.446 539.933L382.627 540.059Z" fill="#E13F55"/>
<path d="M380.655 601.83L384.02 604.219H384.129C386.716 604.146 389.339 603.965 391.963 603.694C392.56 603.64 393.157 603.567 393.754 603.495C394.261 603.441 394.749 603.368 395.256 603.296C395.383 603.296 395.491 603.26 395.636 603.241C396.197 603.169 396.776 603.079 397.337 602.988C397.735 602.934 398.133 602.862 398.513 602.789C398.802 602.753 399.092 602.699 399.436 602.644L400.25 602.5C400.557 602.445 400.847 602.391 401.154 602.337C401.607 602.246 402.059 602.156 402.53 602.065C402.62 602.065 402.71 602.029 402.801 602.011C403.054 601.957 403.326 601.903 403.579 601.848L472.044 686.381L472.533 686.037L462.6 668.758C492.924 649.289 511.995 625.786 518.798 616.576L518.906 616.413L504.214 590.124L503.943 590.522C496.959 600.727 488.727 610.37 479.499 619.164L479.336 619.327L482.394 625.171L477.617 620.919L477.418 621.1C474.216 624.049 470.85 626.962 467.413 629.712L455.29 620.448L461.333 634.38C456.9 637.637 452.413 640.641 447.998 643.282L421.075 596.438C427.336 593.923 433.379 590.793 439.024 587.175L439.35 586.957L428.168 577.042L427.987 577.151C422.269 580.498 416.19 583.23 409.93 585.275L385.884 569.298L384.87 545.234L380.98 545.397L381.994 569.461L359.377 587.392C340.795 583.013 324.239 573.225 311.484 559.039L308.498 550.644L314.795 524.047L288.089 507.781C285.954 490.14 288.849 472.318 296.502 456.233L315.283 437.452L337.303 437.814L355.324 463.488L358.508 461.244L340.487 435.57L349.842 408.285C373.544 399.926 400.051 401.591 422.595 412.827L428.964 443.441L460.03 446.842C467.865 459.327 472.66 473.675 473.926 488.312L466.58 510.694L447.528 522.744L447.347 522.853L455.091 553.141C453.481 555.24 451.78 557.284 449.989 559.238L445.809 563.563L478.413 617.535L478.938 617.264L459.289 570.275C460.41 569.099 461.478 567.923 462.473 566.765L462.563 566.657C464.59 564.304 466.562 561.789 468.426 559.184C468.498 559.075 468.589 558.949 468.661 558.84L468.86 558.551C469.71 557.339 470.398 556.325 471.031 555.366C471.176 555.149 471.321 554.914 471.465 554.697L471.737 554.263C472.298 553.376 472.913 552.417 473.474 551.458C473.655 551.151 473.836 550.843 473.999 550.535L474.27 550.047C474.758 549.197 475.247 548.328 475.717 547.46C475.934 547.061 476.134 546.663 476.333 546.265L476.55 545.831C476.966 545.017 477.382 544.203 477.78 543.389C478.033 542.864 478.269 542.339 478.522 541.814L478.63 541.597C478.992 540.819 479.336 540.041 479.68 539.263C479.951 538.612 480.223 537.96 480.494 537.309C480.802 536.567 481.109 535.807 481.399 535.066C481.67 534.378 481.923 533.672 482.177 532.985C482.43 532.261 482.683 531.537 482.937 530.814C483.19 530.072 483.425 529.348 483.66 528.552C483.751 528.244 483.859 527.937 483.95 527.629L525.583 612.523L526.144 612.306L524.606 607.258C526.94 604.544 528.442 596.095 528.496 595.678C528.496 569.696 515.251 556.289 515.125 556.144L514.817 555.855L514.636 556.235C514.238 557.067 513.985 560.613 513.714 564.341C513.569 566.367 513.424 568.43 513.243 570.004L488.256 487.914C487.08 472.698 482.738 458.169 475.374 444.707L475.301 444.544C475.247 444.436 475.175 444.327 475.12 444.219C475.066 444.128 475.012 444.02 474.957 443.929C474.36 442.843 473.691 441.704 472.913 440.437L472.623 439.949C472.461 439.677 472.298 439.388 472.117 439.116C471.031 437.379 470.018 435.859 469.023 434.448L468.932 434.321C468.1 433.145 467.177 431.897 466.11 430.522C465.82 430.142 465.513 429.762 465.223 429.382C464.409 428.351 463.559 427.319 462.708 426.324L462.437 425.999C462.31 425.854 462.202 425.709 462.075 425.564C461.08 424.424 460.048 423.284 458.891 422.072C458.691 421.873 458.492 421.656 458.293 421.457L457.986 421.131C457.099 420.227 456.213 419.34 455.326 418.508L455.019 418.218C454.819 418.037 454.639 417.838 454.44 417.657C453.263 416.572 452.105 415.522 450.966 414.545C450.821 414.419 450.658 414.292 450.513 414.165L450.206 413.912C449.247 413.098 448.233 412.284 447.22 411.488L447.13 411.415C446.822 411.18 446.515 410.927 446.207 410.691C444.814 409.624 443.583 408.737 442.444 407.923L442.172 407.742C441.068 406.982 439.874 406.186 438.517 405.336C438.155 405.101 437.794 404.884 437.432 404.648C436.256 403.925 435.08 403.219 433.958 402.586L433.704 402.441C433.596 402.369 433.487 402.314 433.379 402.26C432.112 401.554 430.791 400.849 429.308 400.107C429.036 399.98 428.783 399.835 428.512 399.709L428.222 399.564C427.118 399.021 425.979 398.497 424.857 397.99L424.477 397.827C424.278 397.737 424.061 397.646 423.862 397.556L423.663 397.465C423.663 397.465 423.5 397.393 423.409 397.357H423.319C400.539 387.586 374.919 385.976 351.18 392.797H351.036C350.656 392.924 350.276 393.032 349.896 393.159L348.72 393.521C348.286 393.647 347.851 393.792 347.417 393.919C346.331 394.281 345.155 394.679 343.798 395.185C343.654 395.24 343.509 395.294 343.364 395.33C343.183 395.403 342.984 395.457 342.803 395.529C341.338 396.09 339.854 396.687 338.262 397.375C337.99 397.483 337.737 397.61 337.466 397.737L336.959 397.972C335.747 398.515 334.679 399.003 333.702 399.474C333.232 399.709 332.743 399.944 332.273 400.197L332.128 400.27C331.133 400.776 330.138 401.301 329.161 401.844C328.636 402.133 328.129 402.423 327.605 402.712C326.646 403.255 325.633 403.87 324.493 404.558L324.04 404.829C323.769 404.992 323.498 405.155 323.226 405.336C321.634 406.349 320.223 407.272 318.938 408.195C317.635 409.117 316.278 410.112 314.813 411.252C314.541 411.451 314.288 411.669 314.017 411.886L313.582 412.248C312.551 413.062 311.664 413.804 310.868 414.473C310.398 414.871 309.928 415.287 309.457 415.703C308.643 416.409 307.865 417.133 307.069 417.875L306.942 418.001C306.526 418.399 306.11 418.779 305.694 419.177C304.988 419.865 304.228 420.625 303.323 421.548L302.889 421.982C302.654 422.235 302.401 422.47 302.165 422.724C301.007 423.954 299.958 425.13 298.945 426.306C298.764 426.505 298.601 426.722 298.42 426.939C298.293 427.084 298.185 427.229 298.058 427.374C297.154 428.459 296.466 429.292 295.851 430.088C295.543 430.486 295.236 430.902 294.928 431.318L294.222 432.241C293.987 432.53 293.77 432.838 293.553 433.127L293.481 433.272C278.572 453.917 271.443 479.302 273.415 504.777C273.487 505.809 273.578 506.84 273.686 507.871C273.741 508.45 273.813 509.011 273.885 509.59C274.048 510.875 274.211 512.141 274.41 513.353L274.464 513.661C274.501 513.896 274.537 514.113 274.573 514.349C274.79 515.633 275.043 516.99 275.351 518.492C275.441 518.944 275.55 519.415 275.659 519.867C275.948 521.152 276.256 522.418 276.563 523.631L276.654 523.974C276.69 524.119 276.726 524.282 276.762 524.427C277.142 525.856 277.576 527.322 278.083 528.914C278.155 529.167 278.246 529.402 278.318 529.656L278.427 529.963C278.843 531.248 279.295 532.532 279.748 533.781L279.874 534.107C279.929 534.269 279.983 534.432 280.055 534.595C280.634 536.097 281.249 537.617 281.883 539.1L282.172 539.752C282.751 541.054 283.366 542.375 284.018 543.714L284.126 543.949C284.217 544.13 284.307 544.311 284.398 544.492C285.194 546.084 285.972 547.55 286.768 548.979L286.84 549.106C287.582 550.427 288.414 551.82 289.355 553.322L289.808 554.046C290.857 555.71 291.762 557.067 292.648 558.334C292.739 558.46 292.829 558.569 292.92 558.696C292.992 558.804 293.083 558.895 293.155 559.003C294.06 560.27 295 561.536 295.959 562.748C296.285 563.183 296.629 563.599 296.973 564.015L297.19 564.268C298.004 565.282 298.836 566.259 299.65 567.199C299.759 567.326 299.868 567.453 299.976 567.597C300.103 567.76 300.229 567.923 300.374 568.068L300.501 568.176C306.996 575.486 314.433 581.837 322.611 587.084L407.668 672.992L371.807 684.228L371.409 684.354L388.851 709.034L413.132 678.51L418.777 684.209L393.23 730.637L419.682 731.126H419.953L425.725 691.212L465.169 731.053L465.621 730.673L365.329 590.811L380.745 601.776L380.655 601.83Z" fill="#E13F55"/>
<path d="M725.931 498.517L684.714 416.626L684.642 416.536C663.653 399.238 615.163 406.277 614.675 406.349H614.512L609.192 418.96L608.07 418.888L596.418 427.464L599.711 434.376L591.479 440.763L596.726 455.436L593.089 456.106L593.053 456.305C589.615 470.924 601.358 499.639 601.484 499.928L601.539 500.073L627.177 506.496L638.992 522.563L562.945 601.903L523.52 618.404L523.448 618.44L489.794 664.723L495.747 666.206L527.446 631.956L553.066 621.751L538.61 650.809C538.176 651.623 538.556 652.383 539.08 652.745C539.605 653.107 540.455 653.197 541.071 652.492L646.374 532.569L647.767 534.468L631.755 563.707L674.383 518.619L674.546 518.438L667.941 508.848L668.05 509.988C668.05 509.988 668.303 513.733 659.655 521.532C657.502 523.486 655.475 524.191 653.449 523.721C647.442 522.328 642.086 510.115 637.128 497.703C635.446 493.523 635.21 489.542 636.405 485.888L647.695 491.316C648.147 491.533 648.654 491.424 648.961 491.026C649.269 490.646 649.287 490.121 648.961 489.723L640.693 479.012C645.614 473.946 652.435 471.594 652.508 471.558H652.58L655.873 467.649L616.393 475.104L620.265 479.627H620.374C628.208 480.514 628.226 483.137 628.263 486.195C628.263 487.082 628.263 488.005 628.48 488.927C628.842 490.628 629.041 491.804 628.444 492.437C627.611 493.324 625.133 493.378 619.885 492.6C619.162 492.492 618.492 492.401 617.895 492.311C613.022 491.623 609.645 488.439 607.763 482.757L607.473 481.889C603.728 463.886 606.768 459.453 607.473 458.711L615.326 464.592L632.876 453.718L651.169 451.438L650.499 445.575L606.225 453.645C603.656 450.406 602.679 447.385 603.312 444.707C604.144 441.233 607.473 439.333 608.269 438.935L616.629 445.775L626.996 440.654L650.644 439.749L652.399 432.403H609.789C610.006 429.436 611.309 427.772 611.743 427.283L617.642 430.504L630.488 427.084L647.641 426.396L646.664 421.493L618.148 419.539C619.035 416.355 622.563 414.925 628.661 415.287C649.486 415.378 665.354 418.146 675.342 420.589L665.318 422.307L667.127 426.903C667.435 427.536 669.878 427.319 674.003 426.306C679.793 424.877 680.969 429.002 681.023 429.219L715.545 509.156C713.32 514.24 646.664 665.935 617.895 701.525C616.719 702.104 615.869 702.158 615.344 701.688C611.164 697.816 625.096 663.673 631.791 647.263C633.256 643.662 634.523 640.568 635.301 638.524C635.536 637.926 635.355 637.275 634.867 636.877C634.378 636.479 633.709 636.425 633.166 636.769C627.774 640.152 623.395 644.983 620.519 650.737H620.501L620.03 651.714C619.958 651.877 619.867 652.057 619.795 652.22L586.919 722.531C573.639 733.369 555.419 730.293 542.789 723.798C537.741 721.192 537.126 714.896 540.944 705.089C551.673 686.833 576.226 657.648 576.497 657.305L576.552 657.196L592.908 640.93L619.415 585.709C620.012 584.46 619.451 583.321 618.619 582.76C617.787 582.199 616.538 582.072 615.561 583.122L528.405 704.257C528.333 704.347 521.186 714.009 523.972 723.798C525.727 729.986 530.974 734.871 539.587 738.363C534.249 741.059 525.564 743.031 513.677 738.001C492.092 721.247 490.771 680.989 490.753 680.573L486.537 671.834L486.32 672.593C482.357 686.923 481.471 699.697 483.642 710.59C477.128 709.468 463.956 705.668 446.116 692.894C445.592 692.514 444.904 692.587 444.452 693.039C443.999 693.509 443.963 694.179 444.343 694.704C451.508 704.221 471.429 727.814 501.5 741.692L504.721 751.752L536.674 755.877H536.764L536.837 755.841C537 755.769 552.216 748.188 558.386 742.325L589.561 743.122C591.244 743.158 592.908 742.597 594.193 741.511L617.805 721.753C618.727 721.011 619.614 720.27 620.446 719.546L622.219 718.044L622.075 718.098C634.433 706.899 640.421 695.844 640.476 695.717L726.275 513.643C728.536 508.848 728.41 503.167 725.913 498.481L725.931 498.517Z" fill="#E13F55"/>
<path d="M430.936 651.949C423.898 655.061 421.003 655.586 420.985 655.586L420.478 655.676L441.557 680.699L441.774 680.591C445.194 678.872 450.169 676.212 453.318 674.403L453.661 674.204L431.298 652.003L431.153 651.858L430.972 651.949H430.936Z" fill="#E13F55"/>
<path d="M675.215 456.413C677.079 457.354 679.051 463.759 679.666 466.13L679.72 466.347H684.081V466.075C684.696 458.838 680.372 451.329 680.317 451.257L680.281 451.184L680.209 451.148C675.993 448.995 664.395 451.04 663.907 451.112L663.653 451.148V455.455H663.943C666.693 455.527 674.093 455.816 675.215 456.395V456.413Z" fill="#E13F55"/>
<path d="M680.191 434.774C675.957 432.621 663.762 436.149 663.255 436.294L663.038 436.348V440.491H663.346C666.657 440.419 673.243 440.401 674.437 440.745C676.644 441.36 679.485 447.312 680.39 449.574L680.462 449.755H684.678V449.484C685.293 442.228 680.353 434.937 680.299 434.864L680.191 434.774Z" fill="#E13F55"/>
<path d="M692.567 505.627L697.651 502.081L689.328 484.639L684.081 488.475L692.567 505.627Z" fill="#E13F55"/>
<path d="M665.282 545.849L665.463 545.361L656.145 547.17L632.895 610.479L644.076 605.955L665.282 545.849Z" fill="#E13F55"/>
<path d="M406.962 464.827L406.763 465.044L409.64 467.649L426.539 449.049L423.681 446.408L406.962 464.827Z" fill="#E13F55"/>
<path d="M423.442 511.32L422.005 514.935L443.007 523.28L444.443 519.665L423.442 511.32Z" fill="#E13F55"/>
<path d="M340.197 511.364L317.841 520.701L319.341 524.291L341.696 514.953L340.197 511.364Z" fill="#E13F55"/>
<path d="M520.48 710.065L507.598 726.24L521.222 728.375L520.914 727.833C516.355 719.998 519.594 712.164 519.63 712.091L520.48 710.065Z" fill="#E13F55"/>
<path d="M378.357 674.294L382.934 665.193L337.665 613.193L337.194 613.555L378.085 673.878L378.357 674.294Z" fill="#E13F55"/>
<path d="M302.057 464.284C299.777 469.911 298.076 475.81 297.027 481.835C295.814 488.765 295.452 495.767 295.941 502.678V502.823L308.805 510.658L308.335 509.735C305.096 503.257 298.058 485.87 302.617 464.483L302.057 464.302V464.284Z" fill="#E13F55"/>
<path d="M357.404 578.254L369.581 568.593L368.206 568.954C361.186 570.782 346.946 572.591 330.427 564.286L330.12 564.793C338.316 570.872 347.435 575.378 357.242 578.218L357.386 578.254H357.404Z" fill="#E13F55"/>
<path d="M411.051 576.029L411.196 575.975C417.692 573.478 423.916 570.167 429.688 566.114C434.265 562.911 438.517 559.238 442.353 555.24L441.955 554.787C426.069 566.964 408.175 567.851 398.911 567.308L397.807 567.236L410.907 575.92L411.033 576.011L411.051 576.029Z" fill="#E13F55"/>
<path d="M386.589 411.596L384.092 411.488C374.756 411.089 365.474 412.284 356.554 414.925L356.409 414.961L350.312 432.747L351.289 431.68C355.686 426.867 367.664 415.323 384.147 412.066L386.589 411.578V411.596Z" fill="#E13F55"/>
<path d="M438.572 510.097L437.576 509.083C434.663 506.134 432.148 502.895 430.104 499.458L429.923 499.15C429.579 498.553 429.235 497.974 428.91 497.359L421.347 483.988L428.168 505.953L438.572 510.079V510.097Z" fill="#E13F55"/>
<path style="mix-blend-mode:hard-light" opacity="0.7" d="M673.894 471.811L697.271 517.334L689.255 525.838L673.894 471.811Z" fill="url(#paint34_linear_1128_1448)"/>
<path style="mix-blend-mode:hard-light" opacity="0.83" d="M486.591 711.965C486.591 711.965 478.196 681.043 496.76 655.531C515.323 630.02 523.592 618.657 523.592 618.657C523.592 618.657 470.669 659.548 476.423 702.502L486.591 711.983V711.965Z" fill="url(#paint35_linear_1128_1448)"/>
<path d="M568.832 701.795C575 694.035 576.887 685.269 573.046 682.216C569.205 679.163 561.091 682.979 554.923 690.739C548.755 698.499 546.869 707.264 550.709 710.317C554.55 713.37 562.664 709.555 568.832 701.795Z" fill="url(#paint36_radial_1128_1448)"/>
<path d="M910.429 160.134C910.429 160.134 910.357 160.007 910.303 159.953C910.846 158.849 911.225 157.655 911.424 156.407L914.12 139.526C914.88 134.767 912.872 129.99 908.946 127.204C900.442 121.161 890.907 115.859 880.611 111.427C867.15 105.637 857.235 104.732 849.437 108.568C847.066 109.726 845.04 111.3 843.303 113.254C842.525 109.907 841.765 106.541 840.987 103.194C840.028 99.0326 837.024 95.631 833.026 94.1654C819.293 89.1174 812.128 86.6386 798.214 82.1152C794.939 81.0477 791.357 81.3734 788.317 83.0018C785.277 84.6302 783.034 87.4347 782.111 90.7639L781.912 91.5057C776.647 80.2878 766.732 72.3629 752.691 68.5452C738.379 64.6732 730.943 62.7915 716.486 59.4804C712.723 58.6119 708.778 59.5166 705.757 61.923C705.268 62.321 704.816 62.7553 704.4 63.2076C697.361 56.1874 687.247 51.4469 674.238 49.0586C657.357 45.9646 644.692 48.6062 636.568 56.893C636.405 56.6759 636.26 56.4407 636.097 56.2417C628.986 47.3035 617.081 41.9117 600.725 40.1928C587.679 38.8358 580.93 38.2387 567.885 37.334C564.375 37.0988 560.937 38.3111 558.368 40.6994C557.246 41.7488 556.36 42.9792 555.69 44.3181C553.953 39.5414 549.538 36.2123 544.4 35.977C529.979 35.3257 522.525 35.1267 508.068 35C502.278 35 497.212 38.8177 495.729 44.4086C493.539 52.6411 491.35 60.8917 489.161 69.1242V63.0267C489.161 61.9411 488.998 60.8555 488.708 59.8242V47.9549C488.708 44.5352 487.333 41.2603 484.891 38.8901C482.448 36.5018 479.137 35.2171 475.717 35.3076C466.399 35.5428 461.55 35.7237 452.196 36.1942C450.079 36.3027 448.107 36.9179 446.388 37.9311C444.542 37.1169 442.516 36.7189 440.453 36.8455C431.081 37.4245 426.25 37.7864 416.968 38.6006C415.213 38.7453 413.566 39.27 412.083 40.0662C410.454 39.5414 408.735 39.3424 406.999 39.5234C397.699 40.428 392.868 40.9527 383.586 42.0926C380.564 42.4545 377.904 43.8658 375.95 45.9284C373.471 44.4086 370.504 43.7753 367.573 44.1734C358.291 45.458 353.496 46.1998 344.251 47.7197C339.673 48.4615 336.018 51.6097 334.462 55.735C326.591 51.6821 316.224 50.9584 303.504 53.6181C290.622 56.314 280.634 61.2897 273.686 68.4366C273.306 68.0386 272.89 67.6767 272.456 67.3329C269.362 64.9265 265.345 64.0942 261.546 65.0712C252.39 67.4234 247.686 68.6899 238.639 71.2411C236.595 71.8201 234.785 72.8876 233.32 74.2808C231.33 73.8827 229.231 73.937 227.222 74.5341C218.158 77.2119 213.471 78.6594 204.497 81.5724C200.752 82.7847 197.875 85.6254 196.536 89.1536C193.333 87.1271 189.317 86.6024 185.626 87.887C177.194 90.8001 172.852 92.3561 164.511 95.4682C159.553 97.3137 156.26 102.036 156.26 107.337C155.211 106.179 153.944 105.202 152.515 104.497C149.294 102.905 145.531 102.76 142.202 104.099C128.541 109.581 121.521 112.548 108.059 118.555C104.404 120.184 101.727 123.459 100.858 127.367C94.9958 153.638 89.1697 179.91 83.3618 206.2C82.3123 210.922 84.0493 215.807 87.8127 218.829C90.0925 220.656 92.897 221.597 95.7196 221.597C97.547 221.597 99.3925 221.199 101.111 220.385C103.21 219.39 105.056 218.54 106.775 217.743C107.372 220.258 108.765 222.574 110.864 224.257C112.981 225.958 115.586 226.826 118.21 226.826C119.91 226.826 121.611 226.464 123.222 225.704C131.725 221.706 135.887 219.806 144.481 216.043C147.991 214.505 150.524 211.356 151.284 207.611L152.171 203.251C153.22 204.626 154.577 205.747 156.152 206.562C159.191 208.118 162.756 208.262 165.922 206.978C174.571 203.45 178.804 201.785 187.544 198.492C188.213 198.239 188.828 197.931 189.425 197.587C190.113 197.461 190.8 197.28 191.47 197.026C199.739 193.951 203.791 192.503 212.133 189.626C215.588 188.432 218.212 185.754 219.388 182.443C222.319 184.397 226.046 184.958 229.502 183.836C237.391 181.303 241.245 180.109 249.152 177.775C251.033 177.214 252.698 176.219 254.037 174.898C254.833 175.061 255.629 175.188 256.443 175.188C257.511 175.188 258.596 175.043 259.646 174.753C268.114 172.365 272.257 171.243 280.725 169.072C285.556 167.842 288.993 163.698 289.464 158.813C292.901 160.568 297.678 161.943 304.373 161.943C308.209 161.943 312.659 161.491 317.834 160.405C318.685 160.224 319.535 159.953 320.331 159.573C321.742 160.116 323.262 160.387 324.818 160.369C333.051 160.206 337.086 160.188 345.318 160.224C350.04 160.261 354.347 157.42 356.192 153.059C357.006 151.142 357.676 149.567 358.291 148.102C361.168 149.604 364.407 150.599 368.007 151.015C369.762 151.232 371.68 151.323 373.743 151.323C377.199 151.323 381.107 151.033 385.558 150.454C392.632 149.531 398.314 148.229 402.909 146.492C406.944 144.954 410.454 142.837 413.404 140.195C413.802 140.702 414.236 141.208 414.724 141.643C416.896 143.633 419.736 144.737 422.667 144.737C423.011 144.737 423.355 144.737 423.681 144.7C432.347 143.94 436.581 143.633 445.284 143.09C447.238 142.963 449.048 142.366 450.622 141.425C452.142 142.113 453.806 142.493 455.507 142.493C455.706 142.493 455.905 142.493 456.104 142.493C469.855 141.805 478.051 141.516 489.522 141.425C489.667 141.425 489.812 141.444 489.975 141.425C491.694 141.407 493.268 141.389 494.715 141.371C496.217 141.371 497.755 141.371 499.383 141.371C499.474 141.371 499.564 141.371 499.655 141.371C503.672 141.371 507.435 141.389 512.809 141.462C518.309 141.552 523.122 137.789 524.407 132.433L524.461 132.216L524.66 133.03C525.872 138.169 530.359 141.878 535.643 142.077C544.834 142.439 549.303 142.674 558.44 143.271C558.694 143.271 558.947 143.289 559.218 143.289C559.653 143.289 560.105 143.271 560.539 143.217C561.19 143.38 561.86 143.488 562.566 143.542C574.724 144.393 580.641 144.917 592.782 146.184C595.966 146.51 598.951 146.691 601.756 146.691C612.883 146.691 621.152 144.049 626.906 138.748C627.069 139.001 627.213 139.254 627.376 139.489C630.868 144.501 635.663 148.572 641.616 151.576C646.808 154.199 652.96 156.135 660.415 157.51C665.3 158.397 669.66 158.849 673.605 158.849C675.776 158.849 677.821 158.723 679.738 158.451C683.737 157.89 687.32 156.696 690.45 154.905C691.391 159.302 694.756 162.884 699.297 163.934C707.838 165.906 711.999 166.919 720.467 169.072C722.873 169.687 725.37 169.524 727.632 168.638C729.17 170.52 731.25 171.895 733.657 172.546C742.993 175.079 747.516 176.382 756.744 179.186C756.853 179.223 756.979 179.241 757.088 179.259C757.251 179.313 757.413 179.385 757.576 179.44C766.442 182.117 770.748 183.493 779.596 186.424C782.708 187.455 786.11 187.147 788.968 185.555C790.687 184.614 792.117 183.257 793.166 181.647L793.944 185.338C794.776 189.319 797.617 192.594 801.453 193.987C810.21 197.153 814.48 198.745 823.165 202.147C824.25 202.581 825.39 202.816 826.53 202.907C833.514 207.068 841.059 210.922 849.075 214.342C853.218 216.115 856.258 217.327 858.592 218.178C861.469 219.209 864.798 220.041 868.453 220.62C870.081 220.874 871.637 221 873.121 221C876.721 221 879.942 220.24 882.71 218.739C884.61 217.707 886.311 216.332 887.831 214.613C888.554 214.758 889.296 214.885 890.056 215.011C891.793 215.283 893.44 215.427 895.032 215.427C898.886 215.427 902.323 214.613 905.273 213.003C909.452 210.741 912.763 206.905 915.134 201.622C917.124 197.207 918.083 191.852 918.083 185.23C918.083 176.056 915.55 167.607 910.574 160.116L910.429 160.134Z" fill="#E13F55"/>
<path d="M113.161 130.099C107.299 156.371 101.473 182.624 95.665 208.914C104.748 204.644 109.307 202.563 118.481 198.546C119.476 193.625 119.983 191.164 120.978 186.243C128.143 183.113 131.743 181.593 138.963 178.625C139.976 182.696 140.464 184.741 141.478 188.812C150.723 185.049 155.355 183.221 164.673 179.711C158.739 158.433 152.786 137.137 146.851 115.859C133.299 121.287 126.55 124.146 113.161 130.117V130.099ZM124.886 166.521C126.677 157.818 127.564 153.476 129.355 144.791C129.843 144.592 130.079 144.483 130.549 144.284C132.286 151.467 133.173 155.068 134.91 162.269C130.893 163.952 128.885 164.784 124.886 166.521Z" fill="white"/>
<path d="M208.333 124.2C208.152 124.255 208.061 124.291 207.88 124.345C207.736 121.595 207.356 119.912 206.759 119.279C199.919 111.445 196.518 107.555 189.697 99.8468C181.337 102.742 177.158 104.243 168.853 107.337V178.137C177.701 174.844 182.134 173.252 191.036 170.194V139.616C191.216 139.562 191.307 139.526 191.488 139.471C191.633 142.222 192.013 143.904 192.61 144.519C199.413 152.245 202.832 156.135 209.672 164.006C218.085 161.31 222.301 160.007 230.751 157.51V86.6929C221.758 89.3526 217.271 90.7458 208.333 93.6226V124.2Z" fill="white"/>
<path d="M242.005 154.217C251.015 151.666 255.539 150.454 264.604 148.138C264.604 124.544 264.604 100.951 264.604 77.3386C255.539 79.6546 251.015 80.8849 242.005 83.418V154.217Z" fill="white"/>
<path d="M339.926 96.7346C339.926 83.8883 337.429 74.9139 332.472 69.8478C327.496 64.7816 318.666 63.3884 306.037 66.0301C293.39 68.6717 284.687 73.7017 279.838 80.7762C274.989 87.8688 272.564 97.8926 272.564 110.793C272.564 116.529 273.017 121.305 273.921 125.123C274.826 128.941 276.418 132.198 278.698 134.894C283.095 140.34 291.653 141.534 304.445 138.838C308.335 136.974 310.271 136.052 314.161 134.242V138.548C322.936 138.386 327.351 138.349 336.163 138.386C338.551 132.759 339.745 129.954 342.134 124.327C338.823 122.988 337.176 122.319 333.865 120.998C337.918 114.394 339.944 106.306 339.944 96.7165L339.926 96.7346ZM313.275 118.284C311.863 119.279 309.602 120.093 306.472 120.745C302.672 121.541 300.79 121.939 296.991 122.771V93.3149C296.991 90.7457 297.696 88.9544 299.107 87.9231C300.519 86.9099 302.744 86.0595 305.784 85.4262C309.62 84.6301 311.538 84.232 315.392 83.4721V112.928C315.392 115.497 314.686 117.271 313.275 118.284Z" fill="white"/>
<path d="M385.069 101.783C385.069 104.352 384.526 106.053 383.459 106.903C382.373 107.753 380.383 108.369 377.452 108.749C374.177 109.183 372.53 109.4 369.274 109.852C369.274 92.1388 369.274 74.4435 369.274 56.7301C360.046 58.0147 355.45 58.7203 346.259 60.2221C346.259 76.1262 346.259 84.0692 346.259 99.9733C346.259 106.396 346.675 111.499 347.525 115.28C348.376 119.062 349.932 122.138 352.248 124.49C354.546 126.842 357.676 128.253 361.62 128.724C365.564 129.194 370.739 128.977 377.126 128.145C383.513 127.312 388.706 126.173 392.705 124.653C396.703 123.133 399.87 120.907 402.186 117.958C404.501 114.991 406.076 111.517 406.926 107.5C407.776 103.483 408.193 98.2725 408.193 91.8494C408.193 75.9453 408.193 68.0022 408.193 52.0981C398.947 53.0028 394.315 53.5094 385.087 54.6312C385.087 73.4846 385.087 82.9112 385.087 101.746L385.069 101.783Z" fill="white"/>
<path d="M418.018 122.011C427.281 121.197 431.913 120.853 441.177 120.274V49.4929C431.895 50.0719 427.263 50.4157 418.018 51.2299C418.018 74.8237 418.018 98.4175 418.018 122.029V122.011Z" fill="white"/>
<path d="M507.906 47.6653C503.237 65.2159 498.587 82.7665 493.919 100.317C487.786 100.353 483.335 100.426 475.971 100.625V47.9548C466.689 48.19 462.039 48.3709 452.757 48.8414C452.757 72.4352 452.757 96.0289 452.757 119.641C467.63 118.899 476.568 118.591 489.088 118.483C489.088 118.483 489.088 118.483 489.088 118.501C490.952 118.483 492.635 118.465 494.209 118.447C495.801 118.447 497.448 118.447 499.185 118.447C503.617 118.429 507.725 118.447 513.587 118.537C514.654 114.068 515.197 111.824 516.265 107.374C523.918 107.5 527.754 107.609 535.407 107.88C536.475 112.403 537.018 114.665 538.085 119.189C547.874 119.568 552.777 119.84 562.548 120.473C556.305 96.5175 550.045 72.5799 543.767 48.6423C529.437 47.991 522.254 47.7919 507.906 47.6834V47.6653ZM520.444 89.4068C522.344 81.518 523.303 77.5737 525.203 69.703C525.709 69.703 525.963 69.7211 526.487 69.7392C528.351 77.7184 529.274 81.7171 531.137 89.6963C526.867 89.5515 524.732 89.4972 520.462 89.4068H520.444Z" fill="white"/>
<path d="M599.368 52.7857C586.413 51.4287 579.935 50.8678 566.962 49.9631C566.962 73.5569 566.962 97.1507 566.962 120.763C579.935 121.667 586.431 122.246 599.368 123.585C612.395 124.942 621.315 123.404 626.164 118.61C631.013 113.815 633.419 105.094 633.419 92.3741C633.419 79.6544 630.995 70.2277 626.164 64.1303C621.315 58.0509 612.395 54.1608 599.368 52.7857ZM608.722 100.48C608.722 103.049 608.016 104.605 606.587 105.166C605.158 105.727 602.878 105.836 599.711 105.492C595.876 105.094 593.958 104.895 590.104 104.533V69.9925C593.94 70.3544 595.858 70.5534 599.711 70.9515C602.878 71.2772 605.158 71.8923 606.587 72.7789C608.016 73.6474 608.722 75.3844 608.722 77.9536V100.498V100.48Z" fill="white"/>
<path d="M671.922 61.525C659.166 59.1909 650.3 60.7651 645.397 65.9398C640.494 71.1145 638.033 80.1793 638.033 93.098C638.033 99.5211 638.558 104.985 639.589 109.527C640.621 114.068 642.412 118.139 644.945 121.776C647.478 125.413 650.97 128.344 655.403 130.588C659.836 132.831 665.354 134.532 671.922 135.726C678.49 136.938 683.99 137.246 688.405 136.631C692.82 136.016 696.294 134.369 698.809 131.655C701.324 128.941 703.097 125.521 704.11 121.36C705.142 117.198 705.648 111.915 705.648 105.51C705.648 92.5914 703.224 82.6219 698.338 75.674C693.471 68.7081 684.678 63.8952 671.922 61.5431V61.525ZM681.204 112.096C681.204 114.665 680.498 116.167 679.087 116.619C677.676 117.072 675.396 116.999 672.266 116.42C668.466 115.715 666.548 115.389 662.749 114.72V85.2635C662.749 82.6943 663.454 81.1744 664.866 80.704C666.277 80.2336 668.521 80.2698 671.578 80.8307C675.432 81.5363 677.35 81.8982 681.204 82.64V112.096Z" fill="white"/>
<path d="M773.571 112.494C773.571 95.9567 765.537 85.1549 749.344 80.7763C735.104 76.9224 727.957 75.1312 713.609 71.8201V142.62C722.71 144.718 727.252 145.822 736.317 148.138V127.077C738.271 127.584 739.248 127.837 741.184 128.344C744.893 137.734 746.757 142.457 750.448 151.883C760.381 154.597 765.338 156.009 775.217 158.994C770.368 148.102 767.944 142.674 763.077 131.854C770.061 130.244 773.535 123.821 773.535 112.494H773.571ZM749.344 108.296C749.344 110.341 748.729 111.463 747.48 111.698C746.232 111.933 744.26 111.698 741.546 110.974C739.465 110.431 738.415 110.16 736.335 109.617V95.4681C738.415 96.0109 739.465 96.2643 741.546 96.8251C744.26 97.5308 746.232 98.345 747.48 99.2497C748.729 100.154 749.344 101.62 749.344 103.664V108.314V108.296Z" fill="white"/>
<path d="M794.288 94.1655C788.245 115.86 782.183 137.572 776.14 159.266C785.621 162.142 790.343 163.644 799.752 166.756C800.783 162.613 801.29 160.532 802.321 156.407C809.685 158.868 813.34 160.134 820.668 162.758C821.681 167.607 822.206 170.031 823.219 174.88C832.573 178.264 837.224 180.001 846.505 183.637C840.571 157.782 834.618 131.926 828.629 106.071C814.951 101.041 808.075 98.6708 794.27 94.1655H794.288ZM806.338 139.743C808.165 132.433 809.07 128.778 810.898 121.487C811.386 121.649 811.639 121.74 812.128 121.903C813.901 130.443 814.788 134.731 816.579 143.271C812.49 141.824 810.445 141.118 806.356 139.725L806.338 139.743Z" fill="white"/>
<path d="M899.899 167.154C896.298 161.744 889.803 156.389 880.304 151.268C877.174 149.585 875.599 148.753 872.469 147.107V141.552C875.31 142.384 878.748 143.669 882.801 145.46C886.854 147.233 892.245 150.201 898.922 154.416C900.007 147.668 900.532 144.284 901.618 137.535C893.928 132.071 885.279 127.222 875.618 123.079C865.974 118.935 859.08 117.958 855.027 119.948C850.974 121.939 848.93 127.801 848.93 137.463C848.93 144.483 850.594 150.436 853.923 155.357C857.253 160.279 863.368 164.947 872.234 169.542C876.16 171.569 878.114 172.6 882.023 174.681V180.344C878.766 179.367 874.478 177.739 869.122 175.477C863.784 173.233 857.741 169.886 851.01 165.471C849.78 172.455 849.165 175.947 847.935 182.95C856.077 188.106 864.87 192.666 874.297 196.701C878.223 198.383 881.353 199.65 883.705 200.5C886.057 201.351 888.789 202.02 891.883 202.509C894.977 202.997 897.384 202.798 899.067 201.875C900.749 200.953 902.215 199.143 903.427 196.429C904.639 193.715 905.255 189.988 905.255 185.229C905.255 178.589 903.463 172.546 899.863 167.136L899.899 167.154Z" fill="white"/>
</g>
<defs>
<linearGradient id="paint0_linear_1128_1448" x1="489.794" y1="764.526" x2="509.19" y2="672.63" gradientUnits="userSpaceOnUse">
<stop stop-color="#EA7C73"/>
<stop offset="0.18" stop-color="#EE9891"/>
<stop offset="0.57" stop-color="#F7CFCC"/>
<stop offset="0.85" stop-color="#FCF1F1"/>
<stop offset="1" stop-color="white"/>
</linearGradient>
<linearGradient id="paint1_linear_1128_1448" x1="347.326" y1="584.877" x2="371.481" y2="471.865" gradientUnits="userSpaceOnUse">
<stop stop-color="#B7DCD8"/>
<stop offset="0.04" stop-color="#62AAB7"/>
<stop offset="0.28" stop-color="#91C3CC"/>
<stop offset="0.62" stop-color="#CCE3E7"/>
<stop offset="0.87" stop-color="#F1F7F8"/>
<stop offset="1" stop-color="white"/>
</linearGradient>
<linearGradient id="paint2_linear_1128_1448" x1="645.831" y1="523.667" x2="654.842" y2="485.634" gradientUnits="userSpaceOnUse">
<stop stop-color="#EA7C73"/>
<stop offset="0.18" stop-color="#EE9891"/>
<stop offset="0.57" stop-color="#F7CFCC"/>
<stop offset="0.85" stop-color="#FCF1F1"/>
<stop offset="1" stop-color="white"/>
</linearGradient>
<linearGradient id="paint3_linear_1128_1448" x1="534.521" y1="662.353" x2="654.86" y2="662.353" gradientUnits="userSpaceOnUse">
<stop stop-color="#EA7C73"/>
<stop offset="0.18" stop-color="#EE9891"/>
<stop offset="0.57" stop-color="#F7CFCC"/>
<stop offset="0.85" stop-color="#FCF1F1"/>
<stop offset="1" stop-color="white"/>
</linearGradient>
<linearGradient id="paint4_linear_1128_1448" x1="469.258" y1="708.617" x2="370.974" y2="590.124" gradientUnits="userSpaceOnUse">
<stop stop-color="#EA7C73"/>
<stop offset="0.18" stop-color="#EE9891"/>
<stop offset="0.57" stop-color="#F7CFCC"/>
<stop offset="0.85" stop-color="#FCF1F1"/>
<stop offset="1" stop-color="white"/>
</linearGradient>
<linearGradient id="paint5_linear_1128_1448" x1="615.869" y1="609.393" x2="592.546" y2="581.276" gradientUnits="userSpaceOnUse">
<stop stop-color="white" stop-opacity="0"/>
<stop offset="0.21" stop-color="white" stop-opacity="0.25"/>
<stop offset="0.5" stop-color="white" stop-opacity="0.57"/>
<stop offset="0.73" stop-color="white" stop-opacity="0.8"/>
<stop offset="0.91" stop-color="white" stop-opacity="0.95"/>
<stop offset="1" stop-color="white"/>
</linearGradient>
<linearGradient id="paint6_linear_1128_1448" x1="636.893" y1="698.34" x2="668.955" y2="563.074" gradientUnits="userSpaceOnUse">
<stop stop-color="#EA7C73"/>
<stop offset="0.18" stop-color="#EE9891"/>
<stop offset="0.57" stop-color="#F7CFCC"/>
<stop offset="0.85" stop-color="#FCF1F1"/>
<stop offset="1" stop-color="white"/>
</linearGradient>
<linearGradient id="paint7_linear_1128_1448" x1="596.708" y1="463.868" x2="615" y2="481.183" gradientUnits="userSpaceOnUse">
<stop stop-color="white" stop-opacity="0"/>
<stop offset="0.21" stop-color="white" stop-opacity="0.25"/>
<stop offset="0.5" stop-color="white" stop-opacity="0.57"/>
<stop offset="0.73" stop-color="white" stop-opacity="0.8"/>
<stop offset="0.91" stop-color="white" stop-opacity="0.95"/>
<stop offset="1" stop-color="white"/>
</linearGradient>
<linearGradient id="paint8_linear_1128_1448" x1="618.999" y1="451.727" x2="649.197" y2="460.014" gradientUnits="userSpaceOnUse">
<stop stop-color="white"/>
<stop offset="0.09" stop-color="white" stop-opacity="0.95"/>
<stop offset="0.27" stop-color="white" stop-opacity="0.8"/>
<stop offset="0.5" stop-color="white" stop-opacity="0.57"/>
<stop offset="0.79" stop-color="white" stop-opacity="0.25"/>
<stop offset="1" stop-color="white" stop-opacity="0"/>
</linearGradient>
<linearGradient id="paint9_linear_1128_1448" x1="659.438" y1="596.764" x2="681.475" y2="602.825" gradientUnits="userSpaceOnUse">
<stop stop-color="white"/>
<stop offset="0.09" stop-color="white" stop-opacity="0.95"/>
<stop offset="0.27" stop-color="white" stop-opacity="0.8"/>
<stop offset="0.5" stop-color="white" stop-opacity="0.57"/>
<stop offset="0.79" stop-color="white" stop-opacity="0.25"/>
<stop offset="1" stop-color="white" stop-opacity="0"/>
</linearGradient>
<linearGradient id="paint10_linear_1128_1448" x1="496.597" y1="546.591" x2="496.796" y2="598.519" gradientUnits="userSpaceOnUse">
<stop stop-color="white"/>
<stop offset="0.09" stop-color="white" stop-opacity="0.95"/>
<stop offset="0.27" stop-color="white" stop-opacity="0.8"/>
<stop offset="0.5" stop-color="white" stop-opacity="0.57"/>
<stop offset="0.79" stop-color="white" stop-opacity="0.25"/>
<stop offset="1" stop-color="white" stop-opacity="0"/>
</linearGradient>
<linearGradient id="paint11_linear_1128_1448" x1="433.27" y1="620.231" x2="411.829" y2="676.737" gradientUnits="userSpaceOnUse">
<stop stop-color="white"/>
<stop offset="0.09" stop-color="white" stop-opacity="0.95"/>
<stop offset="0.27" stop-color="white" stop-opacity="0.8"/>
<stop offset="0.5" stop-color="white" stop-opacity="0.57"/>
<stop offset="0.79" stop-color="white" stop-opacity="0.25"/>
<stop offset="1" stop-color="white" stop-opacity="0"/>
</linearGradient>
<linearGradient id="paint12_linear_1128_1448" x1="483.407" y1="707.803" x2="539.912" y2="641.22" gradientUnits="userSpaceOnUse">
<stop stop-color="#EA7C73"/>
<stop offset="0.18" stop-color="#EE9891"/>
<stop offset="0.57" stop-color="#F7CFCC"/>
<stop offset="0.85" stop-color="#FCF1F1"/>
<stop offset="1" stop-color="white"/>
</linearGradient>
<linearGradient id="paint13_linear_1128_1448" x1="508.9" y1="734.039" x2="539.406" y2="742.416" gradientUnits="userSpaceOnUse">
<stop stop-color="white"/>
<stop offset="0.09" stop-color="white" stop-opacity="0.95"/>
<stop offset="0.27" stop-color="white" stop-opacity="0.8"/>
<stop offset="0.5" stop-color="white" stop-opacity="0.57"/>
<stop offset="0.79" stop-color="white" stop-opacity="0.25"/>
<stop offset="1" stop-color="white" stop-opacity="0"/>
</linearGradient>
<linearGradient id="paint14_linear_1128_1448" x1="493.792" y1="727.073" x2="540.781" y2="727.073" gradientUnits="userSpaceOnUse">
<stop stop-color="#EA7C73"/>
<stop offset="0.18" stop-color="#EE9891"/>
<stop offset="0.57" stop-color="#F7CFCC"/>
<stop offset="0.85" stop-color="#FCF1F1"/>
<stop offset="1" stop-color="white"/>
</linearGradient>
<linearGradient id="paint15_linear_1128_1448" x1="606.949" y1="565.842" x2="694.322" y2="565.842" gradientUnits="userSpaceOnUse">
<stop stop-color="#EA7C73"/>
<stop offset="0.18" stop-color="#EE9891"/>
<stop offset="0.57" stop-color="#F7CFCC"/>
<stop offset="0.85" stop-color="#FCF1F1"/>
<stop offset="1" stop-color="white"/>
</linearGradient>
<linearGradient id="paint16_linear_1128_1448" x1="441.177" y1="575.559" x2="465.802" y2="608.543" gradientUnits="userSpaceOnUse">
<stop stop-color="white"/>
<stop offset="0.09" stop-color="white" stop-opacity="0.95"/>
<stop offset="0.27" stop-color="white" stop-opacity="0.8"/>
<stop offset="0.5" stop-color="white" stop-opacity="0.57"/>
<stop offset="0.79" stop-color="white" stop-opacity="0.25"/>
<stop offset="1" stop-color="white" stop-opacity="0"/>
</linearGradient>
<linearGradient id="paint17_linear_1128_1448" x1="422.215" y1="601.016" x2="440.616" y2="625.641" gradientUnits="userSpaceOnUse">
<stop stop-color="white"/>
<stop offset="0.09" stop-color="white" stop-opacity="0.95"/>
<stop offset="0.27" stop-color="white" stop-opacity="0.8"/>
<stop offset="0.5" stop-color="white" stop-opacity="0.57"/>
<stop offset="0.79" stop-color="white" stop-opacity="0.25"/>
<stop offset="1" stop-color="white" stop-opacity="0"/>
</linearGradient>
<linearGradient id="paint18_linear_1128_1448" x1="596.491" y1="444.327" x2="615.724" y2="444.327" gradientUnits="userSpaceOnUse">
<stop stop-color="white" stop-opacity="0"/>
<stop offset="0.21" stop-color="white" stop-opacity="0.25"/>
<stop offset="0.5" stop-color="white" stop-opacity="0.57"/>
<stop offset="0.73" stop-color="white" stop-opacity="0.8"/>
<stop offset="0.91" stop-color="white" stop-opacity="0.95"/>
<stop offset="1" stop-color="white"/>
</linearGradient>
<linearGradient id="paint19_linear_1128_1448" x1="607.473" y1="428.821" x2="615.308" y2="428.821" gradientUnits="userSpaceOnUse">
<stop stop-color="white" stop-opacity="0"/>
<stop offset="0.21" stop-color="white" stop-opacity="0.25"/>
<stop offset="0.5" stop-color="white" stop-opacity="0.57"/>
<stop offset="0.73" stop-color="white" stop-opacity="0.8"/>
<stop offset="0.91" stop-color="white" stop-opacity="0.95"/>
<stop offset="1" stop-color="white"/>
</linearGradient>
<linearGradient id="paint20_linear_1128_1448" x1="673.225" y1="426.053" x2="705.069" y2="520.88" gradientUnits="userSpaceOnUse">
<stop stop-color="#EA7C73"/>
<stop offset="0.18" stop-color="#EE9891"/>
<stop offset="0.57" stop-color="#F7CFCC"/>
<stop offset="0.85" stop-color="#FCF1F1"/>
<stop offset="1" stop-color="white"/>
</linearGradient>
<linearGradient id="paint21_linear_1128_1448" x1="638.612" y1="469.423" x2="645.035" y2="488.529" gradientUnits="userSpaceOnUse">
<stop stop-color="#EA7C73"/>
<stop offset="0.18" stop-color="#EE9891"/>
<stop offset="0.57" stop-color="#F7CFCC"/>
<stop offset="0.85" stop-color="#FCF1F1"/>
<stop offset="1" stop-color="white"/>
</linearGradient>
<linearGradient id="paint22_linear_1128_1448" x1="645.831" y1="523.667" x2="654.842" y2="485.634" gradientUnits="userSpaceOnUse">
<stop stop-color="#EA7C73"/>
<stop offset="0.18" stop-color="#EE9891"/>
<stop offset="0.57" stop-color="#F7CFCC"/>
<stop offset="0.85" stop-color="#FCF1F1"/>
<stop offset="1" stop-color="white"/>
</linearGradient>
<linearGradient id="paint23_linear_1128_1448" x1="534.521" y1="662.353" x2="654.86" y2="662.353" gradientUnits="userSpaceOnUse">
<stop stop-color="#EA7C73"/>
<stop offset="0.18" stop-color="#EE9891"/>
<stop offset="0.57" stop-color="#F7CFCC"/>
<stop offset="0.85" stop-color="#FCF1F1"/>
<stop offset="1" stop-color="white"/>
</linearGradient>
<linearGradient id="paint24_linear_1128_1448" x1="469.258" y1="708.617" x2="370.974" y2="590.124" gradientUnits="userSpaceOnUse">
<stop stop-color="#EA7C73"/>
<stop offset="0.18" stop-color="#EE9891"/>
<stop offset="0.57" stop-color="#F7CFCC"/>
<stop offset="0.85" stop-color="#FCF1F1"/>
<stop offset="1" stop-color="white"/>
</linearGradient>
<linearGradient id="paint25_linear_1128_1448" x1="636.893" y1="698.34" x2="668.954" y2="563.074" gradientUnits="userSpaceOnUse">
<stop stop-color="#EA7C73"/>
<stop offset="0.18" stop-color="#EE9891"/>
<stop offset="0.57" stop-color="#F7CFCC"/>
<stop offset="0.85" stop-color="#FCF1F1"/>
<stop offset="1" stop-color="white"/>
</linearGradient>
<linearGradient id="paint26_linear_1128_1448" x1="483.407" y1="707.803" x2="539.912" y2="641.219" gradientUnits="userSpaceOnUse">
<stop stop-color="#EA7C73"/>
<stop offset="0.18" stop-color="#EE9891"/>
<stop offset="0.57" stop-color="#F7CFCC"/>
<stop offset="0.85" stop-color="#FCF1F1"/>
<stop offset="1" stop-color="white"/>
</linearGradient>
<linearGradient id="paint27_linear_1128_1448" x1="493.792" y1="727.073" x2="540.781" y2="727.073" gradientUnits="userSpaceOnUse">
<stop stop-color="#EA7C73"/>
<stop offset="0.18" stop-color="#EE9891"/>
<stop offset="0.57" stop-color="#F7CFCC"/>
<stop offset="0.85" stop-color="#FCF1F1"/>
<stop offset="1" stop-color="white"/>
</linearGradient>
<linearGradient id="paint28_linear_1128_1448" x1="673.225" y1="426.053" x2="705.069" y2="520.88" gradientUnits="userSpaceOnUse">
<stop stop-color="#EA7C73"/>
<stop offset="0.18" stop-color="#EE9891"/>
<stop offset="0.57" stop-color="#F7CFCC"/>
<stop offset="0.85" stop-color="#FCF1F1"/>
<stop offset="1" stop-color="white"/>
</linearGradient>
<linearGradient id="paint29_linear_1128_1448" x1="638.612" y1="469.423" x2="645.035" y2="488.529" gradientUnits="userSpaceOnUse">
<stop stop-color="#EA7C73"/>
<stop offset="0.18" stop-color="#EE9891"/>
<stop offset="0.57" stop-color="#F7CFCC"/>
<stop offset="0.85" stop-color="#FCF1F1"/>
<stop offset="1" stop-color="white"/>
</linearGradient>
<linearGradient id="paint30_linear_1128_1448" x1="626.254" y1="436.891" x2="648.708" y2="443.042" gradientUnits="userSpaceOnUse">
<stop stop-color="white"/>
<stop offset="0.09" stop-color="white" stop-opacity="0.95"/>
<stop offset="0.27" stop-color="white" stop-opacity="0.8"/>
<stop offset="0.5" stop-color="white" stop-opacity="0.57"/>
<stop offset="0.79" stop-color="white" stop-opacity="0.25"/>
<stop offset="1" stop-color="white" stop-opacity="0"/>
</linearGradient>
<linearGradient id="paint31_linear_1128_1448" x1="643.932" y1="437.596" x2="629.113" y2="419.738" gradientUnits="userSpaceOnUse">
<stop stop-color="white" stop-opacity="0"/>
<stop offset="0.21" stop-color="white" stop-opacity="0.25"/>
<stop offset="0.5" stop-color="white" stop-opacity="0.57"/>
<stop offset="0.73" stop-color="white" stop-opacity="0.8"/>
<stop offset="0.91" stop-color="white" stop-opacity="0.95"/>
<stop offset="1" stop-color="white"/>
</linearGradient>
<linearGradient id="paint32_linear_1128_1448" x1="617.823" y1="417.006" x2="664.811" y2="417.006" gradientUnits="userSpaceOnUse">
<stop stop-color="white" stop-opacity="0"/>
<stop offset="0.21" stop-color="white" stop-opacity="0.25"/>
<stop offset="0.5" stop-color="white" stop-opacity="0.57"/>
<stop offset="0.73" stop-color="white" stop-opacity="0.8"/>
<stop offset="0.91" stop-color="white" stop-opacity="0.95"/>
<stop offset="1" stop-color="white"/>
</linearGradient>
<linearGradient id="paint33_linear_1128_1448" x1="537.47" y1="622.493" x2="497.864" y2="671.056" gradientUnits="userSpaceOnUse">
<stop stop-color="white"/>
<stop offset="0.09" stop-color="white" stop-opacity="0.95"/>
<stop offset="0.27" stop-color="white" stop-opacity="0.8"/>
<stop offset="0.5" stop-color="white" stop-opacity="0.57"/>
<stop offset="0.79" stop-color="white" stop-opacity="0.25"/>
<stop offset="1" stop-color="white" stop-opacity="0"/>
</linearGradient>
<linearGradient id="paint34_linear_1128_1448" x1="685.546" y1="481.943" x2="685.637" y2="506.044" gradientUnits="userSpaceOnUse">
<stop stop-color="white"/>
<stop offset="0.09" stop-color="white" stop-opacity="0.95"/>
<stop offset="0.27" stop-color="white" stop-opacity="0.8"/>
<stop offset="0.5" stop-color="white" stop-opacity="0.57"/>
<stop offset="0.79" stop-color="white" stop-opacity="0.25"/>
<stop offset="1" stop-color="white" stop-opacity="0"/>
</linearGradient>
<linearGradient id="paint35_linear_1128_1448" x1="499.709" y1="636.28" x2="499.872" y2="677.786" gradientUnits="userSpaceOnUse">
<stop stop-color="white"/>
<stop offset="0.09" stop-color="white" stop-opacity="0.95"/>
<stop offset="0.27" stop-color="white" stop-opacity="0.8"/>
<stop offset="0.5" stop-color="white" stop-opacity="0.57"/>
<stop offset="0.79" stop-color="white" stop-opacity="0.25"/>
<stop offset="1" stop-color="white" stop-opacity="0"/>
</linearGradient>
<radialGradient id="paint36_radial_1128_1448" cx="0" cy="0" r="1" gradientUnits="userSpaceOnUse" gradientTransform="translate(535.687 692.321) scale(34.9203 34.9203)">
<stop stop-color="white"/>
<stop offset="0.09" stop-color="white" stop-opacity="0.95"/>
<stop offset="0.27" stop-color="white" stop-opacity="0.8"/>
<stop offset="0.5" stop-color="white" stop-opacity="0.57"/>
<stop offset="0.79" stop-color="white" stop-opacity="0.25"/>
<stop offset="1" stop-color="white" stop-opacity="0"/>
</radialGradient>
<clipPath id="clip0_1128_1448">
<rect width="834.938" height="930.2" fill="white" transform="translate(83 35)"/>
</clipPath>
</defs>
</svg>
