<svg width="1000" height="1000" viewBox="0 0 1000 1000" fill="none" xmlns="http://www.w3.org/2000/svg">
<g clip-path="url(#clip0_1_1810)">
<path d="M332.247 857.959C263.421 820.136 215.384 757.458 196.825 681.418L194.677 672.598H165.953V657.563C165.953 650.432 160.15 644.628 153.018 644.628H138V555.653H166.248L155.985 538.225C154.674 535.979 153.46 533.634 152.411 531.224C148.952 523.355 147.198 514.928 147.198 506.222V314.303H188.808V190.931L298.998 167.093L301.556 162.584C303.294 159.502 305.097 156.485 306.982 153.501C348.904 86.8233 421.124 47 500.18 47C542.955 47 584.762 59.0667 621.06 81.872C652.948 101.923 679.574 129.827 698.051 162.568L700.592 167.093L810.864 190.947V317.746L817.242 320.943C823.636 324.14 829.358 328.337 834.276 333.403C839.719 339.026 844.097 345.584 847.277 352.864C850.737 360.733 852.491 369.144 852.491 377.866V506.238C852.491 514.96 850.737 523.387 847.277 531.273C846.228 533.683 845.015 536.028 843.703 538.274L833.522 555.669H861.688V644.644H846.671C839.539 644.644 833.735 650.448 833.735 657.58V672.614H805.536L803.421 681.5C785.6 756.441 737.235 821.119 670.72 858.926L499.721 953.016L332.231 857.975L332.247 857.959Z" fill="#E5E5E4"/>
<path d="M833.522 358.897C831.046 353.257 827.669 348.208 823.488 343.879C819.176 339.42 814.028 335.862 808.208 333.305C804.29 331.583 800.142 330.485 795.846 329.894V203.096L690.41 180.274C673.606 146.222 647.505 116.252 613.076 94.6108C513.739 32.1626 382.12 62.1817 319.688 161.519C315.836 167.65 312.327 173.913 309.179 180.274L203.842 203.063V329.337H162.231V506.222C162.231 512.862 163.559 519.239 166.183 525.191C168.707 530.929 172.2 536.061 176.544 540.405C180.905 544.766 186.02 548.258 191.775 550.783C195.628 552.472 199.694 553.57 203.858 554.177V615.264C203.858 710.863 255.896 798.838 339.674 844.875L499.852 935.769L663.31 845.826C745.071 799.363 795.863 712.077 795.863 618.035V554.21C800.158 553.62 804.322 552.505 808.224 550.8C814.061 548.242 819.193 544.684 823.504 540.225C827.685 535.897 831.062 530.847 833.522 525.224C836.145 519.256 837.473 512.862 837.473 506.238V377.866C837.473 371.226 836.145 364.848 833.522 358.897Z" fill="#20284D"/>
<path d="M506.919 162.896C526.33 152.157 561.858 140.795 573.482 137.221C572.482 129.434 569.662 111.317 564.202 101.53C556.48 98.6277 519.953 85.4461 493.458 85.5117C489.081 86.479 454.111 94.6109 432.584 110.645L437.322 144.993L506.902 162.912L506.919 162.896Z" fill="white"/>
<path d="M382.35 209.588L428.337 147.452L423.599 113.137C414.336 113.203 389.563 114.596 367.512 126.187C354.478 137.926 342.789 151.583 333.001 167.158C329.656 172.487 326.623 177.913 323.853 183.422C324.639 189.488 330.935 209.523 336.149 224.819L382.35 209.588Z" fill="white"/>
<path d="M478.539 329.353H561.612L566.678 297.334L508.017 249.477L432.01 278.857C427.862 293.924 424.862 314.286 423.025 329.353H478.539Z" fill="white"/>
<path d="M513.444 241.968L572.498 290.153L632.979 267.118C634.57 257.707 639.652 223.327 635.045 193.292C630.34 188.095 605.928 161.928 577.925 145.55C569.105 148.239 531.905 159.895 512.214 170.552L513.444 241.985V241.968Z" fill="white"/>
<path d="M665.884 324.14C672.36 321.582 682.262 317.418 687.23 314.385C697.69 268.856 691.214 221.196 669.917 180.356L644.488 193.767C649.079 226.508 643.275 262.265 641.898 269.922L665.9 324.123L665.884 324.14Z" fill="white"/>
<path d="M684.033 326.451C681.885 327.451 679.672 328.435 677.524 329.353H683.049C683.361 328.386 683.738 327.418 684.016 326.451H684.033Z" fill="white"/>
<path d="M401.778 329.354H413.681C415.55 313.877 418.681 292.367 423.141 276.218L383.35 218.983L336.493 234.427C324.214 258.724 325.197 298.646 325.394 304.237C328.263 312.778 332.788 321.402 337.707 329.354H401.762H401.778Z" fill="white"/>
<path d="M326.951 329.353C323.41 323.172 320.164 316.68 317.705 310.106L307.556 311.139C308.868 317.287 310.507 323.353 312.393 329.353H326.935H326.951Z" fill="white"/>
<path d="M180.988 542.733H818.717C818.717 558.177 831.227 570.687 846.671 570.687V629.61C831.227 629.61 818.717 642.119 818.717 657.563H180.988C180.988 642.119 168.478 629.61 153.034 629.61V570.687C168.478 570.687 180.988 558.177 180.988 542.733Z" fill="#D4273D"/>
<path d="M243.157 595.148H257.42V605.198H243.157V634.217H232.106V563.916H261.322V573.966H243.14V595.148H243.157Z" fill="white"/>
<path d="M292.276 563.916V618.15C292.276 623.167 294.489 624.987 297.998 624.987C301.506 624.987 303.719 623.183 303.719 618.15V563.916H314.163V617.445C314.163 628.692 308.54 635.119 297.702 635.119C286.865 635.119 281.226 628.692 281.226 617.445V563.916H292.276Z" fill="white"/>
<path d="M333.542 563.916H367.693V573.966H356.151V634.217H345.1V573.966H333.558V563.916H333.542Z" fill="white"/>
<path d="M420.599 580.081V582.589C420.599 589.82 418.386 594.443 413.467 596.738C419.386 599.05 421.697 604.378 421.697 611.805V617.527C421.697 628.364 415.976 634.201 404.925 634.201H387.547V563.899H404.221C415.664 563.899 420.599 569.228 420.599 580.065V580.081ZM398.613 573.949V592.525H402.925C407.04 592.525 409.549 590.721 409.549 585.098V581.179C409.549 576.163 407.844 573.949 403.925 573.949H398.597H398.613ZM398.613 602.575V624.167H404.942C408.664 624.167 410.664 622.462 410.664 617.232V611.1C410.664 604.575 408.549 602.558 403.532 602.558H398.613V602.575Z" fill="white"/>
<path d="M442.486 580.786C442.486 569.539 448.405 563.112 459.258 563.112C470.112 563.112 476.03 569.539 476.03 580.786V617.347C476.03 628.594 470.112 635.02 459.258 635.02C448.405 635.02 442.486 628.594 442.486 617.347V580.786ZM453.537 618.035C453.537 623.052 455.75 624.97 459.258 624.97C462.767 624.97 464.98 623.069 464.98 618.035V580.081C464.98 575.064 462.767 573.146 459.258 573.146C455.75 573.146 453.537 575.048 453.537 580.081V618.035Z" fill="white"/>
<path d="M498.212 563.916H509.263V624.167H527.445V634.217H498.229V563.916H498.212Z" fill="white"/>
<path d="M609.977 608.002V617.347C609.977 628.594 604.353 635.02 593.5 635.02C582.646 635.02 577.023 628.594 577.023 617.347V580.786C577.023 569.539 582.646 563.112 593.5 563.112C604.353 563.112 609.977 569.539 609.977 580.786V587.606H599.533V580.081C599.533 575.064 597.32 573.146 593.811 573.146C590.303 573.146 588.09 575.048 588.09 580.081V618.035C588.09 623.052 590.303 624.872 593.811 624.872C597.32 624.872 599.533 623.069 599.533 618.035V607.985H609.977V608.002Z" fill="white"/>
<path d="M631.766 563.916H642.816V624.167H660.998V634.217H631.782V563.916H631.766Z" fill="white"/>
<path d="M691.41 563.916V618.15C691.41 623.167 693.623 624.987 697.132 624.987C700.64 624.987 702.854 623.183 702.854 618.15V563.916H713.297V617.445C713.297 628.692 707.674 635.119 696.837 635.119C686 635.119 680.36 628.692 680.36 617.445V563.916H691.41Z" fill="white"/>
<path d="M768.926 580.081V582.589C768.926 589.82 766.712 594.443 761.794 596.738C767.712 599.05 770.024 604.378 770.024 611.805V617.527C770.024 628.364 764.302 634.201 753.252 634.201H735.874V563.899H752.547C763.991 563.899 768.926 569.228 768.926 580.065V580.081ZM746.94 573.949V592.525H751.252C755.367 592.525 757.875 590.721 757.875 585.098V581.179C757.875 576.163 756.17 573.949 752.252 573.949H746.924H746.94ZM746.94 602.575V624.167H753.269C756.99 624.167 758.99 622.462 758.99 617.232V611.1C758.99 604.575 756.875 602.558 751.859 602.558H746.94V602.575Z" fill="white"/>
<path d="M755.564 333.305C760.564 331.108 765.958 329.878 771.598 329.517V222.655L752.449 218.507V334.879C753.465 334.337 754.482 333.78 755.564 333.305Z" fill="#D4273D"/>
<path d="M748.793 657.58C742.169 693.37 726.742 726.832 704.199 754.933L668.769 657.58H619.617L668.032 790.592C659.801 797.002 651.079 802.888 641.865 808.118L624.421 817.692L566.137 657.563H516.985L583.45 840.17L538.872 864.648L463.505 657.563H414.353L496.918 884.403L429.469 846.039L360.873 657.563H311.721L367.496 810.807L360.561 806.855C303.244 775.361 263.749 720.323 251.387 657.563H231.91C244.518 727.356 287.882 788.755 351.347 823.627L499.852 907.996L651.325 824.759C713.905 789.198 756.482 727.291 768.286 657.563H748.809L748.793 657.58Z" fill="#D4273D"/>
<path d="M247.239 329.353V218.507L228.09 222.639V329.353H247.239Z" fill="#D4273D"/>
<path d="M177.626 342.83H254.076V503.123C254.076 507.32 253.256 511.304 251.617 515.042C249.977 518.78 247.731 522.076 244.911 524.912C242.075 527.748 238.796 529.978 235.041 531.618C231.303 533.257 227.319 534.077 223.122 534.077H208.596C204.399 534.077 200.415 533.257 196.677 531.618C192.939 529.978 189.644 527.732 186.808 524.912C183.971 522.076 181.742 518.797 180.102 515.042C178.463 511.304 177.643 507.32 177.643 503.123V415.443H208.334V503.123C208.334 503.304 208.433 503.402 208.613 503.402H223.139L223.417 503.123V373.521H208.351V389.129H177.659V342.83H177.626ZM265.028 388.523H295.719V534.077H265.028V388.523ZM265.028 342.092H295.719V378.473H265.028V342.092ZM306.671 342.83H383.12V503.123C383.12 507.32 382.301 511.304 380.661 515.042C379.022 518.78 376.776 522.076 373.956 524.912C371.119 527.748 367.84 529.978 364.086 531.618C360.348 533.257 356.364 534.077 352.167 534.077H337.641C333.444 534.077 329.46 533.257 325.722 531.618C321.984 529.978 318.688 527.732 315.852 524.912C313.016 522.076 310.786 518.797 309.147 515.042C307.507 511.304 306.687 507.32 306.687 503.123V415.443H337.379V503.123C337.379 503.304 337.477 503.402 337.657 503.402H352.183L352.462 503.123V373.521H337.395V389.129H306.704V342.83H306.671ZM472.44 466.612V494.942H441.749V466.612H424.764V494.942H394.072V466.612L404.713 342.83H461.783L472.424 466.612H472.44ZM439.421 442.2L433.125 368.537L427.092 442.2H439.421ZM529.429 342.83H560.12V534.077H529.429V510.78L514.362 458.168V534.06H483.671V342.814H514.362V368.291L529.429 421.181V342.814V342.83ZM571.072 342.83H647.243V373.521H624.503V534.077H593.812V373.521H571.072V342.83ZM803.273 345.289C807.011 346.929 810.257 349.175 812.995 352.011C815.733 354.848 817.93 358.127 819.57 361.881C821.209 365.619 822.029 369.603 822.029 373.8V415.443H791.338V373.8L791.059 373.521H776.812C776.631 373.521 776.533 373.62 776.533 373.8V423.116H822.013V503.123C822.013 507.32 821.193 511.304 819.553 515.042C817.914 518.78 815.717 522.076 812.979 524.912C810.241 527.748 806.995 529.978 803.257 531.618C799.519 533.257 795.453 534.077 791.059 534.077H776.812C772.434 534.077 768.352 533.257 764.614 531.618C760.876 529.978 757.63 527.732 754.892 524.912C752.154 522.076 749.957 518.797 748.317 515.042C746.678 511.304 745.858 507.32 745.858 503.123V461.48H776.549V503.123C776.549 503.304 776.631 503.402 776.828 503.402H791.075C791.256 503.402 791.354 503.32 791.354 503.123V453.807H745.875V373.8C745.875 369.603 746.694 365.635 748.334 361.881C749.973 358.143 752.17 354.848 754.908 352.011C757.646 349.175 760.892 346.945 764.63 345.289C768.368 343.65 772.434 342.83 776.828 342.83H791.075C795.453 342.83 799.519 343.65 803.273 345.289ZM472.424 508.681H394.056V534.077H472.424V508.681ZM733.398 466.595V494.926H702.707V466.595H685.722V494.926H655.03V466.595L665.671 342.814H722.741L733.382 466.595H733.398ZM700.379 442.183L694.083 368.521L688.05 442.183H700.379ZM733.398 508.665H655.03V534.06H733.398V508.665Z" fill="white"/>
</g>
<defs>
<clipPath id="clip0_1_1810">
<rect width="723.688" height="906" fill="white" transform="translate(138 47)"/>
</clipPath>
</defs>
</svg>
