<svg width="1000" height="1000" viewBox="0 0 1000 1000" fill="none" xmlns="http://www.w3.org/2000/svg">
<g clip-path="url(#clip0_1_1567)">
<path d="M936.4 499.8C936.4 741 740.9 936.6 499.6 936.6C258.3 936.6 63 741 63 499.8C63 258.6 258.5 63 499.7 63C740.9 63 936.4 258.6 936.4 499.8Z" fill="#111820"/>
<path d="M555.9 399.6L476.1 475.3C470.7 480.4 474.5 489.2 482.2 489.2H563.2C565.8 489.2 568.3 488.2 570.1 486.4L661.7 399.6H555.9Z" fill="#F18FA3"/>
<path d="M370.2 499.8L279 586.2C273.6 591.3 277.4 600.1 285.1 600.1H370.1L474 501.8C474.7 501.1 474.2 500 473.3 500H370.2V499.8Z" fill="#F18FA3"/>
<path d="M370.2 399.6L279.1 486C273.7 491.1 277.5 499.9 285.2 499.9H370.2L476 399.6H370.2Z" fill="#F18FA3"/>
<path d="M555.9 600L476.1 524.3C470.7 519.2 474.5 510.4 482.2 510.4H563.2C565.8 510.4 568.3 511.4 570.1 513.2L661.7 600H555.9Z" fill="#F18FA3"/>
<path d="M696.9 399.6H695.6C695.6 414.7 683.3 426.9 668.3 426.9V428.2C683.4 428.2 695.6 440.5 695.6 455.5H696.9C696.9 440.4 709.2 428.2 724.2 428.2V426.8C709.2 426.8 696.9 414.6 696.9 399.6Z" fill="#F18FA3"/>
<path d="M794.1 205.4C715.4 126.9 610.9 83.6 499.7 83.6C388.5 83.6 284 126.9 205.4 205.5C126.8 284.1 83.5 388.7 83.5 499.8C83.5 610.9 126.8 715.5 205.4 794.1C284 872.7 388.6 916 499.7 916C610.8 916 715.4 872.8 794 794.1C872.6 715.4 915.9 611 915.9 499.8C915.9 388.6 872.7 284 794.1 205.4ZM209.1 209.2C286.7 131.7 389.9 88.8 499.7 88.8C609.5 88.8 712.7 131.6 790.3 209.2C867.3 286.2 910 388.4 910.6 497.2H813.1C812.4 414.5 779.9 336.8 721.3 278.2C662.1 219 583.4 186.4 499.6 186.4C415.8 186.4 337.1 219 277.9 278.2C219.3 336.8 186.8 414.5 186.1 497.2H88.8C89.5 388.3 132.1 286.3 209.1 209.2ZM808 499.8C808 582.1 775.9 659.5 717.7 717.7C659.5 775.9 582.1 808 499.7 808C417.3 808 340 776 281.8 717.8C223.6 659.6 191.5 582.2 191.5 499.9C191.5 417.6 223.6 340.2 281.8 282C340 223.8 417.4 191.7 499.7 191.7C582 191.7 659.4 223.8 717.6 282C775.9 340 808 417.4 808 499.8ZM790.3 790.5C712.7 868 609.4 910.8 499.7 910.8C390 910.8 286.7 868 209.1 790.4C132.1 713.4 89.4 611.2 88.8 502.4H186.3C187 585.1 219.5 662.8 278.1 721.4C337.3 780.6 416 813.2 499.8 813.2C583.6 813.2 662.3 780.6 721.5 721.4C780.1 662.8 812.6 585.1 813.3 502.4H910.8C910 611.3 867.4 713.3 790.3 790.5Z" fill="#F18FA3"/>
<path d="M278 764.2L284.1 768.5L272.4 785L288.1 796.1L312.9 788.8L319.7 793.6L291.5 802.8L292.1 832.8L285.3 828L284.1 801.8L268.4 790.7L256.4 807.6L250.3 803.3L278 764.2Z" fill="#F18FA3"/>
<path d="M327.3 849.8C326.1 848.3 325.4 846.7 325.1 844.8C324.8 843 325 841.2 325.6 839.5L340 804.5L346.9 807.3L333 841.3C332.5 842.4 332.5 843.5 333 844.6C333.5 845.6 334.3 846.4 335.5 846.9L359.8 856.9C361 857.4 362.1 857.4 363.1 857C364.1 856.6 364.9 855.8 365.4 854.7L379.4 820.6L386.4 823.5L371.8 858.8C371.1 860.5 370 861.9 368.5 862.9C367 863.9 365.3 864.5 363.5 864.7C361.6 864.9 359.9 864.6 358.2 863.9L331.8 853.1C330 852.4 328.5 851.3 327.3 849.8Z" fill="#F18FA3"/>
<path d="M409.9 830.5L416.1 831.5L447.7 874.5L453.9 837.9L461.4 839.2L453.4 886.5L447.7 885.5L415.7 842.2L409.5 879L402 877.7L409.9 830.5Z" fill="#F18FA3"/>
<path d="M486.7 881.2L500.3 880.8L499.4 846.5L485.8 846.9L485.6 840.1L520.4 839.2L520.6 846L506.9 846.4L507.8 880.7L521.5 880.3L521.7 887.1L486.9 888L486.7 881.2Z" fill="#F18FA3"/>
<path d="M566.4 839.3L545.9 843.8L544.4 836.9L592 826.5L593.5 833.4L573.7 837.8L582.5 877.8L575.2 879.4L566.4 839.3Z" fill="#F18FA3"/>
<path d="M626.2 813.6L649 803L683 840.2L675.8 843.5L666.5 833.4L637.9 846.6L639.6 860.2L632.4 863.5L626.2 813.6ZM662 827.9L646.8 811.3L633.9 817.3L636.6 839.7L662 827.9Z" fill="#F18FA3"/>
<path d="M714.1 818.6C712.2 818.9 710.4 818.7 708.7 818.1C707 817.5 705.6 816.4 704.5 815L702.5 812.4L708.4 807.8L709.9 809.7C710.6 810.6 711.5 811.2 712.6 811.3C713.7 811.4 714.7 811.1 715.6 810.3L736.8 793.8C737.8 793 738.3 792.2 738.5 791.1C738.6 790.1 738.3 789.1 737.6 788.2L735.2 785.1C734.5 784.2 733.7 783.8 732.7 783.7C731.7 783.7 730.6 783.9 729.4 784.4L705.4 798.7C703.5 799.6 701.7 800.1 699.9 800.4C698.1 800.7 696.4 800.6 694.8 800C693.1 799.4 691.7 798.3 690.3 796.6L687.3 792.9C686.2 791.5 685.5 789.9 685.3 788.1C685.1 786.3 685.4 784.6 686.1 782.9C686.8 781.2 687.9 779.8 689.4 778.6L712.2 760.8C713.7 759.6 715.4 758.9 717.2 758.6C719 758.3 720.8 758.5 722.5 759.1C724.2 759.7 725.6 760.8 726.8 762.2L728.7 764.6L722.8 769.2L721.4 767.4C720.6 766.4 719.8 765.9 718.8 765.8C717.8 765.7 716.8 766 715.8 766.8L694.6 783.3C693.6 784.1 693.1 784.9 692.9 786C692.7 787 693 788 693.8 789L695.9 791.8C696.1 792.1 696.4 792.3 696.6 792.5C696.9 792.7 697.1 792.8 697.4 793C698.1 793.3 698.8 793.4 699.5 793.3C700.2 793.2 701 793 701.8 792.7L726 778.3C728 777.3 729.9 776.7 731.7 776.4C733.5 776.1 735.1 776.3 736.6 776.8C738.1 777.4 739.4 778.4 740.5 779.8L744.1 784.3C745.3 785.8 746 787.4 746.1 789.2C746.3 790.9 746 792.6 745.3 794.2C744.6 795.8 743.5 797.2 742 798.3L719.2 816.4C717.7 817.6 716 818.3 714.1 818.6Z" fill="#F18FA3"/>
<path d="M256.1 197L262.2 193.2L272.9 210.4L288.7 200.5L291.1 175.1L297.9 170.8L295.9 200.1L323.3 211.5L316.5 215.8L292.3 206.5L276.5 216.4L287.5 234L281.4 237.8L256.1 197Z" fill="#F18FA3"/>
<path d="M350.2 197.6C348.4 197.3 346.8 196.6 345.3 195.4C343.8 194.3 342.8 192.8 342.2 191.1L329.1 155.6L335.9 153.1L348.7 187.6C349.1 188.8 349.9 189.6 350.9 190C351.9 190.4 353 190.5 354.2 190L378.1 181.2C379.3 180.8 380.1 180.1 380.5 179C381 178 381 176.9 380.6 175.8L367.8 141.2L374.7 138.7L387.8 174.3C388.5 176.1 388.6 177.8 388.2 179.6C387.8 181.4 387 182.9 385.8 184.3C384.6 185.7 383.2 186.7 381.5 187.3L355.6 196.9C353.8 197.8 352 197.9 350.2 197.6Z" fill="#F18FA3"/>
<path d="M409.3 130L415.3 129.1L457.5 160.3L452 123.6L459.2 122.5L466.3 170L460.7 170.8L418 139.4L423.5 176.3L416.3 177.4L409.3 130Z" fill="#F18FA3"/>
<path d="M492.1 162.4L505.3 162.8L506.4 128.5L493.2 128.1L493.4 121.3L527.1 122.4L526.9 129.2L513.6 128.8L512.5 163.1L525.8 163.5L525.6 170.3L491.9 169.2L492.1 162.4Z" fill="#F18FA3"/>
<path d="M579 136.9L559.1 132.7L560.6 125.8L606.8 135.6L605.3 142.5L586.1 138.4L577.6 178.5L570.5 177L579 136.9Z" fill="#F18FA3"/>
<path d="M651.4 151L673.7 160.7L668.1 210.7L661 207.6L662.5 194L634.5 181.8L625.6 192.2L618.6 189.2L651.4 151ZM663.8 187L666.2 164.7L653.6 159.2L638.9 176.2L663.8 187Z" fill="#F18FA3"/>
<path d="M693.4 224.2C692.6 222.5 692.3 220.8 692.5 219C692.6 217.2 693.2 215.5 694.3 214.1L696.2 211.4L702.1 215.6L700.7 217.6C700 218.6 699.8 219.6 700 220.6C700.2 221.6 700.8 222.5 701.7 223.2L723 238.2C724 238.9 725 239.1 726 239C727 238.8 727.8 238.2 728.5 237.3L730.8 234.1C731.4 233.2 731.7 232.3 731.4 231.3C731.2 230.4 730.7 229.4 729.8 228.4L709.8 210.1C708.5 208.6 707.5 207 706.7 205.5C705.9 203.9 705.6 202.3 705.7 200.5C705.8 198.8 706.4 197 707.7 195.3L710.4 191.3C711.4 189.8 712.7 188.7 714.4 188C716 187.3 717.7 187 719.5 187.2C721.3 187.4 722.9 188 724.4 189L747.3 205.2C748.8 206.3 750 207.6 750.7 209.3C751.5 210.9 751.8 212.7 751.7 214.5C751.6 216.3 751 217.9 749.9 219.4L748.1 221.9L742.2 217.7L743.5 215.9C744.2 214.9 744.5 213.9 744.3 212.9C744.1 211.9 743.5 211.1 742.6 210.4L721.3 195.4C720.3 194.7 719.3 194.4 718.3 194.6C717.3 194.8 716.4 195.3 715.7 196.3L713.6 199.1C713.4 199.4 713.2 199.7 713.1 200C713 200.3 712.9 200.6 712.9 200.9C712.8 201.6 712.9 202.3 713.2 203C713.5 203.7 713.9 204.3 714.4 205L734.5 223.5C735.9 225.1 737 226.7 737.8 228.3C738.5 229.9 738.8 231.4 738.7 233C738.6 234.6 738 236.1 736.9 237.6L733.7 242.3C732.6 243.9 731.2 245 729.7 245.7C728.1 246.4 726.5 246.6 724.7 246.4C723 246.2 721.4 245.6 719.9 244.6L696.9 228.3C695.3 227.3 694.1 225.9 693.4 224.2Z" fill="#F18FA3"/>
</g>
<defs>
<clipPath id="clip0_1_1567">
<rect width="873.4" height="873.6" fill="white" transform="translate(63 63)"/>
</clipPath>
</defs>
</svg>
