<svg width="1000" height="1000" viewBox="0 0 1000 1000" fill="none" xmlns="http://www.w3.org/2000/svg">
<g clip-path="url(#clip0_1_1588)">
<path d="M499.965 933.93C739.637 933.93 933.93 739.637 933.93 499.965C933.93 260.293 739.637 66 499.965 66C260.293 66 66 260.293 66 499.965C66 739.637 260.293 933.93 499.965 933.93Z" fill="black"/>
<path d="M499.965 916.17C729.829 916.17 916.17 729.829 916.17 499.965C916.17 270.101 729.829 83.76 499.965 83.76C270.102 83.76 83.7603 270.101 83.7603 499.965C83.7603 729.829 270.102 916.17 499.965 916.17Z" fill="#D40F4D"/>
<path d="M499.965 788.378C659.251 788.378 788.378 659.251 788.378 499.965C788.378 340.679 659.251 211.552 499.965 211.552C340.679 211.552 211.552 340.679 211.552 499.965C211.552 659.251 340.679 788.378 499.965 788.378Z" fill="black"/>
<path d="M499.965 757.87C642.402 757.87 757.87 642.402 757.87 499.965C757.87 357.528 642.402 242.06 499.965 242.06C357.528 242.06 242.06 357.528 242.06 499.965C242.06 642.402 357.528 757.87 499.965 757.87Z" fill="black"/>
<path d="M845.564 450.764C827.717 325.533 740.403 216.401 621.616 172.647C461.234 111.512 275.258 181.543 193.998 332.53C176.271 364.383 164.087 399.502 157.013 435.272L154.366 450.764L154.312 451.046C153.737 454.41 150.547 456.666 147.195 456.091C143.918 455.527 141.694 452.478 142.117 449.213L144.233 433.069C150.189 395.477 162.058 358.688 179.536 324.849C315.411 65.7288 684.574 65.7939 820.394 324.849C837.872 358.688 849.763 395.488 855.697 433.069L857.813 449.213C858.529 457.35 846.887 458.89 845.564 450.764Z" fill="white"/>
<path d="M659.653 475.446C659.653 475.446 637.076 379.8 678.401 360.673C719.714 341.546 764.098 348.045 793.174 334.657C822.249 321.269 839.825 304.735 839.825 304.735L837.937 354.934L859.744 360.673C859.744 360.673 831.818 380.18 811.541 423.414C791.264 466.647 755.69 491.514 711.306 495.343C666.922 499.173 659.653 475.446 659.653 475.446Z" fill="#ED78A6"/>
<path d="M701.965 501.538C662.094 501.538 654.457 478.202 654.131 477.138C654.099 477.019 654.066 476.9 654.033 476.77C653.068 472.679 630.892 376.296 675.981 355.422C699.318 344.616 723.587 341.698 744.993 339.127C762.145 337.065 778.354 335.113 790.765 329.406C818.539 316.615 835.702 300.677 835.876 300.515C837.579 298.909 840.096 298.497 842.222 299.473C844.36 300.45 845.694 302.609 845.607 304.952L843.893 350.518L861.219 355.075C863.4 355.65 865.049 357.429 865.44 359.653C865.83 361.867 864.908 364.112 863.064 365.403C862.803 365.588 836.082 384.715 816.781 425.866C795.918 470.336 758.641 497.057 711.805 501.093C708.333 501.397 705.057 501.538 701.976 501.538H701.965ZM665.208 473.819C665.968 475.782 673.638 492.783 710.807 489.582C753.357 485.915 787.272 461.548 806.301 420.962C820.068 391.604 837.178 372.889 847.441 363.418L836.462 360.532C833.847 359.838 832.057 357.429 832.154 354.728L833.565 317.342C825.309 323.547 812.322 332.216 795.593 339.919C781.532 346.396 764.445 348.446 746.37 350.627C724.813 353.22 702.507 355.899 680.831 365.935C650.605 379.93 659.252 448.269 665.208 473.84V473.819Z" fill="black"/>
<path d="M339.203 474.524C339.203 474.524 361.78 378.878 320.455 359.751C279.142 340.624 234.758 347.123 205.683 333.735C176.607 320.347 154.833 305.223 154.833 305.223L160.919 354.012L139.112 359.751C139.112 359.751 167.038 379.258 187.315 422.491C207.592 465.725 243.166 490.591 287.55 494.421C331.934 498.251 339.203 474.524 339.203 474.524Z" fill="#ED78A6"/>
<path d="M296.902 500.616C293.821 500.616 290.544 500.475 287.073 500.171C240.237 496.135 202.959 469.414 182.097 424.943C162.698 383.586 136.085 364.676 135.814 364.481C133.97 363.19 133.037 360.944 133.438 358.731C133.829 356.518 135.478 354.728 137.659 354.153L154.572 349.705L149.104 305.928C148.822 303.661 149.896 301.448 151.849 300.265C153.802 299.083 156.265 299.159 158.142 300.46C158.359 300.612 179.883 315.476 208.113 328.473C220.524 334.19 236.733 336.132 253.885 338.194C275.291 340.765 299.56 343.683 322.896 354.489C367.975 375.363 345.81 471.746 344.844 475.837C344.812 475.956 344.779 476.086 344.747 476.205C344.421 477.269 336.773 500.605 296.913 500.605L296.902 500.616ZM151.426 362.496C161.689 371.978 178.798 390.682 192.566 420.039C211.595 460.626 245.521 484.993 288.06 488.66C325.294 491.861 333.073 474.394 333.648 472.929C339.615 447.379 348.273 378.997 318.036 365.002C296.36 354.966 274.065 352.287 252.497 349.694C234.411 347.524 217.335 345.463 203.274 338.986C185.991 331.022 171.356 322.549 162.112 316.821L166.669 353.296C167.027 356.171 165.204 358.861 162.405 359.599L151.426 362.485V362.496Z" fill="black"/>
<path d="M696.28 439.579C644.714 335.481 514.297 323.688 502.309 322.82V322.766C502.309 322.766 502.157 322.766 501.864 322.799C501.571 322.777 501.419 322.766 501.419 322.766V322.82C489.431 323.688 359.014 335.471 307.448 439.579C246.693 562.228 292.78 645.788 318.796 670.275C344.812 694.761 375.797 711.979 427.83 723.707C475.728 734.512 498.544 719.812 501.864 717.403C505.184 719.801 527.989 734.501 575.898 723.707C627.931 711.979 658.916 694.761 684.932 670.275C710.948 645.788 757.035 562.239 696.28 439.579Z" fill="#ED78A6"/>
<path d="M543.21 733.655C521.598 733.655 508.178 728.046 501.875 724.52C492.751 729.619 468.687 739.101 426.517 729.587C377.218 718.466 343.77 702.041 314.673 674.658C300.048 660.89 281.854 632.162 274.661 592.812C265.743 544.045 274.965 491.579 302.055 436.888C353.979 332.053 482.021 318.286 500.204 316.853C500.714 316.745 501.235 316.702 501.755 316.723H501.885H502.016C502.547 316.702 503.101 316.745 503.621 316.853C521.989 318.307 649.835 332.14 701.716 436.888C728.806 491.579 738.028 544.045 729.11 592.812C721.917 632.162 703.723 660.89 689.098 674.658C660.001 702.041 626.553 718.466 577.254 729.587C564.214 732.527 552.909 733.655 543.232 733.655H543.21ZM501.875 711.371C503.111 711.371 504.359 711.751 505.411 712.521C507.668 714.148 528.759 728.155 574.575 717.826C621.616 707.216 653.394 691.68 680.798 665.881C694.034 653.426 710.547 627.128 717.208 590.653C725.649 544.501 716.785 494.573 690.877 442.259C669.982 400.066 633.42 368.387 582.234 348.099C542.743 332.455 508.373 329.308 501.875 328.842C501.875 328.842 501.864 328.842 501.853 328.842C495.365 329.308 460.984 332.455 421.493 348.099C370.307 368.387 333.746 400.066 312.85 442.259C286.943 494.573 278.079 544.501 286.52 590.653C293.181 627.117 309.704 653.426 322.929 665.881C350.334 691.68 382.111 707.216 429.153 717.826C474.98 728.166 496.07 714.159 498.316 712.521C499.369 711.762 500.616 711.371 501.853 711.371H501.875Z" fill="black"/>
<path d="M497.459 791.546C539.012 791.546 572.698 760.488 572.698 722.177C572.698 683.865 539.012 652.807 497.459 652.807C455.906 652.807 422.22 683.865 422.22 722.177C422.22 760.488 455.906 791.546 497.459 791.546Z" fill="#ED78A6"/>
<path d="M497.459 796.472C453.26 796.472 417.306 763.143 417.306 722.177C417.306 681.211 453.26 647.882 497.459 647.882C541.658 647.882 577.612 681.211 577.612 722.177C577.612 763.143 541.658 796.472 497.459 796.472ZM497.459 657.722C458.684 657.722 427.146 686.635 427.146 722.177C427.146 757.719 458.695 786.631 497.459 786.631C536.223 786.631 567.772 757.719 567.772 722.177C567.772 686.635 536.234 657.722 497.459 657.722Z" fill="black"/>
<path d="M495.625 764.282C522.085 764.282 543.535 744.503 543.535 720.105C543.535 695.706 522.085 675.927 495.625 675.927C469.165 675.927 447.715 695.706 447.715 720.105C447.715 744.503 469.165 764.282 495.625 764.282Z" fill="black"/>
<path d="M577.959 609.444C546.736 580.932 501.18 583.069 501.18 583.069C501.18 583.069 455.625 580.932 424.401 609.444C380.408 649.618 367.139 702.54 386.527 730.086C405.914 757.632 441.38 747.661 465.085 737.225C485.037 728.437 517.996 727.439 537.286 737.225C560.384 748.942 596.457 757.632 615.844 730.086C635.232 702.54 621.963 649.618 577.97 609.444H577.959Z" fill="#ED78A6"/>
<path d="M578.773 754.16C578.469 754.16 578.176 754.16 577.872 754.16C560.004 753.921 543.134 746.674 534.66 742.389C517.801 733.84 487 733.905 467.407 742.519C417.425 764.51 393.264 749.712 381.796 733.416C359.48 701.704 376.48 645.376 420.495 605.18C452.196 576.234 496.884 577.135 501.169 577.287C505.476 577.135 550.142 576.234 581.843 605.18C625.858 645.376 642.859 701.704 620.553 733.416C610.995 747.01 596.555 754.171 578.762 754.171L578.773 754.16ZM502.178 724.477C516.217 724.477 529.919 727.005 539.89 732.06C551.552 737.973 591.163 755.071 611.103 726.744C627.42 703.549 617.906 653.73 574.054 613.696C545.032 587.203 501.864 588.808 501.43 588.819C501.256 588.819 501.072 588.819 500.898 588.819C500.475 588.798 457.295 587.203 428.285 613.696C384.443 653.73 374.918 703.538 391.235 726.744C404.297 745.307 428.361 747.054 462.731 731.919C474.025 726.95 488.259 724.466 502.167 724.466L502.178 724.477Z" fill="black"/>
<path d="M433.817 690.302C444.168 699.057 458.499 671.989 463.804 661.91C469.11 651.82 479.199 643.597 479.199 643.597C479.199 643.597 456.644 643.065 445.491 653.686C434.349 664.297 423.467 681.558 433.817 690.313V690.302Z" fill="black"/>
<path d="M438.222 695.651C435.792 695.651 433.492 694.783 431.474 693.079C428.057 690.183 426.169 686.255 426.039 681.71C425.735 671.316 434.599 659.067 442.996 651.072C455.093 639.55 478.31 639.973 479.286 639.995C480.805 640.027 482.14 641.004 482.628 642.436C483.116 643.868 482.66 645.463 481.489 646.417C481.391 646.493 471.898 654.326 467.005 663.613C459.281 678.292 450.059 693.557 440.262 695.466C439.579 695.596 438.895 695.662 438.222 695.662V695.651ZM469.566 647.871C462.644 648.793 453.563 651.007 447.997 656.312C440.512 663.44 433.069 673.985 433.286 681.493C433.362 683.999 434.295 685.973 436.161 687.557C437.051 688.317 437.875 688.545 438.884 688.349C444.005 687.351 451.306 677.891 460.604 660.239C463.089 655.52 466.506 651.224 469.566 647.882V647.871Z" fill="black"/>
<path d="M565.201 690.302C554.851 699.057 540.519 671.989 535.214 661.91C529.909 651.82 519.819 643.597 519.819 643.597C519.819 643.597 542.374 643.065 553.527 653.686C564.669 664.297 575.551 681.558 565.201 690.313V690.302Z" fill="black"/>
<path d="M560.796 695.651C560.123 695.651 559.44 695.586 558.756 695.455C548.96 693.546 539.738 678.281 532.013 663.602C527.12 654.316 517.627 646.482 517.53 646.406C516.358 645.452 515.902 643.857 516.401 642.425C516.89 640.993 518.224 640.016 519.743 639.984C520.719 639.951 543.936 639.55 556.033 651.061C564.43 659.057 573.294 671.305 572.99 681.699C572.86 686.245 570.972 690.172 567.555 693.069C565.548 694.772 563.248 695.64 560.807 695.64L560.796 695.651ZM529.453 647.871C532.512 651.213 535.93 655.509 538.414 660.228C547.712 677.891 555.013 687.351 560.134 688.338C561.154 688.534 561.968 688.295 562.857 687.546C564.712 685.973 565.656 683.988 565.732 681.493C565.949 673.985 558.507 663.44 551.021 656.312C545.444 651.007 536.364 648.793 529.453 647.871Z" fill="black"/>
<path d="M457.23 572.394C469.078 547.202 503.893 540.53 527.511 552.41C535.529 556.261 542.656 561.838 547.658 568.944C532.664 562.033 517.682 557.303 501.506 557.52C485.384 557.65 470.716 562.771 457.23 572.394Z" fill="black"/>
<path d="M476.856 538.49C485.709 518.495 516.781 519.081 528.021 536.537C510.955 529.149 492.816 527.685 476.856 538.49Z" fill="black"/>
<path d="M337.771 399.046L356.8 473.58L273.012 397.962L335.981 389.662L337.771 399.046Z" fill="#ED78A6"/>
<path d="M291.586 438.505C293.539 415.689 278.871 400.641 259.95 389.868C253.321 386.027 246.269 382.653 239.12 379.485C263.259 383.445 289.536 389.499 304.909 410.861C310.344 418.39 313.848 427.384 315.639 436.389L291.597 438.505H291.586Z" fill="black"/>
<path d="M297.065 449.755C293.625 443.94 285.185 440.848 278.122 439.297C273.826 438.364 269.28 437.832 264.658 437.626C260.037 437.42 255.317 437.539 250.576 437.995C254.71 435.63 259.06 433.514 263.606 431.681C278.979 425.746 296.164 422.144 311.982 430.769L297.065 449.744V449.755Z" fill="black"/>
<path d="M663.136 394.544L644.106 469.078L727.894 393.47L664.937 385.16L663.136 394.544Z" fill="#ED78A6"/>
<path d="M685.29 431.919C693.025 392.244 726.332 380.343 761.798 375.016C748.041 381.167 733.698 388.219 723.012 398.602C712.933 408.192 708.257 420.528 709.331 434.035L685.29 431.919Z" fill="black"/>
<path d="M688.946 426.299C708.68 415.537 732.472 423.62 750.352 433.525C741.152 432.668 731.681 432.928 722.806 434.827C715.754 436.367 707.292 439.47 703.863 445.285L688.946 426.31V426.299Z" fill="black"/>
<path d="M435.63 496.754C436.313 508.46 436.91 520.513 430.52 530.462C423.522 540.486 410.384 546.519 399.252 551.965C414.875 549.632 431.973 547.517 443.799 535.127C453.075 525.417 457.328 511.411 460.398 498.923L435.64 496.754H435.63Z" fill="black"/>
<path d="M436.226 500.03C445.828 521.566 436.639 541.148 421.862 558.019C416.709 563.997 410.991 569.66 405.1 575.149C427.243 563.15 450.764 548.396 458.51 522.423C461.255 513.266 461.624 503.328 460.322 493.965L436.215 500.03H436.226Z" fill="black"/>
<path d="M353.979 451.903C354.446 452.055 451.589 493.369 452.544 493.542C452.858 497.231 449.961 510.988 448.66 514.47C441.857 532.697 415.537 543.785 388.436 534.129C361.335 524.473 358.373 502.395 358.373 483.908C358.373 469.175 353.545 452.739 353.979 451.893V451.903Z" fill="black"/>
<path d="M368.799 467.266C368.973 467.331 387.481 472.907 405.48 479.297C425.594 486.436 445.416 498.696 445.817 498.782C446.067 501.929 444.917 503.621 443.875 506.594C438.45 522.162 421.287 530.191 399.35 525.808C376.665 521.273 370.622 509.198 369.255 492.881C368.213 480.502 368.452 467.982 368.799 467.266Z" fill="white"/>
<path d="M410.926 529.236C407.096 529.236 403.071 528.835 398.905 527.999C372.965 522.813 368.235 507.429 367.03 493.076C366.217 483.366 365.935 468.079 366.781 466.311L367.638 464.532L369.786 465.248C375.721 467.06 391.148 471.855 406.218 477.204C417.609 481.25 430.791 487.575 445.394 495.994C445.925 496.298 446.316 496.526 446.555 496.656L447.9 496.927L448.03 498.609C448.258 501.516 447.498 503.437 446.685 505.466C446.457 506.041 446.207 506.659 445.969 507.342C441.108 521.284 427.916 529.247 410.926 529.247V529.236ZM370.784 470.217C370.654 474.404 370.676 483.355 371.468 492.696C372.759 508.124 378.075 519.287 399.784 523.627C420.115 527.685 436.595 520.719 441.77 505.867C442.03 505.118 442.302 504.446 442.551 503.806C443.105 502.406 443.517 501.375 443.604 500.106C443.473 500.03 443.322 499.943 443.17 499.857C428.805 491.568 415.873 485.362 404.731 481.402C391.408 476.672 377.804 472.376 370.795 470.217H370.784Z" fill="black"/>
<path d="M479.156 486.664C479.156 486.664 464.38 514.134 414.713 481.608C366.922 450.309 367.877 440.751 363.212 440.751C349.455 440.751 329.938 445.676 329.938 445.676L375.84 421.537C375.84 421.537 400.533 440.479 421.038 459.726C441.542 478.983 446.175 486.707 456.612 488.671C467.049 490.635 479.156 486.664 479.156 486.664Z" fill="black"/>
<path d="M359.252 481.836L346.179 472.777L359.1 466.083L359.252 481.836Z" fill="black"/>
<path d="M569.92 496.754C569.237 508.46 568.64 520.513 575.03 530.462C582.028 540.486 595.166 546.519 606.298 551.965C590.675 549.632 573.577 547.517 561.751 535.127C552.475 525.417 548.222 511.411 545.152 498.923L569.91 496.754H569.92Z" fill="black"/>
<path d="M569.313 500.03C559.711 521.566 568.9 541.148 583.677 558.019C588.83 563.997 594.548 569.66 600.439 575.149C578.296 563.15 554.775 548.396 547.029 522.423C544.284 513.266 543.915 503.328 545.217 493.965L569.323 500.03H569.313Z" fill="black"/>
<path d="M651.56 451.903C651.093 452.055 553.95 493.369 552.995 493.542C552.681 497.231 555.577 510.988 556.879 514.47C563.682 532.697 590.002 543.785 617.103 534.129C644.204 524.473 647.166 502.395 647.166 483.908C647.166 469.175 651.994 452.739 651.56 451.893V451.903Z" fill="black"/>
<path d="M636.751 467.266C636.577 467.331 618.068 472.907 600.07 479.297C579.956 486.436 560.134 498.696 559.733 498.782C559.483 501.929 560.633 503.621 561.675 506.594C567.099 522.162 584.263 530.191 606.2 525.808C628.885 521.273 634.928 509.198 636.295 492.881C637.337 480.502 637.098 467.982 636.751 467.266Z" fill="white"/>
<path d="M594.613 529.236C577.623 529.236 564.431 521.273 559.57 507.332C559.331 506.648 559.082 506.041 558.854 505.466C558.04 503.437 557.281 501.527 557.509 498.609L557.639 496.927L558.984 496.656C559.223 496.526 559.613 496.298 560.145 495.994C574.748 487.564 587.93 481.25 599.321 477.204C614.391 471.855 629.818 467.06 635.753 465.248L637.912 464.575L638.758 466.311C639.604 468.069 639.333 483.366 638.508 493.076C637.304 507.44 632.574 522.813 606.634 527.999C602.468 528.835 598.442 529.236 594.613 529.236ZM561.935 500.106C562.022 501.386 562.423 502.406 562.988 503.806C563.237 504.435 563.508 505.107 563.769 505.867C568.944 520.719 585.424 527.695 605.755 523.627C627.464 519.287 632.769 508.124 634.071 492.696C634.852 483.344 634.885 474.404 634.755 470.217C627.746 472.376 614.141 476.672 600.818 481.402C589.676 485.362 576.744 491.568 562.38 499.857C562.217 499.954 562.076 500.03 561.946 500.106H561.935Z" fill="black"/>
<path d="M526.394 486.664C526.394 486.664 541.17 514.134 590.837 481.608C638.628 450.309 637.673 440.751 642.338 440.751C656.095 440.751 675.612 445.676 675.612 445.676L629.71 421.537C629.71 421.537 605.017 440.479 584.512 459.726C564.007 478.983 559.375 486.707 548.938 488.671C538.512 490.635 526.394 486.664 526.394 486.664Z" fill="black"/>
<path d="M646.298 481.836L659.361 472.777L646.439 466.083L646.298 481.836Z" fill="black"/>
<path d="M505.422 376.665C601.734 376.665 679.811 332.614 679.811 278.274C679.811 223.934 601.734 179.883 505.422 179.883C409.11 179.883 331.033 223.934 331.033 278.274C331.033 332.614 409.11 376.665 505.422 376.665Z" fill="#B82226"/>
<path d="M638.595 361.118C631.294 361.118 627.29 358.243 625.218 355.824C620.911 350.811 621.746 344.465 621.855 343.748C622.093 342.219 622.972 340.873 624.274 340.049C650.865 323.157 676.024 286.932 670.285 257.867C665.967 236.006 644.215 220.991 607.36 214.427C548.428 203.936 522.162 177.225 510.499 156.655C497.676 134.035 499.205 113.975 499.281 113.129C499.433 111.317 500.496 109.711 502.091 108.865C502.872 108.442 503.74 108.236 504.608 108.236C505.476 108.236 506.398 108.463 507.201 108.908L518.224 115.038C519.797 115.906 520.817 117.512 520.958 119.302C524.397 163.512 569.974 178.69 607.61 183.648C610.441 184.017 614.141 184.266 618.416 184.548C633.094 185.525 655.259 187 674.69 196.2C698.384 207.418 712.402 227.402 716.362 255.599C720.625 285.966 710.405 313.588 686.83 335.471C669.276 351.755 650.67 359.057 649.889 359.36C649.704 359.436 649.52 359.491 649.325 359.545C645.343 360.597 641.73 361.129 638.584 361.129L638.595 361.118Z" fill="#FFCF01"/>
<path d="M504.597 113.595L515.62 119.725C519.905 174.86 583.622 185.894 606.905 188.953C630.187 192.013 701.259 186.501 711.056 256.348C720.864 326.195 647.947 354.37 647.947 354.37C644.193 355.357 641.101 355.769 638.573 355.769C625.391 355.769 627.116 344.562 627.116 344.562C672.455 315.769 718.401 228.769 608.272 209.165C498.142 189.561 504.586 113.584 504.586 113.584M504.586 102.887C502.861 102.887 501.126 103.31 499.563 104.146C496.363 105.849 494.247 109.06 493.933 112.684C493.857 113.595 492.197 135.25 505.834 159.302C513.732 173.233 525.124 185.199 539.705 194.877C557.389 206.616 579.836 214.969 606.405 219.7C625.467 223.095 640.233 228.726 650.29 236.44C658.34 242.613 663.298 250.175 665.023 258.908C670.155 284.914 646.602 319.533 621.388 335.546C618.784 337.196 617.016 339.897 616.549 342.946C616.311 344.508 615.399 352.623 621.139 359.306C623.938 362.572 629.243 366.467 638.573 366.467C642.229 366.467 646.178 365.891 650.67 364.709C651.05 364.611 651.429 364.481 651.809 364.34C652.634 364.025 672.162 356.355 690.454 339.387C715.374 316.257 726.158 287.029 721.645 254.862C717.425 224.777 702.388 203.415 676.968 191.372C656.626 181.738 633.843 180.22 618.763 179.221C614.575 178.939 610.951 178.701 608.293 178.354C588.222 175.717 572.122 171.139 559.049 164.369C538.544 153.759 527.825 138.874 526.274 118.889C525.992 115.309 523.941 112.109 520.806 110.373L509.783 104.243C508.167 103.343 506.377 102.898 504.586 102.898V102.887Z" fill="black"/>
<path d="M370.035 361.118C366.889 361.118 363.276 360.586 359.295 359.534C359.1 359.48 358.915 359.425 358.731 359.35C357.95 359.046 339.343 351.744 321.789 335.46C298.203 313.577 287.994 285.955 292.258 255.588C296.218 227.402 310.235 207.407 333.93 196.19C353.35 186.989 375.525 185.514 390.204 184.538C394.489 184.255 398.178 184.006 401.01 183.637C438.645 178.679 484.223 163.501 487.662 119.291C487.803 117.501 488.823 115.906 490.396 115.027L501.418 108.897C502.221 108.453 503.122 108.225 504.011 108.225C504.901 108.225 505.736 108.431 506.528 108.854C508.134 109.711 509.186 111.317 509.338 113.118C509.414 113.964 510.944 134.024 498.12 156.644C486.468 177.204 460.203 203.925 401.259 214.416C364.405 220.98 342.641 235.995 338.334 257.856C332.595 286.921 357.754 323.146 384.345 340.038C385.647 340.863 386.526 342.219 386.765 343.738C386.873 344.443 387.698 350.79 383.402 355.813C381.329 358.232 377.326 361.107 370.025 361.107L370.035 361.118Z" fill="#FFCF01"/>
<path d="M504.022 113.595C504.022 113.595 510.467 189.572 400.337 209.176C290.208 228.78 336.154 315.779 381.492 344.573C381.492 344.573 383.217 355.78 370.036 355.78C367.497 355.78 364.416 355.368 360.662 354.381C360.662 354.381 287.756 326.195 297.553 256.359C307.36 186.512 378.422 192.023 401.704 188.964C424.987 185.905 488.703 174.871 492.989 119.736L504.012 113.606M504.012 102.909C502.221 102.909 500.431 103.354 498.815 104.254L487.792 110.384C484.657 112.13 482.606 115.32 482.324 118.9C480.773 138.884 470.043 153.759 449.549 164.38C436.476 171.15 420.376 175.717 400.305 178.364C397.647 178.712 394.023 178.95 389.835 179.232C374.755 180.23 351.972 181.749 331.63 191.383C306.21 203.426 291.173 224.788 286.953 254.872C282.44 287.051 293.224 316.278 318.144 339.398C336.436 356.377 355.964 364.036 356.789 364.351C357.158 364.492 357.538 364.622 357.928 364.72C362.42 365.902 366.369 366.477 370.025 366.477C379.355 366.477 384.66 362.583 387.459 359.317C393.199 352.634 392.287 344.508 392.049 342.956C391.582 339.908 389.814 337.206 387.21 335.557C361.997 319.544 338.443 284.924 343.575 258.919C345.3 250.186 350.258 242.624 358.308 236.451C368.365 228.737 383.131 223.106 402.193 219.71C428.762 214.98 451.209 206.626 468.893 194.888C483.474 185.21 494.866 173.244 502.764 159.313C516.39 135.272 514.741 113.606 514.665 112.695C514.362 109.082 512.235 105.871 509.035 104.156C507.462 103.321 505.737 102.898 504.012 102.898V102.909Z" fill="black"/>
<path d="M416.893 346.244C415.733 346.244 414.593 345.864 413.671 345.159C413.14 344.757 400.403 335.047 389.065 318.991C373.768 297.325 368.441 274.433 373.649 252.779C379.193 229.735 398.081 218.224 418.087 206.041C445.459 189.355 476.488 170.455 491.145 117.544C491.416 116.579 491.948 115.711 492.685 115.027C493.26 114.496 496.32 111.881 500.204 111.881C502.688 111.881 508.59 112.998 509.849 123.37C509.892 123.75 509.903 124.13 509.87 124.498C509.729 126.061 506.03 163.056 476.585 192.815C471.172 198.294 462.883 205.39 454.876 212.268C444.797 220.915 434.371 229.854 429.891 235.301C398.005 273.999 418.738 303.129 435.402 326.542C438.331 330.654 441.098 334.538 443.268 338.139C444.266 339.789 444.298 341.85 443.354 343.531C442.411 345.213 440.631 346.255 438.7 346.255H416.915L416.893 346.244Z" fill="#FFCF01"/>
<path d="M500.193 117.23C501.994 117.23 503.882 118.64 504.522 124.01C504.522 124.01 501.191 160.311 472.766 189.051C460.745 201.202 434.252 221.566 425.746 231.894C385.105 281.214 424.954 318.231 438.678 340.895H416.893C416.893 340.895 367.009 303.216 378.845 254.037C390.747 204.576 469.935 214.08 496.298 118.976C496.298 118.976 498.197 117.23 500.204 117.23M500.204 106.532C494.486 106.532 490.244 110.015 489.072 111.089C487.597 112.445 486.534 114.181 485.991 116.112C471.887 166.984 441.825 185.308 415.298 201.473C394.327 214.253 374.506 226.328 368.452 251.531C362.875 274.726 368.495 299.115 384.704 322.072C396.519 338.812 409.896 348.999 410.46 349.423C412.315 350.822 414.582 351.582 416.904 351.582H438.689C442.551 351.582 446.11 349.498 448.009 346.135C449.907 342.772 449.842 338.649 447.835 335.34C445.557 331.576 442.736 327.616 439.752 323.417C423.338 300.352 404.731 274.216 434.013 238.675C438.212 233.586 448.909 224.397 458.359 216.304C466.821 209.046 474.817 202.189 480.382 196.558C511.161 165.454 515.045 126.614 515.186 124.976C515.251 124.227 515.241 123.468 515.154 122.719C513.288 107.313 502.374 106.532 500.204 106.532Z" fill="black"/>
<path d="M569.519 346.244C567.588 346.244 565.808 345.202 564.864 343.521C563.921 341.839 563.953 339.778 564.951 338.129C567.132 334.527 569.898 330.643 572.817 326.531C589.481 303.118 610.214 273.989 578.328 235.29C573.837 229.843 563.411 220.904 553.332 212.257C545.325 205.39 537.047 198.283 531.623 192.815C502.178 163.056 498.479 126.061 498.338 124.498C498.305 124.119 498.305 123.739 498.359 123.37C499.618 112.998 505.52 111.881 508.004 111.881C511.888 111.881 514.948 114.506 515.523 115.027C516.26 115.7 516.792 116.579 517.063 117.544C531.731 170.455 562.749 189.355 590.121 206.041C610.127 218.224 629.015 229.746 634.559 252.779C639.767 274.433 634.44 297.325 619.143 318.991C607.805 335.058 595.068 344.757 594.537 345.159C593.604 345.864 592.476 346.244 591.315 346.244H569.53H569.519Z" fill="#FFCF01"/>
<path d="M508.004 117.23C510 117.23 511.91 118.976 511.91 118.976C538.273 214.08 617.461 204.576 629.362 254.037C641.199 303.227 591.314 340.895 591.314 340.895H569.529C583.254 318.231 623.102 281.214 582.462 231.894C573.956 221.566 547.451 201.202 535.431 189.051C506.995 160.311 503.675 124.01 503.675 124.01C504.326 118.64 506.203 117.23 508.004 117.23ZM508.004 106.532C505.834 106.532 494.92 107.313 493.054 122.719C492.967 123.468 492.956 124.227 493.021 124.976C493.173 126.614 497.046 165.454 527.825 196.558C533.391 202.189 541.387 209.046 549.849 216.304C559.299 224.408 569.996 233.586 574.195 238.675C603.476 274.206 584.87 300.352 568.455 323.406C565.472 327.605 562.651 331.565 560.362 335.33C558.366 338.628 558.301 342.75 560.188 346.124C562.087 349.488 565.645 351.571 569.508 351.571H591.293C593.614 351.571 595.882 350.811 597.737 349.412C598.301 348.989 611.678 338.79 623.493 322.061C639.701 299.104 645.321 274.705 639.745 251.52C633.68 226.318 613.87 214.242 592.898 201.462C566.372 185.297 536.309 166.973 522.205 116.101C521.674 114.17 520.6 112.434 519.124 111.078C517.963 110.004 513.711 106.521 507.993 106.521L508.004 106.532Z" fill="black"/>
<mask id="mask0_1_1588" style="mask-type:luminance" maskUnits="userSpaceOnUse" x="489" y="132" width="31" height="196">
<path d="M518.256 234.031L509.36 132.863H499.607L490.743 233.706C489.202 248.916 488.79 251.824 489.593 268.466L492.305 325.175C498.402 321.844 505.498 321.453 511.703 324.112C513.526 324.893 515.175 326.01 516.748 327.279L519.45 268.097C520.198 251.704 519.775 249.025 518.256 234.02V234.031Z" fill="white"/>
</mask>
<g mask="url(#mask0_1_1588)">
<path d="M520.198 327.236H488.79V327.29H520.198V327.236Z" fill="#EEB645"/>
<path d="M520.198 326.01H488.79V327.247H520.198V326.01Z" fill="#EFB745"/>
<path d="M520.198 324.773H488.79V326.01H520.198V324.773Z" fill="#F0B846"/>
<path d="M520.198 323.537H488.79V324.773H520.198V323.537Z" fill="#F1B943"/>
<path d="M520.198 322.3H488.79V323.537H520.198V322.3Z" fill="#F3BA43"/>
<path d="M520.198 321.063H488.79V322.3H520.198V321.063Z" fill="#F3BA43"/>
<path d="M520.198 319.826H488.79V321.063H520.198V319.826Z" fill="#F4BB43"/>
<path d="M520.198 318.589H488.79V319.826H520.198V318.589Z" fill="#F5BC42"/>
<path d="M520.198 317.353H488.79V318.589H520.198V317.353Z" fill="#F6BD43"/>
<path d="M520.198 316.116H488.79V317.353H520.198V316.116Z" fill="#F7BE42"/>
<path d="M520.198 308.456H488.79V316.116H520.198V308.456Z" fill="#F7BE42"/>
<path d="M520.198 300.797H488.79V308.456H520.198V300.797Z" fill="#F6BD43"/>
<path d="M520.198 293.137H488.79V300.797H520.198V293.137Z" fill="#F5BC42"/>
<path d="M520.198 285.489H488.79V293.148H520.198V285.489Z" fill="#F4BB43"/>
<path d="M520.198 277.829H488.79V285.489H520.198V277.829Z" fill="#F3BA43"/>
<path d="M520.198 270.17H488.79V277.829H520.198V270.17Z" fill="#F1B943"/>
<path d="M520.198 266.535H488.79V270.159H520.198V266.535Z" fill="#F1B943"/>
<path d="M520.198 262.912H488.79V266.535H520.198V262.912Z" fill="#F3BA43"/>
<path d="M520.198 259.288H488.79V262.912H520.198V259.288Z" fill="#F4BB43"/>
<path d="M520.198 255.664H488.79V259.288H520.198V255.664Z" fill="#F4BC42"/>
<path d="M520.198 252.03H488.79V255.654H520.198V252.03Z" fill="#F5BD43"/>
<path d="M520.198 248.406H488.79V252.03H520.198V248.406Z" fill="#F5BE44"/>
<path d="M520.198 244.783H488.79V248.406H520.198V244.783Z" fill="#F6BF44"/>
<path d="M520.198 241.159H488.79V244.783H520.198V241.159Z" fill="#F6C044"/>
<path d="M520.198 237.536H488.79V241.159H520.198V237.536Z" fill="#F7C144"/>
<path d="M520.198 233.901H488.79V237.525H520.198V233.901Z" fill="#F8C344"/>
<path d="M520.198 230.277H488.79V233.901H520.198V230.277Z" fill="#F9C444"/>
<path d="M520.198 226.654H488.79V230.277H520.198V226.654Z" fill="#F9C544"/>
<path d="M520.198 223.03H488.79V226.654H520.198V223.03Z" fill="#FAC644"/>
<path d="M520.198 219.396H488.79V223.019H520.198V219.396Z" fill="#FBC745"/>
<path d="M520.198 215.772H488.79V219.396H520.198V215.772Z" fill="#FCC845"/>
<path d="M520.198 212.149H488.79V215.772H520.198V212.149Z" fill="#FCC946"/>
<path d="M520.198 208.525H488.79V212.149H520.198V208.525Z" fill="#FDCA47"/>
<path d="M520.198 204.891H488.79V208.514H520.198V204.891Z" fill="#FDCB49"/>
<path d="M520.198 202.493H488.79V204.891H520.198V202.493Z" fill="#FDCB49"/>
<path d="M520.198 200.095H488.79V202.493H520.198V200.095Z" fill="#FDCA47"/>
<path d="M520.198 197.698H488.79V200.095H520.198V197.698Z" fill="#FCC946"/>
<path d="M520.198 195.3H488.79V197.698H520.198V195.3Z" fill="#FBC745"/>
<path d="M520.198 192.902H488.79V195.3H520.198V192.902Z" fill="#FBC745"/>
<path d="M520.198 190.505H488.79V192.902H520.198V190.505Z" fill="#FAC645"/>
<path d="M520.198 188.096H488.79V190.494H520.198V188.096Z" fill="#F9C545"/>
<path d="M520.198 185.698H488.79V188.096H520.198V185.698Z" fill="#F8C445"/>
<path d="M520.198 183.301H488.79V185.698H520.198V183.301Z" fill="#F7C345"/>
<path d="M520.198 180.903H488.79V183.301H520.198V180.903Z" fill="#F6C244"/>
<path d="M520.198 178.505H488.79V180.903H520.198V178.505Z" fill="#F5C144"/>
<path d="M520.198 176.108H488.79V178.505H520.198V176.108Z" fill="#F5C044"/>
<path d="M520.198 173.71H488.79V176.108H520.198V173.71Z" fill="#F5BE44"/>
<path d="M520.198 171.302H488.79V173.699H520.198V171.302Z" fill="#F4BE44"/>
<path d="M520.198 168.904H488.79V171.302H520.198V168.904Z" fill="#F3BD45"/>
<path d="M520.198 166.506H488.79V168.904H520.198V166.506Z" fill="#F2BB46"/>
<path d="M520.198 164.109H488.79V166.506H520.198V164.109Z" fill="#F1BB47"/>
<path d="M520.198 161.711H488.79V164.109H520.198V161.711Z" fill="#EFB947"/>
<path d="M520.198 159.313H488.79V161.711H520.198V159.313Z" fill="#EEB847"/>
<path d="M520.198 156.916H488.79V159.313H520.198V156.916Z" fill="#EEB747"/>
<path d="M520.198 154.507H488.79V156.905H520.198V154.507Z" fill="#EDB646"/>
<path d="M520.198 152.11H488.79V154.507H520.198V152.11Z" fill="#ECB445"/>
<path d="M520.198 149.712H488.79V152.11H520.198V149.712Z" fill="#EAB445"/>
<path d="M520.198 132.874H488.79V149.723H520.198V132.874Z" fill="#EAB445"/>
</g>
<path d="M518.94 332.639C517.877 332.639 516.825 332.324 515.913 331.706C514.156 330.502 512.648 329.688 511.161 329.156C508.547 328.213 505.769 327.724 502.905 327.724C499.26 327.724 495.604 328.527 492.338 330.046C491.622 330.382 490.852 330.545 490.092 330.545C489.138 330.545 488.183 330.285 487.348 329.786C485.829 328.874 484.863 327.269 484.755 325.5L481.554 268.792C480.632 252.421 481.066 248.743 482.704 235.062L482.943 233.098L493.401 132.342C493.683 129.619 495.983 127.547 498.717 127.547H510.228C512.973 127.547 515.262 129.619 515.544 132.342L526.046 233.51L526.339 235.941C527.912 249.014 528.325 252.529 527.468 268.423L524.278 327.605C524.169 329.536 523.041 331.261 521.305 332.118C520.557 332.487 519.743 332.672 518.94 332.672V332.639Z" fill="#FFCF01"/>
<path d="M510.239 132.874L520.741 234.042C522.531 249.046 523.03 251.726 522.141 268.119L518.951 327.301C517.096 326.032 515.143 324.914 513.006 324.133C509.783 322.962 506.366 322.387 502.927 322.387C498.544 322.387 494.139 323.33 490.114 325.196L486.914 268.488C485.97 251.846 486.458 248.938 488.27 233.727L498.728 132.885H510.239M510.239 122.188H498.728C493.249 122.188 488.66 126.332 488.096 131.778L477.638 232.534L477.41 234.411C475.771 248.113 475.272 252.247 476.227 269.085L479.428 325.793C479.623 329.33 481.565 332.541 484.603 334.364C486.284 335.373 488.194 335.883 490.103 335.883C491.633 335.883 493.173 335.557 494.606 334.885C497.177 333.691 500.052 333.062 502.927 333.062C505.173 333.062 507.332 333.431 509.36 334.169C510.413 334.548 511.541 335.167 512.908 336.1C514.72 337.347 516.835 337.977 518.951 337.977C520.568 337.977 522.184 337.608 523.681 336.87C527.153 335.156 529.42 331.717 529.627 327.854L532.816 268.673C533.695 252.312 533.228 248.363 531.655 235.268L531.362 232.838L520.871 131.757C520.307 126.31 515.718 122.166 510.239 122.166V122.188Z" fill="black"/>
<path d="M504.467 145.676C492.555 145.676 482.65 136.357 481.923 124.455C481.163 112.022 490.667 101.281 503.1 100.522C503.567 100.489 504.033 100.479 504.489 100.479C516.401 100.479 526.307 109.798 527.023 121.699C527.392 127.721 525.384 133.525 521.392 138.049C517.389 142.573 511.867 145.264 505.845 145.633C505.379 145.665 504.912 145.676 504.457 145.676H504.467Z" fill="#FFCF01"/>
<path d="M504.5 105.827C513.548 105.827 521.142 112.879 521.707 122.025C522.282 131.529 515.045 139.709 505.541 140.295C505.183 140.317 504.825 140.327 504.478 140.327C495.43 140.327 487.836 133.275 487.282 124.13C486.707 114.626 493.944 106.446 503.448 105.86C503.806 105.838 504.164 105.827 504.511 105.827M504.511 95.1299C503.947 95.1299 503.361 95.1516 502.797 95.1841C487.413 96.1172 475.663 109.396 476.607 124.781C477.507 139.492 489.745 151.025 504.478 151.025C505.042 151.025 505.628 151.003 506.192 150.97C521.576 150.037 533.326 136.758 532.382 121.385C531.482 106.663 519.244 95.1407 504.511 95.1407V95.1299Z" fill="black"/>
<path d="M440.62 406.804C426.766 406.804 414.181 406.239 403.202 405.133C378.476 402.627 347.763 376.806 341.166 364.362C339.148 361.628 326.748 344.757 320 333.746C318.85 331.869 318.795 329.504 319.869 327.583C320.954 325.641 322.994 324.437 325.207 324.437C326.531 324.437 327.8 324.86 328.863 325.663C334.548 329.927 347.871 334.744 356.279 335.568C357.668 335.709 359.057 335.774 360.413 335.774C381.427 335.774 393.654 319.381 399.079 309.606C399.925 308.077 401.477 307.057 403.212 306.883C403.397 306.861 403.571 306.861 403.755 306.861C405.306 306.861 406.793 307.534 407.812 308.727C407.986 308.934 426.419 329.937 452.001 329.937C452.489 329.937 452.967 329.937 453.466 329.916C479.666 329.102 497.708 307.534 499.683 305.071C500.703 303.802 502.232 303.075 503.849 303.075C505.465 303.075 507.006 303.813 508.015 305.071C509.99 307.534 528.042 329.113 554.232 329.916C554.72 329.927 555.198 329.937 555.686 329.937C581.268 329.937 599.701 308.934 599.885 308.717C600.905 307.534 602.392 306.861 603.932 306.861C604.117 306.861 604.301 306.861 604.485 306.894C606.221 307.078 607.762 308.087 608.619 309.617C614.044 319.392 626.27 335.785 647.285 335.785C648.641 335.785 650.03 335.72 651.419 335.579C659.816 334.755 673.139 329.938 678.824 325.674C679.898 324.871 681.167 324.448 682.491 324.448C684.704 324.448 686.743 325.652 687.828 327.583C688.902 329.504 688.848 331.869 687.698 333.746C680.939 344.768 668.528 361.649 666.521 364.373C659.165 378.129 627.388 391.387 604.496 393.698C586.183 395.553 568.163 397.528 552.258 399.274C526.686 402.073 513.168 403.538 509.208 403.538C508.134 403.538 504.912 403.788 500.844 404.102C488.432 405.057 465.345 406.825 440.599 406.825L440.62 406.804Z" fill="#FFCF01"/>
<path d="M503.849 308.413C506.203 311.342 525.352 334.375 554.069 335.254C554.612 335.275 555.154 335.275 555.697 335.275C584.176 335.275 603.954 312.199 603.954 312.199C611.874 326.487 626.173 341.123 647.296 341.123C648.815 341.123 650.366 341.047 651.95 340.895C661.541 339.951 675.688 334.711 682.046 329.948C682.198 329.84 682.35 329.786 682.501 329.786C683.033 329.786 683.489 330.393 683.152 330.946C675.981 342.642 661.986 361.53 661.986 361.53C656.42 372.792 626.552 386.093 603.975 388.371C559.83 392.841 515.815 398.178 509.23 398.178C509.208 398.178 509.187 398.178 509.165 398.178C504.511 398.2 473.992 401.466 440.62 401.466C428.339 401.466 415.656 401.021 403.744 399.817C381.178 397.528 351.288 372.792 345.723 361.53C345.723 361.53 331.728 342.642 324.556 330.946C324.209 330.393 324.676 329.786 325.207 329.786C325.359 329.786 325.511 329.829 325.663 329.948C332.02 334.711 346.157 339.951 355.758 340.895C357.342 341.047 358.894 341.123 360.413 341.123C381.536 341.123 395.835 326.487 403.755 312.199C403.755 312.199 423.522 335.275 452.012 335.275C452.554 335.275 453.097 335.275 453.639 335.254C482.357 334.364 501.505 311.342 503.86 308.413M503.86 297.716C500.616 297.716 497.546 299.191 495.517 301.719C493.705 303.976 477.106 323.829 453.303 324.567C452.869 324.578 452.435 324.589 452.012 324.589C429.088 324.589 412.044 305.44 411.881 305.245C409.841 302.858 406.869 301.513 403.766 301.513C403.408 301.513 403.05 301.535 402.692 301.567C399.209 301.925 396.117 303.954 394.414 307.024C389.564 315.769 378.693 330.437 360.423 330.437C359.241 330.437 358.026 330.371 356.811 330.252C348.815 329.46 336.523 324.719 332.086 321.388C330.078 319.88 327.702 319.088 325.218 319.088C321.074 319.088 317.244 321.345 315.215 324.969C313.197 328.571 313.284 333.008 315.454 336.545C322.093 347.372 334.017 363.667 336.642 367.226C341.405 375.959 352.807 386.049 362.138 392.732C370.405 398.656 386.657 408.832 402.681 410.46C413.834 411.588 426.603 412.163 440.642 412.163C465.595 412.163 488.823 410.384 501.299 409.429C504.749 409.169 508.319 408.887 509.219 408.876H509.252C513.494 408.876 526.404 407.487 552.876 404.579C568.759 402.844 586.769 400.869 605.071 399.014C617.103 397.799 631.228 393.795 643.813 388.045C653.491 383.619 665.913 376.48 671.066 367.248C673.649 363.743 685.626 347.394 692.276 336.534C694.435 333.008 694.533 328.571 692.515 324.969C690.486 321.345 686.657 319.088 682.512 319.088C680.028 319.088 677.652 319.88 675.645 321.378C671.197 324.719 658.915 329.46 650.909 330.252C649.694 330.371 648.479 330.437 647.296 330.437C629.026 330.437 618.155 315.769 613.306 307.024C611.602 303.965 608.521 301.925 605.028 301.567C604.67 301.535 604.312 301.513 603.954 301.513C600.851 301.513 597.878 302.869 595.839 305.245C595.698 305.408 578.73 324.589 555.708 324.589C555.274 324.589 554.851 324.589 554.417 324.567C530.614 323.829 514.015 303.976 512.203 301.719C510.174 299.191 507.104 297.716 503.86 297.716Z" fill="black"/>
<path d="M664.199 400.674C664.199 400.674 607.61 425.301 499.813 425.301C392.016 425.301 343.51 400.674 343.51 400.674V365.132C343.51 365.132 424.054 389.185 501.007 389.185C577.959 389.185 664.199 365.132 664.199 365.132V400.674Z" fill="#FFCF01"/>
<path d="M499.813 430.639C391.973 430.639 343.119 406.467 341.09 405.437C339.3 404.525 338.161 402.681 338.161 400.663V365.121C338.161 363.429 338.964 361.845 340.309 360.836C341.665 359.827 343.412 359.523 345.029 360C345.831 360.239 425.746 383.825 500.996 383.825C576.245 383.825 661.899 360.207 662.745 359.968C664.351 359.512 666.087 359.849 667.41 360.858C668.745 361.866 669.526 363.44 669.526 365.11V400.652C669.526 402.779 668.267 404.71 666.315 405.556C663.96 406.576 607.469 430.628 499.791 430.628L499.813 430.639ZM348.858 397.202C360.771 402.214 409.299 419.942 499.813 419.942C590.327 419.942 645.506 401.987 658.85 397.018V372.054C636.87 377.652 565.374 394.511 501.006 394.511C436.639 394.511 370.101 377.901 348.848 372.162V397.191L348.858 397.202Z" fill="black"/>
<path d="M521.425 347.415L505.618 326.412C504.489 324.904 502.656 324.904 501.517 326.412L485.71 347.415C484.581 348.923 484.581 351.354 485.71 352.862L501.517 373.866C502.645 375.374 504.479 375.374 505.618 373.866L521.425 352.862C522.553 351.354 522.553 348.923 521.425 347.415Z" fill="#B82226"/>
<path d="M503.567 378.552C501.679 378.552 499.889 377.619 498.674 376.003L482.867 354.999C480.773 352.222 480.773 348.045 482.867 345.267L498.674 324.263C499.889 322.647 501.679 321.714 503.567 321.714C505.455 321.714 507.245 322.647 508.46 324.263L524.267 345.267C526.35 348.045 526.35 352.222 524.267 354.999L508.46 376.003C507.245 377.619 505.455 378.552 503.567 378.552ZM503.567 329.612L488.552 349.553C488.378 349.781 488.378 350.475 488.552 350.714L503.567 370.654L518.582 350.714C518.756 350.486 518.756 349.791 518.582 349.553L503.567 329.612Z" fill="black"/>
<path d="M396.855 348.978L405.154 332.726C405.751 331.565 406.934 331.413 407.791 332.389L419.855 346.081C420.723 347.057 420.94 348.804 420.343 349.965L412.044 366.217C411.447 367.378 410.264 367.53 409.407 366.553L397.343 352.862C396.475 351.885 396.258 350.139 396.855 348.978Z" fill="#B82226"/>
<path d="M410.655 370.763C409.19 370.763 407.791 370.112 406.727 368.908L394.663 355.216C392.83 353.133 392.407 349.835 393.676 347.361L401.975 331.109C402.8 329.482 404.243 328.429 405.925 328.223C407.606 328.017 409.266 328.679 410.46 330.046L422.524 343.738C424.357 345.821 424.77 349.119 423.511 351.592L415.211 367.844C414.387 369.472 412.944 370.524 411.262 370.73C411.056 370.752 410.85 370.774 410.644 370.774L410.655 370.763ZM400.099 350.594L410.177 362.04L417.11 348.457C417.11 348.457 417.11 348.381 417.099 348.348L407.02 336.913L400.088 350.497C400.088 350.497 400.088 350.562 400.099 350.594Z" fill="black"/>
<path d="M610.452 348.978L602.152 332.726C601.556 331.565 600.373 331.413 599.516 332.389L587.452 346.081C586.584 347.057 586.367 348.804 586.964 349.965L595.263 366.217C595.86 367.378 597.042 367.53 597.9 366.553L609.964 352.862C610.832 351.885 611.049 350.139 610.452 348.978Z" fill="#B82226"/>
<path d="M596.652 370.763C596.446 370.763 596.24 370.752 596.034 370.719C594.352 370.513 592.909 369.461 592.085 367.833L583.785 351.581C582.526 349.108 582.939 345.81 584.772 343.727L596.836 330.035C598.041 328.668 599.701 328.017 601.371 328.212C603.053 328.429 604.496 329.482 605.32 331.098L613.609 347.35C614.868 349.824 614.455 353.122 612.622 355.205L600.558 368.897C599.505 370.101 598.095 370.752 596.63 370.752L596.652 370.763ZM590.197 348.457L597.129 362.04L607.208 350.605C607.208 350.605 607.219 350.54 607.219 350.497L600.286 336.913L590.208 348.348C590.208 348.348 590.197 348.424 590.197 348.457Z" fill="black"/>
<path d="M117.957 503.437L171.616 499.433L173.808 528.802C174.459 537.481 170.423 542.146 161.722 542.797L154.084 543.362C145.383 544.012 140.696 539.998 140.056 531.319L138.44 509.621L118.532 511.107L117.957 503.437ZM146.11 509.046L147.694 530.332C147.846 532.371 148.41 533.814 149.376 534.65C150.341 535.485 151.849 535.821 153.889 535.669L160.778 535.16C162.829 535.008 164.261 534.444 165.096 533.489C165.931 532.523 166.268 531.015 166.116 528.976L164.532 507.69L146.121 509.067L146.11 509.046Z" fill="white"/>
<path d="M152.337 547.81C147.759 547.81 144.016 546.584 141.195 544.164C137.951 541.376 136.096 537.167 135.684 531.644L134.393 514.308L114.485 515.794L113.259 499.39L175.641 494.736L178.158 528.477C178.983 539.521 173.103 546.334 162.036 547.159L154.399 547.723C153.693 547.777 152.999 547.799 152.326 547.799L152.337 547.81ZM152.272 531.276C152.489 531.319 152.901 531.352 153.552 531.297L160.442 530.787C161.103 530.733 161.494 530.635 161.711 530.57C161.754 530.353 161.787 529.941 161.744 529.29L160.485 512.366L150.808 513.092L152.066 530.017C152.12 530.679 152.218 531.069 152.283 531.286L152.272 531.276Z" fill="white"/>
<path d="M163.273 658.568C162.308 658.97 161.31 659.165 160.29 659.154C159.27 659.154 158.304 658.948 157.382 658.568C156.471 658.189 155.646 657.646 154.92 656.93C154.193 656.214 153.618 655.379 153.216 654.402L141.423 626.021C141.022 625.055 140.826 624.057 140.837 623.037C140.848 622.018 141.043 621.052 141.423 620.13C141.803 619.219 142.345 618.394 143.061 617.667C143.777 616.94 144.613 616.376 145.589 615.964L181.066 601.22C182.031 600.818 183.03 600.623 184.049 600.634C185.069 600.634 186.035 600.84 186.935 601.22C187.836 601.6 188.66 602.153 189.398 602.858C190.136 603.563 190.711 604.41 191.112 605.375L202.905 633.756C203.307 634.722 203.502 635.72 203.48 636.751C203.458 637.781 203.263 638.747 202.894 639.658C202.525 640.57 201.983 641.383 201.278 642.121C200.562 642.848 199.726 643.412 198.75 643.824L163.273 658.568ZM184.006 608.348L148.529 623.092L160.322 651.473L195.799 636.729L184.006 608.348Z" fill="white"/>
<path d="M160.355 663.537H160.235C158.651 663.526 157.133 663.212 155.701 662.626C154.268 662.04 152.967 661.172 151.849 660.076C150.699 658.959 149.799 657.614 149.169 656.106L137.376 627.724C136.747 626.216 136.432 624.632 136.454 623.016C136.465 621.443 136.78 619.913 137.365 618.492C137.962 617.049 138.819 615.758 139.915 614.629C141.033 613.479 142.378 612.579 143.886 611.95L179.362 597.206C180.881 596.576 182.454 596.273 184.071 596.284C185.655 596.294 187.185 596.609 188.617 597.217C190.005 597.802 191.286 598.649 192.403 599.723C193.586 600.851 194.497 602.196 195.137 603.726L206.93 632.107C207.57 633.637 207.874 635.243 207.841 636.87C207.809 638.422 207.505 639.919 206.941 641.318C206.355 642.761 205.498 644.063 204.391 645.202C203.263 646.352 201.929 647.253 200.41 647.882L164.933 662.626C163.458 663.244 161.906 663.548 160.344 663.548L160.355 663.537ZM154.247 625.446L162.677 645.745L190.071 634.364L181.641 614.065L154.247 625.446Z" fill="white"/>
<path d="M251.683 737.268C246.019 742.183 240.682 742.573 235.691 738.418L225.894 760.333L220.318 753.9L230.017 732.266L218.973 719.54L202.731 733.633L197.687 727.829L238.327 692.57L257.628 714.821C263.335 721.396 262.89 727.547 256.293 733.265L251.672 737.268H251.683ZM224.777 714.506L238.772 730.628C240.117 732.18 241.419 732.993 242.7 733.091C243.98 733.189 245.379 732.549 246.931 731.214L250.988 727.699C252.54 726.354 253.353 725.052 253.451 723.772C253.538 722.502 252.909 721.092 251.574 719.54L237.579 703.419L224.798 714.506H224.777Z" fill="white"/>
<path d="M227.088 768.394L215.175 754.67L224.874 733.037L218.528 725.724L202.286 739.818L191.502 727.395L238.75 686.396L260.926 711.946C268.184 720.311 267.544 729.283 259.158 736.563L254.536 740.566C247.799 746.414 241.94 746.327 237.676 744.656L227.066 768.383L227.088 768.394ZM230.95 714.951L242.07 727.775C242.504 728.274 242.819 728.534 243.003 728.665C243.199 728.567 243.546 728.35 244.045 727.916L248.102 724.401C248.601 723.967 248.862 723.652 248.992 723.468C248.894 723.273 248.677 722.925 248.243 722.426L237.123 709.603L230.95 714.962V714.951Z" fill="white"/>
<path d="M308.337 769.978C308.88 769.078 309.563 768.329 310.388 767.732C311.212 767.136 312.102 766.723 313.057 766.495C314.011 766.268 314.999 766.213 316.008 766.344C317.027 766.474 317.982 766.81 318.883 767.353L343.901 782.389C344.801 782.932 345.55 783.615 346.136 784.462C346.732 785.297 347.145 786.197 347.394 787.141C347.644 788.096 347.698 789.072 347.557 790.081C347.416 791.09 347.08 792.045 346.537 792.946L342.957 798.891L336.361 794.931L339.941 788.986L314.923 773.949L295.134 806.887L320.152 821.924L323.711 816L330.307 819.96L326.748 825.884C326.206 826.784 325.522 827.533 324.698 828.129C323.873 828.726 322.973 829.149 322.018 829.388C321.052 829.627 320.065 829.681 319.056 829.54C318.047 829.399 317.093 829.062 316.192 828.52L291.174 813.483C290.274 812.941 289.525 812.257 288.928 811.433C288.332 810.608 287.908 809.708 287.67 808.753C287.431 807.787 287.377 806.811 287.518 805.791C287.659 804.782 287.995 803.827 288.538 802.927L308.326 769.989L308.337 769.978Z" fill="white"/>
<path d="M320.173 833.977C319.609 833.977 319.034 833.934 318.47 833.858C316.875 833.641 315.356 833.098 313.957 832.252L288.939 817.215C287.528 816.369 286.335 815.273 285.402 813.982C284.48 812.702 283.818 811.291 283.449 809.794C283.08 808.297 282.994 806.746 283.211 805.173C283.427 803.578 283.97 802.059 284.816 800.649L304.605 767.711C305.451 766.3 306.536 765.118 307.838 764.174C309.129 763.241 310.55 762.579 312.058 762.221C313.523 761.874 315.042 761.787 316.582 761.993C318.199 762.199 319.74 762.731 321.161 763.588L346.179 778.625C347.6 779.482 348.793 780.588 349.737 781.912C350.627 783.171 351.278 784.559 351.658 786.024C352.048 787.532 352.135 789.094 351.918 790.667C351.701 792.262 351.159 793.781 350.312 795.191L344.486 804.89L330.393 796.417L333.974 790.472L316.452 779.948L301.166 805.379L318.687 815.902L322.246 809.979L336.339 818.452L330.524 828.118C329.688 829.518 328.592 830.711 327.29 831.655C326.01 832.577 324.6 833.239 323.103 833.619C322.148 833.858 321.172 833.977 320.195 833.977H320.173Z" fill="white"/>
<path d="M414.485 809.968L400.045 861.805L392.635 859.744L407.075 807.907L414.485 809.968Z" fill="white"/>
<path d="M404.018 802.451L387.227 862.712L403.071 867.126L419.862 806.866L404.018 802.451Z" fill="white"/>
<path d="M483.702 874.943L476.01 875.063L475.142 821.262L482.834 821.132L515.848 862.326L515.175 820.611L522.867 820.481L523.735 874.281L516.043 874.401L483.029 833.207L483.702 874.922V874.943Z" fill="white"/>
<path d="M471.703 879.522L470.694 816.966L484.906 816.738L511.259 849.621L510.716 816.315L527.164 816.054L528.183 878.599L513.971 878.838L487.608 845.944L488.15 879.25L471.703 879.522Z" fill="white"/>
<path d="M705.198 786.208C704.363 786.848 703.452 787.282 702.453 787.532C701.455 787.771 700.468 787.836 699.502 787.716C698.526 787.597 697.593 787.282 696.714 786.783C695.825 786.284 695.065 785.612 694.425 784.776L685.073 772.56C684.433 771.725 683.988 770.813 683.739 769.826C683.489 768.839 683.435 767.862 683.565 766.886C683.706 765.91 684.021 764.977 684.509 764.076C685.008 763.176 685.67 762.405 686.505 761.776L707.238 745.904C708.073 745.264 708.985 744.83 709.983 744.58C710.981 744.341 711.968 744.276 712.934 744.396C713.91 744.515 714.843 744.83 715.733 745.329C716.622 745.828 717.382 746.501 718.022 747.336L719.986 749.918L713.877 754.594L711.914 752.012L691.181 767.884L700.533 780.1L721.266 764.228C722.101 763.588 723.012 763.143 724 762.894C724.987 762.644 725.974 762.579 726.951 762.709C727.927 762.839 728.871 763.154 729.75 763.653C730.639 764.152 731.399 764.825 732.039 765.66L741.369 777.844C742.009 778.679 742.454 779.59 742.704 780.578C742.953 781.565 743.018 782.552 742.888 783.529C742.758 784.505 742.443 785.449 741.944 786.328C741.445 787.217 740.772 787.977 739.937 788.617L718.608 804.945C717.772 805.585 716.861 806.03 715.874 806.279C714.886 806.529 713.899 806.594 712.923 806.464C711.946 806.333 711.002 806.019 710.113 805.52C709.223 805.021 708.464 804.348 707.824 803.513L705.535 800.54L711.643 795.864L713.932 798.826L735.261 782.498L725.931 770.314L705.198 786.187V786.208Z" fill="white"/>
<path d="M713.921 810.923C713.389 810.923 712.868 810.89 712.337 810.814C710.807 810.608 709.332 810.109 707.954 809.339C706.554 808.557 705.339 807.494 704.341 806.182L699.372 799.748L712.434 789.756L714.724 792.718L729.12 781.695L725.117 776.455L707.856 789.669C706.543 790.678 705.068 791.383 703.484 791.763C701.976 792.132 700.446 792.23 698.949 792.034C697.408 791.839 695.922 791.351 694.544 790.57C693.145 789.778 691.93 788.714 690.931 787.413L681.58 775.196C680.581 773.895 679.876 772.441 679.475 770.889C679.084 769.349 678.997 767.786 679.214 766.246C679.421 764.749 679.909 763.306 680.657 761.95C681.449 760.518 682.513 759.281 683.825 758.283L704.558 742.41C705.882 741.401 707.346 740.696 708.93 740.316C710.438 739.948 711.957 739.861 713.454 740.045C714.995 740.241 716.481 740.729 717.859 741.51C719.259 742.302 720.474 743.365 721.472 744.667L726.083 750.732L713.031 760.724L711.067 758.142L697.289 768.687L701.325 773.949L718.586 760.735C719.888 759.736 721.331 759.031 722.893 758.63C724.412 758.239 725.974 758.142 727.504 758.348C729.044 758.554 730.509 759.042 731.887 759.823C733.286 760.615 734.502 761.678 735.5 762.98L744.83 775.164C745.828 776.466 746.533 777.909 746.935 779.471C747.325 781.001 747.423 782.552 747.217 784.093C747.011 785.633 746.512 787.098 745.741 788.476C744.949 789.875 743.886 791.09 742.584 792.089L721.255 808.416C719.953 809.415 718.499 810.12 716.948 810.521C715.939 810.782 714.93 810.912 713.91 810.912L713.921 810.923Z" fill="white"/>
<path d="M772.462 709.538L779.254 700.609L788.183 707.4L781.391 716.329L772.462 709.538Z" fill="white"/>
<path d="M782.226 722.47L766.333 710.373L778.429 694.479L794.323 706.576L782.226 722.47ZM778.603 708.713L780.567 710.21L782.064 708.246L780.1 706.749L778.603 708.713Z" fill="white"/>
<path d="M793.933 635.026L808.828 598.757L815.945 601.676L803.968 630.827L818.202 636.675L828.422 611.787L835.539 614.705L825.319 639.593L846.627 648.349L843.708 655.466L793.933 635.026Z" fill="white"/>
<path d="M846.095 661.183L788.226 637.413L806.442 593.05L821.652 599.289L809.686 628.451L815.815 630.968L826.035 606.08L841.246 612.329L831.026 637.217L852.344 645.962L846.095 661.183Z" fill="white"/>
<path d="M830.039 542.797C828.986 542.711 828.01 542.439 827.109 541.962C826.209 541.485 825.439 540.877 824.809 540.118C824.18 539.358 823.692 538.501 823.356 537.535C823.019 536.57 822.889 535.561 822.976 534.509L825.287 505.411C825.373 504.359 825.656 503.393 826.144 502.482C826.632 501.581 827.24 500.811 827.988 500.16C828.726 499.52 829.583 499.032 830.549 498.706C831.514 498.381 832.523 498.262 833.565 498.348L840.486 498.902L839.879 506.572L832.957 506.019L830.646 535.116L868.944 538.165L871.254 509.067L864.376 508.525L864.984 500.855L871.862 501.397C872.914 501.484 873.891 501.755 874.791 502.232C875.692 502.71 876.473 503.317 877.113 504.077C877.753 504.836 878.241 505.693 878.567 506.659C878.892 507.624 879.012 508.633 878.925 509.675L876.614 538.772C876.527 539.825 876.256 540.79 875.779 541.702C875.301 542.602 874.694 543.383 873.934 544.023C873.186 544.663 872.318 545.152 871.352 545.477C870.387 545.803 869.378 545.922 868.336 545.835L830.039 542.786V542.797Z" fill="white"/>
<path d="M868.976 550.251C868.651 550.251 868.325 550.24 868 550.207L829.691 547.159C828.053 547.028 826.502 546.584 825.081 545.835C823.67 545.097 822.455 544.121 821.457 542.928C820.491 541.767 819.732 540.443 819.222 538.978C818.69 537.438 818.484 535.821 818.615 534.172L820.925 505.075C821.056 503.426 821.511 501.864 822.292 500.421C823.03 499.054 823.974 497.86 825.113 496.873C826.296 495.853 827.652 495.083 829.16 494.573C830.69 494.063 832.284 493.868 833.923 493.998L845.206 494.898L843.904 511.291L836.982 510.738L835.366 531.113L864.94 533.467L866.557 513.092L859.678 512.55L860.98 496.157L872.231 497.057C873.869 497.188 875.421 497.632 876.842 498.381C878.241 499.119 879.456 500.084 880.455 501.256C881.464 502.439 882.223 503.795 882.722 505.281C883.232 506.8 883.427 508.406 883.297 510.044L880.986 539.141C880.856 540.779 880.411 542.331 879.663 543.752C878.936 545.152 877.959 546.367 876.788 547.365C875.605 548.374 874.26 549.133 872.762 549.632C871.547 550.045 870.278 550.251 868.987 550.251H868.976Z" fill="white"/>
<path d="M610.257 800.106L648.327 845.358L640.863 847.929L632.107 837.514L608.565 845.607L608.077 859.201L600.612 861.762L602.782 802.666L610.246 800.106H610.257ZM608.847 837.167L626.672 831.037L609.888 811.096L608.847 837.167Z" fill="white"/>
<path d="M596.175 867.772L598.681 799.618L611.635 795.159L655.541 847.354L639.506 852.876L630.751 842.461L612.709 848.667L612.221 862.261L596.186 867.772H596.175ZM613.685 822.173L613.327 831.156L619.468 829.041L613.685 822.173Z" fill="white"/>
</g>
<defs>
<clipPath id="clip0_1_1588">
<rect width="867.93" height="867.93" fill="white" transform="translate(66 66)"/>
</clipPath>
</defs>
</svg>
