<svg width="161" height="161" viewBox="0 0 161 161" fill="none" xmlns="http://www.w3.org/2000/svg">
<g clip-path="url(#clip0_406_22390)">
<path d="M147.64 80.7591C147.64 43.8224 117.696 13.8787 80.7594 13.8787C43.8227 13.8787 13.8806 43.8224 13.8806 80.7591C13.8806 117.696 43.8244 147.64 80.7611 147.64C117.698 147.64 147.642 117.696 147.642 80.7591" fill="white"/>
<path d="M80.761 149.92C71.4246 149.92 62.3681 148.091 53.8394 144.485C45.6043 141.001 38.2075 136.016 31.8559 129.664C25.5044 123.313 20.5188 115.918 17.0351 107.681C13.4274 99.1537 11.5999 90.0956 11.5999 80.7591C11.5999 71.4227 13.4291 62.3663 17.0351 53.8376C20.5188 45.6025 25.5044 38.2056 31.8559 31.8541C38.2075 25.5025 45.6026 20.517 53.8394 17.0332C62.3664 13.4273 71.4246 11.598 80.761 11.598C90.0974 11.598 99.1538 13.4273 107.683 17.0332C115.918 20.517 123.314 25.5042 129.666 31.8541C136.018 38.2056 141.003 45.6008 144.487 53.8376C148.095 62.3646 149.922 71.4227 149.922 80.7591C149.922 90.0956 148.093 99.152 144.487 107.681C141.003 115.916 136.018 123.313 129.666 129.664C123.314 136.016 115.919 141.001 107.683 144.485C99.1555 148.093 90.0974 149.92 80.761 149.92" fill="#010101"/>
<path d="M80.761 10.12C71.226 10.12 61.9744 11.9883 53.2642 15.6723C44.8526 19.2307 37.2979 24.3232 30.8106 30.8105C24.3233 37.2978 19.2308 44.8507 15.6724 53.264C11.9884 61.9743 10.1201 71.2242 10.1201 80.7591C10.1201 90.2941 11.9884 99.5457 15.6724 108.256C19.2308 116.668 24.3233 124.222 30.8106 130.709C37.2979 137.197 44.8509 142.289 53.2642 145.848C61.9744 149.532 71.226 151.4 80.761 151.4C90.2959 151.4 99.5475 149.532 108.258 145.848C116.669 142.289 124.224 137.197 130.711 130.709C137.197 124.222 142.291 116.669 145.849 108.256C149.533 99.5457 151.402 90.2941 151.402 80.7591C151.402 71.2242 149.533 61.9726 145.849 53.2623C142.291 44.8507 137.199 37.2961 130.711 30.8088C124.224 24.3232 116.671 19.229 108.258 15.6706C99.5475 11.9883 90.2959 10.12 80.761 10.12Z" fill="#010101"/>
<path d="M80.761 11.5997C71.4246 11.5997 62.3681 13.429 53.8394 17.0349C45.6043 20.5187 38.2075 25.5042 31.8559 31.8558C25.5044 38.2073 20.5188 45.6025 17.0351 53.8393C13.4274 62.3663 11.5999 71.4244 11.5999 80.7609C11.5999 90.0973 13.4291 99.1537 17.0351 107.682C20.5188 115.918 25.5044 123.314 31.8559 129.666C38.2075 136.017 45.6026 141.003 53.8394 144.487C62.3664 148.094 71.4246 149.922 80.761 149.922C90.0974 149.922 99.1538 148.093 107.683 144.487C115.918 141.003 123.314 136.017 129.666 129.666C136.018 123.314 141.003 115.919 144.487 107.682C148.095 99.1554 149.922 90.0973 149.922 80.7609C149.922 71.4244 148.093 62.368 144.487 53.8393C141.003 45.6042 136.018 38.2073 129.666 31.8558C123.314 25.5042 115.919 20.5187 107.683 17.0349C99.1555 13.4273 90.0974 11.5997 80.761 11.5997" fill="#F8AF3E"/>
<path d="M80.761 12.7333C71.579 12.7333 62.6685 14.532 54.2823 18.0803C46.1813 21.5063 38.9066 26.4104 32.6603 32.6584C26.4139 38.9048 21.5082 46.1795 18.0821 54.2805C14.5338 62.6684 12.7351 71.5772 12.7351 80.7592C12.7351 89.9412 14.5338 98.8517 18.0821 107.238C21.5082 115.339 26.4122 122.614 32.6603 128.86C38.9066 135.106 46.1813 140.012 54.2823 143.438C62.6702 146.986 71.579 148.785 80.761 148.785C89.943 148.785 98.8535 146.986 107.24 143.438C115.341 140.012 122.615 135.108 128.862 128.86C135.108 122.614 140.014 115.339 143.44 107.238C146.988 98.85 148.787 89.9412 148.787 80.7592C148.787 71.5772 146.988 62.6667 143.44 54.2805C140.014 46.1795 135.11 38.9048 128.862 32.6584C122.615 26.4121 115.341 21.5063 107.24 18.0803C98.8518 14.532 89.943 12.7333 80.761 12.7333" fill="#010101"/>
<path d="M80.761 14.213C117.514 14.213 147.307 44.0074 147.307 80.7592C147.307 117.511 117.513 147.305 80.761 147.305C44.0092 147.305 14.2131 117.513 14.2131 80.7592C14.2131 44.0057 44.0076 14.213 80.761 14.213Z" fill="#2B2B2B"/>
<path d="M80.761 41.2211C102.597 41.2211 120.299 58.9233 120.299 80.7592C120.299 102.595 102.597 120.297 80.761 120.297C58.9251 120.297 41.2229 102.595 41.2229 80.7592C41.2229 58.9233 58.9251 41.2211 80.761 41.2211" fill="#F1F1F1"/>
<path d="M24.7256 80.5895L26.9129 79.0674L26.1408 81.6178L28.2636 83.2265L25.6012 83.2808L24.7256 85.7956L23.8517 83.2808L21.1892 83.2265L23.312 81.6178L22.54 79.0674L24.7256 80.5895Z" fill="#F8AF3E"/>
<path d="M134.935 78.4395L137.121 76.9191L136.349 79.4678L138.471 81.0765L135.809 81.1308L134.935 83.6456L134.059 81.1308L131.397 81.0765L133.52 79.4678L132.748 76.9191L134.935 78.4395Z" fill="#F8AF3E"/>
<path d="M101.903 65.8874C104.387 69.5307 105.989 73.8222 106.405 78.4548L106.546 78.4276L106.412 78.5396C106.478 79.3049 106.513 80.0804 106.513 80.8644C106.513 95.5715 94.5909 107.492 79.8854 107.492C77.5708 107.492 75.3258 107.195 73.1843 106.639L69.2305 109.982C72.553 111.198 76.142 111.862 79.8854 111.862C97.0056 111.862 110.885 97.9828 110.885 80.8627C110.885 73.8358 108.545 67.3569 104.604 62.1576L101.903 65.8857V65.8874Z" fill="#F8AF3E"/>
<path d="M62.0238 106.198L64.1178 102.32C57.5337 97.4721 53.2592 89.6697 53.2592 80.8644C53.2592 67.934 62.4751 57.1603 74.698 54.7455L77.8984 49.9314C61.7064 50.958 48.8896 64.4129 48.8896 80.8644C48.8896 91.3327 54.0805 100.586 62.0255 106.198" fill="#F8AF3E"/>
<path d="M83.5508 44.0974L104.258 40.2522L93.1655 55.93L109.435 52.9723L87.2483 83.5897L101.3 80.9272L57.2231 118.2L73.1979 88.6176L63.8801 90.245L77.783 67.6149L66.2456 70.1298L83.5508 44.0974Z" fill="#F8AF3E"/>
<path d="M32.102 70.1857L29.4056 69.6715L29.823 67.4808C29.8604 67.2856 29.8875 67.0973 29.9079 66.914L32.9912 65.5259L33.2542 64.1463L29.879 65.6854C29.8654 65.5972 29.8553 65.5073 29.8349 65.4224C29.6941 64.8268 29.4226 64.3381 29.0187 63.9546C28.6148 63.5711 28.0922 63.3182 27.4507 63.1961C26.8093 63.0739 26.229 63.1163 25.708 63.3233C25.1871 63.5304 24.7526 63.885 24.4031 64.3873C24.0535 64.8896 23.8041 65.5293 23.6564 66.3048L22.9963 69.7614L31.8593 71.4533L32.1003 70.1874L32.102 70.1857ZM24.7509 66.5526C24.9054 65.7414 25.1955 65.1611 25.6215 64.8098C26.0474 64.4586 26.5768 64.3432 27.2098 64.4637C27.8427 64.5841 28.2941 64.8879 28.5656 65.3715C28.8371 65.8568 28.8948 66.5034 28.7404 67.3145L28.3297 69.4662L24.342 68.7059L24.7526 66.5543L24.7509 66.5526Z" fill="white"/>
<path d="M33.68 62.8975L31.939 61.1548L33.6817 56.6851L36.1439 56.5816L36.636 55.3208L26.7413 55.8621L26.2781 57.0517L33.1998 64.1363L33.6817 62.8992L33.68 62.8975ZM31.1431 60.3572L27.7255 56.9363L32.5567 56.7326L31.1431 60.3572Z" fill="white"/>
<path d="M38.0004 53.2692L38.6486 52.1712L35.9607 50.5829L32.7026 44.4978L32.0544 45.5957L34.6778 50.5134L29.1103 50.5795L28.4094 51.7657L35.2955 51.6724L38.0004 53.2692Z" fill="white"/>
<path d="M35.6486 44.9425C35.915 45.4889 36.2985 45.9793 36.7991 46.4103C37.2997 46.8413 37.841 47.1502 38.4214 47.3317C39.0017 47.515 39.5888 47.5778 40.1861 47.5252C40.7818 47.4726 41.3604 47.2978 41.9204 47.0042C42.4804 46.709 42.9844 46.3017 43.434 45.7807C43.882 45.2598 44.2112 44.7049 44.42 44.1127C44.6287 43.5222 44.7152 42.9265 44.6813 42.3292C44.6456 41.7319 44.4946 41.1617 44.2248 40.617C43.9567 40.074 43.5681 39.5836 43.0607 39.1458C42.5601 38.7148 42.0188 38.4043 41.4385 38.2159C40.8581 38.0275 40.2693 37.9597 39.6737 38.014C39.0781 38.0683 38.5028 38.2414 37.9479 38.5349C37.3947 38.8285 36.8924 39.2357 36.4445 39.7567C35.9897 40.2844 35.6605 40.8444 35.4552 41.4383C35.2498 42.0323 35.165 42.6279 35.1989 43.2252C35.2346 43.8225 35.3856 44.3961 35.6503 44.9425H35.6486ZM36.5938 41.7336C36.7414 41.2992 36.9773 40.8936 37.3031 40.5152C37.634 40.1317 38.0039 39.8348 38.4112 39.6243C38.8184 39.4139 39.2461 39.2951 39.6923 39.2646C40.1386 39.234 40.5764 39.2884 41.0075 39.4275C41.4385 39.5666 41.8423 39.7991 42.2207 40.1232C42.5992 40.449 42.8893 40.8156 43.093 41.2228C43.2966 41.6318 43.4154 42.056 43.4476 42.4989C43.4816 42.9418 43.4239 43.3796 43.2762 43.814C43.1286 44.2484 42.8893 44.6574 42.5584 45.0409C42.2326 45.4193 41.8661 45.7129 41.4588 45.9233C41.0516 46.1337 40.624 46.2559 40.1794 46.2932C39.7348 46.3288 39.2953 46.2762 38.8609 46.1354C38.4264 45.9946 38.0209 45.7604 37.6442 45.4346C37.2675 45.1088 36.9773 44.7439 36.777 44.3384C36.5768 43.9328 36.4597 43.5052 36.4258 43.0572C36.3919 42.6092 36.4495 42.168 36.5972 41.7336H36.5938Z" fill="white"/>
<path d="M53.0859 37.0857C53.8869 36.5528 54.4876 35.925 54.8898 35.2021C55.2919 34.4809 55.4735 33.7241 55.4379 32.9316C55.4005 32.1409 55.1341 31.3722 54.6386 30.6289C54.1431 29.8857 53.5373 29.3444 52.8212 29.005C52.1051 28.6656 51.3364 28.5434 50.5151 28.6367C49.6938 28.7301 48.8827 29.0423 48.0817 29.5768L44.917 31.6844L49.9195 39.1932L53.0842 37.0857H53.0859ZM48.64 30.5526C49.2628 30.1385 49.8788 29.8975 50.4897 29.8314C51.1005 29.7652 51.6724 29.8585 52.2035 30.1148C52.7347 30.3693 53.1894 30.7799 53.5662 31.345C53.9378 31.9033 54.1397 32.4786 54.1737 33.0691C54.2076 33.6613 54.0752 34.2264 53.7783 34.7643C53.4813 35.3022 53.0215 35.7791 52.4004 36.1948L50.3726 37.5455L46.6122 31.9033L48.64 30.5526V30.5526Z" fill="white"/>
<path d="M64.4741 31.3112L64.0363 30.2794L59.1933 32.3293L58.0581 29.6482L62.224 27.8834L61.7981 26.8754L57.6304 28.6385L56.5512 26.0864L61.2279 24.1061L60.7901 23.0743L54.9272 25.5569L58.445 33.865L64.4741 31.3112Z" fill="white"/>
<path d="M73.7476 29.2952C74.9796 29.1136 75.8858 28.759 76.4644 28.2312C77.0431 27.7035 77.2738 27.0519 77.1601 26.2781C77.0838 25.7588 76.8801 25.3363 76.5492 25.0071C76.2184 24.6779 75.7856 24.4522 75.2511 24.3317C75.2274 24.3266 75.2002 24.3232 75.1747 24.3181C75.5107 24.0738 75.767 23.7921 75.9316 23.468C76.1301 23.0794 76.1963 22.6586 76.1301 22.2072C76.03 21.5267 75.655 21.0109 75.0034 20.6596C74.3517 20.3083 73.41 20.2235 72.178 20.4051L67.4097 21.1076L68.7231 30.0334L73.7476 29.2935V29.2952ZM73.9021 26.9399C73.7544 27.0841 73.5135 27.1791 73.1826 27.2284L71.372 27.4948L71.1649 26.0914L72.9755 25.825C73.3064 25.7758 73.5644 25.7996 73.7476 25.8946C73.9309 25.9896 74.0395 26.1508 74.0735 26.3799C74.1074 26.609 74.0497 26.7956 73.9021 26.9399ZM72.0796 22.5703C72.419 22.5194 72.6769 22.5398 72.85 22.6263C73.0231 22.7129 73.1266 22.8673 73.1588 23.0896C73.1894 23.3017 73.1351 23.4782 72.9959 23.6156C72.8551 23.7531 72.6158 23.8481 72.2747 23.8973L70.8714 24.1043L70.6762 22.7773L72.0796 22.5703V22.5703Z" fill="white"/>
<path d="M97.345 25.9234C97.513 25.248 97.4961 24.6219 97.2941 24.0449C97.0905 23.468 96.7257 22.9725 96.1945 22.5567C95.6634 22.1427 94.9914 21.8338 94.1735 21.6302L89.9584 20.5849L87.8474 29.0898L84.4061 20.0198L81.4195 19.8722L77.0347 28.6894L80.1248 28.8421L80.8069 27.3013L84.2347 27.471L84.7607 29.0712L87.8169 29.2222L87.788 29.341L90.7406 30.074L91.2871 27.8731L92.0914 28.0734L93.0298 30.6442L96.1826 31.4265L95.0118 28.2702C95.5633 28.1413 96.0401 27.9054 96.4287 27.5507C96.875 27.1435 97.1821 26.6022 97.3501 25.9268L97.345 25.9234ZM81.7555 25.1547L82.7397 22.9283L83.4999 25.2412L81.7555 25.1547V25.1547ZM94.2617 24.3622C94.4111 24.5947 94.4484 24.8679 94.3703 25.1852C94.2906 25.5026 94.1311 25.7282 93.8901 25.8623C93.6492 25.9964 93.3233 26.0133 92.9144 25.9132L91.8385 25.6468L92.3476 23.5952L93.4235 23.8616C93.8324 23.9635 94.1107 24.1297 94.2617 24.3622V24.3622Z" fill="white"/>
<path d="M98.9926 32.5821C99.4558 33.0453 100.016 33.4271 100.671 33.7292C101.475 34.0991 102.254 34.2824 103.006 34.2824C103.757 34.2824 104.457 34.1144 105.103 33.7767L104.073 31.418C103.691 31.6114 103.315 31.7251 102.945 31.7574C102.575 31.7913 102.207 31.7234 101.84 31.5554C101.55 31.4231 101.311 31.2551 101.119 31.0549C100.927 30.8529 100.79 30.6238 100.703 30.3676C100.618 30.1114 100.586 29.8348 100.61 29.5378C100.633 29.2408 100.715 28.9371 100.859 28.6249C101.002 28.3126 101.18 28.0513 101.39 27.8392C101.601 27.6288 101.831 27.471 102.081 27.3692C102.33 27.2673 102.595 27.2215 102.872 27.2368C103.15 27.2504 103.432 27.3233 103.722 27.4557C104.09 27.6237 104.38 27.8596 104.596 28.1616C104.811 28.4637 104.971 28.8234 105.074 29.2392L107.535 28.4823C107.372 27.7645 107.046 27.1231 106.554 26.5563C106.062 25.9896 105.414 25.5229 104.609 25.153C103.953 24.8526 103.298 24.6762 102.646 24.6269C101.993 24.5777 101.373 24.6507 100.788 24.8441C100.202 25.0393 99.6764 25.3464 99.2098 25.7656C98.7431 26.1847 98.3647 26.7108 98.0745 27.3437C97.7844 27.9766 97.6316 28.6062 97.6181 29.2341C97.6045 29.8619 97.7148 30.4609 97.949 31.0311C98.1831 31.6013 98.5327 32.1188 98.996 32.5821H98.9926Z" fill="white"/>
<path d="M110.842 39.7617L112.15 37.8781L108.448 35.3022L109.125 34.3282L112.257 36.507L113.508 34.7083L110.376 32.5294L110.98 31.6623L114.545 34.1415L115.855 32.2579L109.834 28.0717L104.682 35.4787L110.842 39.7617Z" fill="white"/>
<path d="M116.418 45.141L118.056 43.4423L115.123 40.6153L119.748 35.8181L117.558 33.7072L111.297 40.2029L116.418 45.141Z" fill="white"/>
<path d="M118.721 43.6867C118.402 44.228 118.203 44.8083 118.124 45.4277C118.046 46.0454 118.093 46.675 118.27 47.3164C118.444 47.9578 118.75 48.5772 119.181 49.1779C119.608 49.7701 120.096 50.2503 120.645 50.6169C121.195 50.9834 121.775 51.2261 122.386 51.3483C122.997 51.4687 123.61 51.4636 124.226 51.333C124.842 51.2023 125.424 50.9393 125.975 50.5422C126.534 50.1401 126.97 49.67 127.285 49.1304C127.601 48.5908 127.798 48.0121 127.878 47.3927C127.956 46.7751 127.91 46.1472 127.735 45.5092C127.562 44.8711 127.26 44.2535 126.827 43.6527C126.4 43.0605 125.911 42.5786 125.359 42.2087C124.806 41.8387 124.224 41.5927 123.613 41.4722C123.002 41.3517 122.39 41.3551 121.779 41.4841C121.166 41.6131 120.583 41.8778 120.024 42.2782C119.473 42.6753 119.038 43.1437 118.719 43.6867H118.721ZM120.818 46.2117C120.866 45.9487 120.975 45.6941 121.141 45.4464C121.307 45.2003 121.533 44.9729 121.82 44.7676C122.105 44.5623 122.391 44.4198 122.678 44.34C122.965 44.2602 123.242 44.2399 123.506 44.2755C123.771 44.3128 124.017 44.3994 124.243 44.5385C124.47 44.6777 124.665 44.8609 124.832 45.0917C124.996 45.3225 125.11 45.5669 125.169 45.8248C125.229 46.0844 125.234 46.3441 125.185 46.6071C125.135 46.8701 125.028 47.1246 124.862 47.3724C124.696 47.6184 124.47 47.8458 124.183 48.0511C123.898 48.2565 123.612 48.4007 123.325 48.4788C123.038 48.5585 122.761 48.5789 122.497 48.5433C122.232 48.5059 121.986 48.4194 121.758 48.2802C121.531 48.1411 121.336 47.9578 121.17 47.727C121.005 47.498 120.891 47.2519 120.832 46.994C120.773 46.7343 120.767 46.4747 120.817 46.2117H120.818Z" fill="white"/>
<path d="M123.715 56.3644L127.467 54.7031L125.105 59.5003L126.118 61.786L126.199 61.7504L126.834 64.6691L128.499 64.9253L129.228 68.2784L127.82 69.2033L128.488 72.2764L136.466 66.5035L135.829 63.5814L126.35 61.6825L134.363 58.1326L133.162 55.4226L129.41 57.0839L131.772 52.2867L130.759 50.001L122.51 53.6544L123.712 56.3644H123.715ZM130.82 65.2817L133.226 65.6516L131.192 66.9888L130.82 65.2817V65.2817Z" fill="white"/>
<path d="M129.157 90.7523L128.916 92.0182L131.613 92.5324L131.195 94.7231C131.158 94.9182 131.131 95.1066 131.11 95.2899L128.027 96.6779L127.764 98.0575L131.139 96.5184C131.153 96.6067 131.163 96.6966 131.183 96.7815C131.324 97.3771 131.596 97.8658 131.999 98.2493C132.403 98.6328 132.926 98.8856 133.567 99.0078C134.209 99.13 134.789 99.0876 135.31 98.8805C135.831 98.6735 136.265 98.3189 136.615 97.8166C136.965 97.3143 137.214 96.6745 137.362 95.8991L138.02 92.4424L129.157 90.7523V90.7523ZM136.265 95.6513C136.111 96.4624 135.821 97.0428 135.395 97.394C134.969 97.7453 134.44 97.8624 133.807 97.7402C133.174 97.6197 132.722 97.316 132.451 96.8324C132.179 96.347 132.122 95.7005 132.276 94.8894L132.687 92.7377L136.674 93.4979L136.264 95.6496L136.265 95.6513Z" fill="white"/>
<path d="M127.336 99.3048L129.077 101.048L127.334 105.517L124.872 105.621L124.38 106.881L134.277 106.34L134.74 105.151L127.818 98.066L127.336 99.3031V99.3048ZM129.875 101.845L133.292 105.266L128.46 105.47L129.873 101.845H129.875Z" fill="white"/>
<path d="M123.018 108.933L122.369 110.031L125.056 111.619L128.314 117.706L128.964 116.607L126.34 111.691L131.906 111.624L132.609 110.437L125.722 110.53L123.018 108.933Z" fill="white"/>
<path d="M125.368 117.261C125.101 116.715 124.718 116.226 124.217 115.794C123.717 115.363 123.175 115.054 122.595 114.872C122.015 114.691 121.426 114.626 120.83 114.679C120.235 114.731 119.656 114.906 119.096 115.2C118.536 115.495 118.032 115.902 117.582 116.423C117.134 116.944 116.805 117.501 116.597 118.091C116.388 118.682 116.301 119.277 116.337 119.875C116.373 120.472 116.524 121.044 116.793 121.587C117.061 122.13 117.45 122.62 117.957 123.058C118.46 123.491 118.999 123.8 119.581 123.988C120.162 124.176 120.751 124.244 121.346 124.19C121.944 124.136 122.517 123.963 123.072 123.669C123.625 123.375 124.127 122.968 124.575 122.447C125.03 121.919 125.359 121.359 125.565 120.766C125.77 120.172 125.855 119.576 125.821 118.979C125.785 118.38 125.634 117.808 125.368 117.261V117.261ZM124.423 120.472C124.275 120.906 124.039 121.312 123.713 121.69C123.382 122.074 123.013 122.371 122.605 122.581C122.196 122.792 121.77 122.912 121.324 122.941C120.878 122.972 120.44 122.917 120.011 122.778C119.58 122.639 119.176 122.408 118.797 122.082C118.421 121.758 118.129 121.39 117.925 120.983C117.722 120.576 117.603 120.15 117.571 119.707C117.537 119.264 117.594 118.826 117.742 118.392C117.89 117.957 118.129 117.548 118.46 117.165C118.786 116.788 119.152 116.493 119.559 116.282C119.967 116.072 120.393 115.95 120.839 115.912C121.285 115.877 121.723 115.928 122.157 116.07C122.592 116.211 122.996 116.445 123.374 116.771C123.752 117.097 124.041 117.462 124.241 117.867C124.441 118.273 124.558 118.7 124.592 119.148C124.625 119.596 124.569 120.038 124.421 120.472H124.423Z" fill="white"/>
<path d="M107.93 125.118C107.129 125.651 106.529 126.281 106.126 127.002C105.724 127.723 105.541 128.481 105.578 129.271C105.616 130.063 105.88 130.83 106.376 131.573C106.871 132.316 107.477 132.858 108.193 133.197C108.909 133.537 109.678 133.659 110.499 133.565C111.321 133.472 112.132 133.16 112.933 132.625L116.097 130.516L111.095 123.009L107.93 125.116V125.118ZM112.376 131.65C111.753 132.065 111.137 132.305 110.526 132.371C109.916 132.437 109.344 132.344 108.813 132.087C108.281 131.833 107.827 131.422 107.45 130.857C107.078 130.299 106.876 129.724 106.842 129.133C106.808 128.541 106.941 127.976 107.238 127.438C107.535 126.898 107.993 126.423 108.616 126.007L110.644 124.657L114.404 130.299L112.376 131.65V131.65Z" fill="white"/>
<path d="M96.5439 130.891L96.9818 131.923L101.823 129.873L102.96 132.556L98.7924 134.321L99.22 135.329L103.386 133.564L104.467 136.116L99.7901 138.096L100.228 139.13L106.091 136.647L102.573 128.337L96.5439 130.891Z" fill="white"/>
<path d="M87.2705 132.907C86.0385 133.089 85.1323 133.443 84.5537 133.971C83.9751 134.499 83.7443 135.15 83.858 135.924C83.9343 136.442 84.138 136.866 84.4689 137.195C84.7998 137.524 85.2325 137.748 85.767 137.871C85.7907 137.876 85.8179 137.879 85.8433 137.884C85.5074 138.129 85.2528 138.41 85.0865 138.734C84.888 139.123 84.8218 139.544 84.888 139.995C84.9881 140.676 85.3631 141.191 86.0147 141.543C86.6664 141.894 87.6081 141.979 88.8401 141.797L93.6101 141.095L92.2967 132.169L87.2722 132.909L87.2705 132.907ZM87.116 135.262C87.2637 135.118 87.5046 135.023 87.8355 134.974L89.6461 134.708L89.8532 136.111L88.0426 136.377C87.7117 136.427 87.4537 136.403 87.2705 136.308C87.0872 136.213 86.9786 136.051 86.9446 135.821C86.9107 135.592 86.9684 135.405 87.116 135.262ZM88.9385 139.632C88.5991 139.683 88.3412 139.664 88.1681 139.576C87.995 139.488 87.8915 139.335 87.8593 139.114C87.8287 138.901 87.883 138.726 88.0222 138.588C88.163 138.451 88.4023 138.356 88.7434 138.307L90.1467 138.1L90.3419 139.427L88.9385 139.632V139.632Z" fill="white"/>
<path d="M80.8933 133.36L80.2111 134.901L76.7834 134.731L76.2573 133.131L73.2012 132.98L73.23 132.861L70.2774 132.128L69.731 134.329L68.9266 134.129L67.9882 131.558L64.8354 130.776L66.0063 133.932C65.4548 134.061 64.9779 134.297 64.5893 134.652C64.143 135.059 63.8359 135.6 63.6679 136.275C63.4999 136.951 63.5169 137.577 63.7188 138.154C63.9207 138.731 64.2873 139.226 64.8184 139.642C65.3478 140.056 66.0215 140.365 66.8394 140.569L71.0546 141.616L73.1655 133.111L76.6069 142.181L79.5934 142.328L83.9783 133.511L80.8882 133.358L80.8933 133.36ZM66.7563 137.842C66.607 137.609 66.5696 137.334 66.6477 137.017C66.7274 136.7 66.887 136.474 67.1279 136.34C67.3689 136.206 67.6947 136.189 68.1036 136.289L69.1795 136.555L68.6704 138.607L67.5946 138.341C67.1856 138.239 66.9073 138.072 66.7563 137.84V137.842ZM79.2625 137.049L78.2783 139.276L77.5181 136.963L79.2625 137.049V137.049Z" fill="white"/>
<path d="M62.0271 129.622C61.5639 129.159 61.0039 128.777 60.3489 128.476C59.5446 128.106 58.7657 127.923 58.0156 127.923C57.2656 127.923 56.5648 128.091 55.9183 128.429L56.9483 130.788C57.3301 130.594 57.7068 130.48 58.0767 130.447C58.4466 130.413 58.8149 130.48 59.1814 130.648C59.4716 130.781 59.7109 130.947 59.9026 131.149C60.0944 131.349 60.2318 131.578 60.3183 131.836C60.4032 132.093 60.4354 132.369 60.4117 132.666C60.3896 132.963 60.3065 133.269 60.1622 133.581C60.0197 133.893 59.8415 134.154 59.6311 134.366C59.4207 134.577 59.1899 134.733 58.9405 134.836C58.6893 134.94 58.4263 134.984 58.148 134.969C57.8714 134.955 57.588 134.882 57.2995 134.748C56.9313 134.58 56.6411 134.344 56.4239 134.042C56.2084 133.74 56.0489 133.38 55.9471 132.965L53.4866 133.722C53.6495 134.439 53.9753 135.081 54.4674 135.648C54.9595 136.213 55.6077 136.681 56.4121 137.051C57.0688 137.351 57.7221 137.526 58.3754 137.577C59.0287 137.626 59.6481 137.553 60.2335 137.36C60.8189 137.165 61.345 136.859 61.8116 136.44C62.2783 136.019 62.6567 135.495 62.9469 134.862C63.237 134.229 63.3898 133.599 63.4033 132.972C63.4169 132.344 63.3066 131.745 63.0724 131.175C62.8383 130.604 62.4887 130.087 62.0254 129.624L62.0271 129.622Z" fill="white"/>
<path d="M50.1758 122.44L48.8674 124.326L52.5701 126.9L51.893 127.874L48.7605 125.695L47.5099 127.494L50.6424 129.673L50.0383 130.54L46.4731 128.061L45.1631 129.944L51.1837 134.132L56.3356 126.723L50.1758 122.44Z" fill="white"/>
<path d="M44.5879 117.048L42.9503 118.745L45.8809 121.573L41.2551 126.369L43.4441 128.482L49.7092 121.987L44.5879 117.048Z" fill="white"/>
<path d="M42.297 118.515C42.6161 117.974 42.8146 117.394 42.8944 116.776C42.9724 116.158 42.9249 115.529 42.7484 114.887C42.5736 114.246 42.2682 113.627 41.8372 113.026C41.4096 112.434 40.9225 111.954 40.3727 111.587C39.8229 111.22 39.2426 110.978 38.6317 110.856C38.0208 110.735 37.4082 110.74 36.7922 110.871C36.1763 111.002 35.5942 111.265 35.0427 111.662C34.4844 112.064 34.0483 112.534 33.7327 113.073C33.4171 113.613 33.2202 114.192 33.1405 114.811C33.0624 115.429 33.1083 116.057 33.283 116.695C33.4561 117.331 33.7582 117.95 34.1909 118.551C34.6185 119.143 35.1072 119.625 35.6587 119.995C36.2119 120.365 36.7939 120.611 37.4048 120.732C38.0157 120.854 38.6283 120.849 39.2392 120.72C39.8518 120.593 40.4355 120.328 40.9938 119.926C41.5453 119.529 41.9797 119.06 42.2987 118.517L42.297 118.515ZM40.1997 115.992C40.1521 116.255 40.0435 116.51 39.8772 116.757C39.7109 117.004 39.4853 117.231 39.1985 117.436C38.9134 117.642 38.6266 117.784 38.3398 117.864C38.0531 117.944 37.7765 117.966 37.5117 117.928C37.247 117.891 37.001 117.804 36.7753 117.665C36.5479 117.526 36.3528 117.341 36.1865 117.112C36.0219 116.883 35.9082 116.637 35.8488 116.379C35.7894 116.119 35.7843 115.86 35.8335 115.597C35.8827 115.334 35.9896 115.079 36.1559 114.831C36.3222 114.584 36.5479 114.358 36.8347 114.153C37.1198 113.946 37.4065 113.803 37.6933 113.725C37.9801 113.645 38.2567 113.625 38.5214 113.661C38.7861 113.698 39.0322 113.784 39.2596 113.924C39.487 114.061 39.6821 114.246 39.8484 114.477C40.013 114.706 40.1267 114.952 40.1861 115.21C40.2455 115.47 40.2506 115.729 40.2014 115.994L40.1997 115.992Z" fill="white"/>
<path d="M37.3031 105.838L33.5512 107.499L35.9133 102.702L34.9003 100.416L34.8188 100.452L34.1842 97.5332L32.5195 97.2769L31.7898 93.9238L33.1983 92.999L32.5297 89.9259L24.5525 95.6988L25.1888 98.6209L34.6661 100.52L26.6533 104.07L27.8547 106.78L31.6066 105.118L29.2445 109.914L30.2575 112.2L38.5062 108.546L37.3048 105.836L37.3031 105.838ZM30.1981 96.9223L27.7919 96.5524L29.8265 95.2152L30.1981 96.9223V96.9223Z" fill="white"/>
</g>
<defs>
<clipPath id="clip0_406_22390">
<rect width="141.28" height="141.28" fill="white" transform="translate(10.1201 10.12)"/>
</clipPath>
</defs>
</svg>
