<svg width="161" height="161" viewBox="0 0 161 161" fill="none" xmlns="http://www.w3.org/2000/svg">
<g clip-path="url(#clip0_406_22991)">
<path d="M80.6815 159.222C52.6071 159.222 29.7673 136.383 29.7673 108.308C29.7673 100.382 31.5348 92.7996 35.0214 85.7598L25.9951 67.7164L34.9443 73.0249L35.2948 49.1396L41.3511 60.3941C41.9826 61.6963 42.5732 62.8067 43.1216 63.7539L42.5325 59.095L42.7319 58.4182C42.9993 57.5087 49.397 36.0164 57.7691 27.9992L64.9765 21.7677L63.3949 31.1671C63.3163 31.5206 63.2589 31.9315 63.2226 32.3968C64.6457 30.8423 66.3241 29.2244 68.2441 27.5566C76.9924 19.9549 77.2266 9.07504 77.2281 8.96627L77.5423 2.28003L82.8146 6.44042C89.0189 11.8486 91.797 17.2659 93.0162 21.3976C94.2307 20.5939 95.4544 19.8809 96.6765 19.2706L101.558 16.8308V22.2874C101.558 28.8739 103.783 36.5346 105.396 41.2222C106.105 39.8595 106.905 37.8413 107.639 34.8743L109.712 26.4886L113.868 34.0616C119.089 43.5713 119.485 54.4617 118.956 61.6963L128.035 55.1596L123.909 78.2397L135.422 78.3711L127.311 87.8446C130.155 94.3073 131.596 101.188 131.596 108.311C131.596 136.386 108.756 159.225 80.68 159.225" fill="#252E5B"/>
<path d="M130.206 108.308C130.206 135.598 108.084 157.721 80.7934 157.721C53.5031 157.721 31.3823 135.597 31.3823 108.308C31.3823 81.0193 53.5046 58.8955 80.7949 58.8955C108.085 58.8955 130.208 81.0178 130.208 108.308" fill="white"/>
<path d="M128.599 108.308C128.599 134.71 107.196 156.113 80.7935 156.113C54.3915 156.113 32.9897 134.71 32.9897 108.308C32.9897 81.9062 54.393 60.5029 80.795 60.5029C107.197 60.5029 128.6 81.9062 128.6 108.308" fill="#252E5B"/>
<path d="M54.6948 141.239C54.6585 141.054 54.7068 140.874 54.8398 140.697L59.121 135.059C59.254 134.884 59.4156 134.789 59.6044 134.774C59.7933 134.76 59.9821 134.824 60.1694 134.966C60.3507 135.103 60.464 135.268 60.5063 135.458C60.5486 135.648 60.5033 135.831 60.3704 136.008L56.0891 141.646C55.9562 141.821 55.7915 141.913 55.5966 141.924C55.4018 141.933 55.2129 141.869 55.0316 141.732C54.8443 141.59 54.731 141.425 54.6948 141.239Z" fill="white"/>
<path d="M56.136 106.266L43.0173 97.6262L28.7974 70.7528L36.4671 75.8181V53.7245L40.0186 61.0513C42.2665 65.689 44.0914 68.091 45.3634 69.3343L44.0824 59.2188L44.1926 58.8442C44.457 57.9483 50.7459 36.8246 58.828 29.0854L63.2845 24.8193L61.9461 30.8408C61.6107 32.3485 61.6485 34.4332 61.8343 36.4635C63.3495 34.3758 65.679 31.7925 69.2472 28.6911C78.5892 20.5743 78.7478 9.09315 78.7478 8.97834L78.7659 4.89197L81.8462 7.57341C89.0128 13.82 91.3559 20.035 92.0976 23.8932C93.4829 22.8584 95.2957 21.6499 97.3668 20.6135L100.072 19.26V22.2844C100.072 30.5689 103.42 40.3384 104.994 44.4761C106.096 43.328 107.741 40.7841 109.114 35.2308L110.263 30.5825L112.567 34.7806C118.483 45.5593 117.992 58.2203 117.137 64.9594L126.272 58.0677L122.101 79.7685L123.621 79.7428L132.791 79.6174L113.552 100.719L105.156 107.165L56.1345 106.263L56.136 106.266Z" fill="white"/>
<path d="M104.523 105.297L112.283 99.3378L128.503 81.5466L123.654 81.6131L119.832 81.6795L123.52 62.4879L114.501 69.292C114.501 69.292 119.024 50.4267 110.93 35.681C108.173 46.8313 104.079 47.2301 104.079 47.2301C104.079 47.2301 98.2024 33.5933 98.2024 22.2859C93.7685 24.5036 90.5402 27.608 90.5402 27.608C90.5402 27.608 91.427 18.4065 80.6181 8.98291C80.6181 8.98291 80.6181 21.2889 70.474 30.1021C60.3298 38.9154 60.9522 42.9066 60.9522 42.9066C60.9522 42.9066 59.1228 34.9242 60.1213 30.4345C52.3051 37.9184 45.9859 59.3699 45.9859 59.3699L47.6492 72.5067C47.6492 72.5067 44.013 73.5718 38.3359 61.864V76.1656L41.6624 81.4877L32.8491 75.6671L44.5025 96.6201L56.6347 105.296H104.525L104.523 105.297Z" fill="#F6A018"/>
<path d="M57.0367 57.2353C55.4399 56.1431 53.751 54.1173 53.751 50.7123C51.1345 58.5663 53.751 66.5743 53.751 66.5743C53.751 66.5743 49.9894 63.5968 50.1057 60.5815C48.4379 64.198 50.0876 73.1956 50.1525 73.4977C50.0906 73.2832 48.0376 65.5743 48.0376 59.4606C48.0376 54.427 57.996 35.7083 57.996 35.7083C52.195 49.2817 54.6196 55.1778 57.0367 57.2369" fill="#F6EB64"/>
<path d="M111.457 39.9486C111.457 39.9486 113.139 43.9881 113.794 50.549C114.477 57.3727 113.897 64.4381 110.922 70.6183C109.723 73.1109 108.384 74.2681 108.384 74.2681C108.384 74.2681 109.217 73.5445 110.809 68.1166C111.483 65.8204 111.847 62.6842 111.847 62.6842L108.255 66.6165C108.255 66.6165 112.536 60.2581 112.196 52.7334C110.741 57.8546 105.996 56.8274 105.996 56.8274C105.996 56.8274 113.855 58.69 111.457 39.9501" fill="#F6EB64"/>
<path d="M92.1328 31.2442C92.1328 31.2442 92.4078 28.4993 96.6543 25.6667C96.6543 30.8952 96.328 36.0133 101.883 48.4296C99.5699 45.0819 97.4413 39.0347 96.2449 35.249C95.7645 33.7307 95.4095 32.1808 95.1073 30.6172C94.8807 29.4434 94.3218 28.5416 92.1328 31.2442Z" fill="#F6EB64"/>
<path d="M45.5023 94.3889L56.6329 102.34L44.833 95.0113L36.8491 80.8532L47.8121 87.6044L40.4974 75.9874L39.2586 66.3447L41.437 75.3846L52.2202 91.5579L42.3011 87.4428L45.5023 94.3889Z" fill="#F6EB64"/>
<path d="M114.427 72.1714L121.158 66.3447L117.691 80.7007L117.093 83.157L125.778 82.7718L110.777 98.2381L103.962 102.562L110.279 97.9148L122.497 84.3429L115.054 84.4532L115.771 81.7415L118.525 69.9386L104.969 83.5709L114.427 72.1714Z" fill="#F6EB64"/>
<path d="M90.7139 66.6227C90.7139 66.6227 77.8883 52.8514 79.402 29.6686C68.8106 42.9912 69.2427 55.3833 69.2427 55.3833C69.2427 55.3833 71.4045 44.2874 75.8715 40.6859C75.8715 49.3315 79.402 63.7418 79.402 63.7418C79.402 63.7418 78.1904 54.2276 79.402 49.9086C79.402 56.1054 90.7139 66.6242 90.7139 66.6242" fill="#F6EB64"/>
<path d="M92.1328 78.9256C92.1328 78.9256 97.7676 73.9917 96.6195 68.3176C97.6755 70.1909 98.668 72.1955 99.4022 73.7455C100.197 75.4208 100.41 77.4617 99.9838 79.3561L99.2979 82.4167L99.5819 78.0841C99.6575 76.933 99.4566 75.7788 99.0064 74.7863L98.7073 74.1247L97.612 79.2609L97.7163 72.4267C97.7163 72.4267 97.4036 74.4343 92.1343 78.9241" fill="#F6EB64"/>
<path d="M62.0444 60.157C62.0444 60.157 61.1591 66.032 61.1621 71.271C61.1636 74.8936 62.774 78.3319 65.5733 80.6296C65.6156 80.6644 65.6382 80.6825 65.6382 80.6825L63.5339 75.6746L66.9812 76.1701C66.9812 76.1701 62.8677 74.6549 63.1728 70.3359C64.5778 72.4886 68.8514 70.5882 68.8514 70.5882C68.8514 70.5882 61.1606 73.7485 62.0444 60.1585" fill="#F6EB64"/>
<path d="M80.795 82.0738C95.2824 82.0738 107.028 93.8178 107.028 108.307C107.028 122.796 95.2839 134.539 80.795 134.539C66.3061 134.539 54.5622 122.796 54.5622 108.307C54.5622 93.8178 66.3061 82.0738 80.795 82.0738ZM80.795 80.5707C65.5025 80.5707 53.0605 93.0126 53.0605 108.305C53.0605 123.598 65.5025 136.04 80.795 136.04C96.0875 136.04 108.529 123.598 108.529 108.305C108.529 93.0126 96.0875 80.5707 80.795 80.5707Z" fill="white"/>
<path d="M107.026 108.305C107.026 122.793 95.2823 134.538 80.7934 134.538C66.3045 134.538 54.5605 122.794 54.5605 108.305C54.5605 93.8164 66.3045 82.0724 80.7934 82.0724C95.2823 82.0724 107.026 93.8164 107.026 108.305Z" fill="#F4941D"/>
<path d="M41.8378 123.994C41.7895 123.271 41.8801 122.586 42.1097 121.936C42.1686 121.779 42.2653 121.67 42.4013 121.608C42.5584 121.536 42.7412 121.539 42.9497 121.617C43.1158 121.679 43.2306 121.779 43.2926 121.915C43.3575 122.058 43.3545 122.267 43.282 122.543C43.1279 123.021 43.072 123.528 43.1158 124.066C43.1581 124.604 43.2926 125.121 43.5192 125.613C43.7352 126.086 43.9845 126.417 44.2655 126.609C44.548 126.799 44.835 126.828 45.1281 126.695C45.4362 126.554 45.619 126.297 45.6779 125.924C45.7369 125.551 45.684 124.988 45.5208 124.232C45.2625 123.043 45.2157 122.116 45.3773 121.45C45.5405 120.783 45.9242 120.311 46.533 120.033C46.9197 119.856 47.3231 119.827 47.7445 119.945C48.166 120.064 48.5663 120.315 48.9455 120.7C49.3247 121.084 49.6495 121.573 49.9214 122.167C50.2251 122.832 50.3867 123.474 50.4063 124.093C50.4245 124.711 50.3006 125.247 50.0317 125.699C49.9244 125.861 49.8157 125.967 49.7084 126.015C49.5256 126.089 49.3323 126.071 49.1238 125.957C49.0165 125.894 48.935 125.802 48.8806 125.68C48.7794 125.457 48.7824 125.235 48.8881 125.015C49.0437 124.693 49.1132 124.326 49.0981 123.914C49.083 123.501 48.9818 123.092 48.796 122.684C48.5633 122.176 48.3065 121.815 48.0225 121.604C47.74 121.392 47.462 121.347 47.1901 121.472C46.9182 121.596 46.7581 121.836 46.7082 122.191C46.6584 122.546 46.7112 123.101 46.8638 123.852C47.0285 124.684 47.1025 125.38 47.0859 125.942C47.0693 126.503 46.956 126.959 46.7445 127.311C46.533 127.663 46.2127 127.936 45.7837 128.133C45.3758 128.319 44.9604 128.362 44.5389 128.261C44.1159 128.16 43.7201 127.926 43.3485 127.56C42.9784 127.193 42.6581 126.717 42.3892 126.13C42.0689 125.429 41.8846 124.717 41.8348 123.997" fill="white"/>
<path d="M46.3922 132.804C46.3952 132.615 46.4814 132.447 46.6475 132.305L49.7837 129.618C50.6493 128.876 51.5406 128.542 52.4546 128.619C53.3685 128.695 54.2054 129.175 54.9623 130.059C55.4593 130.637 55.778 131.234 55.92 131.847C56.062 132.461 56.0197 133.059 55.7947 133.641C55.5681 134.222 55.1723 134.757 54.6042 135.243L51.4681 137.929C51.3004 138.073 51.1237 138.132 50.9363 138.106C50.749 138.08 50.5783 137.978 50.4242 137.799C50.2701 137.62 50.1961 137.434 50.1991 137.239C50.2037 137.044 50.2852 136.878 50.4469 136.739L51.9077 135.488L49.1281 132.245L47.6672 133.496C47.5056 133.635 47.3288 133.689 47.1355 133.663C46.9421 133.638 46.7684 133.535 46.6158 133.355C46.4617 133.175 46.3877 132.991 46.3907 132.802M52.8307 134.697L53.6102 134.029C54.2069 133.517 54.5408 132.997 54.6088 132.465C54.6783 131.935 54.4819 131.402 54.0211 130.864C53.0951 129.782 52.0316 129.757 50.8306 130.785L50.0511 131.453L52.8307 134.697Z" fill="white"/>
<path d="M69.48 140.348C69.5556 140.522 69.5465 140.709 69.4543 140.909L68.9332 142.032C68.492 142.981 67.8953 143.643 67.14 144.016C66.3862 144.391 65.5508 144.442 64.6353 144.173L63.7561 146.067C63.6669 146.261 63.528 146.385 63.3421 146.441C63.1548 146.498 62.9554 146.475 62.7409 146.376C62.5264 146.276 62.3829 146.14 62.3073 145.966C62.2318 145.793 62.2409 145.605 62.333 145.406L63.2122 143.511C62.4086 142.983 61.904 142.31 61.7016 141.496C61.4976 140.682 61.6185 139.797 62.0626 138.84L62.5838 137.716C62.6759 137.517 62.8134 137.39 62.9947 137.334C63.176 137.28 63.3739 137.303 63.5884 137.401C63.8029 137.5 63.9479 137.639 64.025 137.818C64.102 137.997 64.096 138.183 64.0068 138.375L63.4706 139.531C63.1261 140.273 63.0355 140.922 63.1971 141.48C63.3588 142.035 63.7651 142.465 64.4147 142.767C65.0643 143.069 65.6535 143.101 66.1837 142.866C66.714 142.631 67.1506 142.143 67.495 141.401L68.0313 140.245C68.1204 140.052 68.2594 139.928 68.4452 139.872C68.631 139.815 68.8319 139.837 69.0465 139.937C69.261 140.037 69.406 140.173 69.48 140.347" fill="white"/>
<path d="M70.3289 148.988C70.2096 148.841 70.1658 148.66 70.2005 148.442L70.8486 144.363C71.0269 143.237 71.4891 142.406 72.2354 141.872C72.9817 141.338 73.9289 141.162 75.0785 141.344C75.8323 141.463 76.4623 141.711 76.9683 142.085C77.4744 142.46 77.8294 142.943 78.0349 143.533C78.2403 144.123 78.2841 144.786 78.1663 145.525L77.5182 149.604C77.4835 149.822 77.3868 149.982 77.2267 150.083C77.0665 150.186 76.8701 150.217 76.6375 150.181C76.4049 150.143 76.2266 150.05 76.1027 149.899C75.9789 149.747 75.935 149.568 75.9683 149.358L76.2704 147.459L72.0526 146.788L71.7505 148.687C71.7172 148.897 71.619 149.054 71.4544 149.16C71.2897 149.266 71.0918 149.299 70.8592 149.263C70.6265 149.226 70.4498 149.134 70.3289 148.988ZM76.4608 146.258L76.6224 145.244C76.7463 144.468 76.6617 143.854 76.3716 143.406C76.0801 142.957 75.5861 142.678 74.8866 142.567C73.4802 142.344 72.6539 143.013 72.4061 144.575L72.2445 145.589L76.4623 146.259L76.4608 146.258Z" fill="white"/>
<path d="M82.0474 150.178C81.8918 150.071 81.7996 149.908 81.7739 149.689L81.2346 145.273C81.1077 144.235 81.3313 143.383 81.9084 142.718C82.4855 142.054 83.3466 141.65 84.4947 141.511C85.6428 141.371 86.5764 141.554 87.2955 142.06C88.0145 142.566 88.439 143.338 88.5659 144.377L89.1068 148.793C89.1339 149.012 89.0841 149.192 88.9587 149.334C88.8333 149.476 88.6536 149.562 88.4194 149.59C88.1852 149.619 87.9873 149.578 87.8272 149.467C87.6671 149.356 87.5734 149.195 87.5477 148.983L87.0039 144.533C86.9223 143.87 86.6806 143.383 86.2788 143.076C85.8769 142.77 85.3316 142.658 84.6457 142.741C83.9584 142.826 83.4568 143.064 83.1411 143.46C82.8254 143.856 82.7075 144.385 82.7891 145.048L83.333 149.498C83.3586 149.71 83.3073 149.888 83.1789 150.035C83.0505 150.181 82.8692 150.269 82.635 150.297C82.4009 150.326 82.206 150.287 82.0504 150.178" fill="white"/>
<path d="M95.0781 147.237C94.356 147.267 93.6717 147.158 93.0282 146.912C92.8741 146.85 92.7668 146.75 92.7079 146.613C92.6399 146.454 92.6475 146.271 92.7305 146.064C92.797 145.9 92.8982 145.788 93.0357 145.729C93.1807 145.667 93.3892 145.676 93.6626 145.756C94.1355 145.922 94.6416 145.99 95.1809 145.962C95.7202 145.933 96.2398 145.812 96.7384 145.599C97.2157 145.395 97.5541 145.155 97.752 144.879C97.9499 144.602 97.9862 144.315 97.8593 144.019C97.7263 143.708 97.4741 143.519 97.1039 143.449C96.7323 143.381 96.1673 143.419 95.4075 143.564C94.2125 143.791 93.285 143.815 92.6233 143.637C91.9601 143.457 91.4978 143.061 91.2365 142.445C91.0703 142.054 91.0507 141.65 91.1806 141.23C91.3105 140.812 91.5719 140.418 91.9661 140.049C92.3604 139.68 92.8574 139.368 93.4587 139.111C94.1309 138.824 94.7775 138.679 95.3954 138.676C96.0148 138.673 96.545 138.812 96.9906 139.091C97.1493 139.203 97.252 139.313 97.2988 139.422C97.3683 139.606 97.3441 139.8 97.2263 140.004C97.1598 140.109 97.0647 140.188 96.9423 140.241C96.7187 140.336 96.4967 140.328 96.2776 140.217C95.9604 140.053 95.5948 139.973 95.1824 139.978C94.77 139.982 94.3575 140.073 93.9451 140.25C93.4315 140.469 93.0644 140.717 92.8454 140.995C92.6263 141.273 92.5749 141.547 92.6928 141.824C92.8106 142.099 93.0463 142.265 93.3998 142.324C93.7533 142.383 94.3092 142.345 95.0645 142.211C95.9015 142.067 96.5994 142.011 97.1598 142.041C97.7203 142.072 98.1735 142.197 98.5194 142.418C98.8654 142.638 99.1313 142.965 99.3171 143.4C99.4938 143.812 99.5256 144.229 99.4138 144.647C99.302 145.067 99.0588 145.457 98.6826 145.818C98.3064 146.179 97.8215 146.487 97.2278 146.74C96.5193 147.042 95.8033 147.208 95.0812 147.238" fill="white"/>
<path d="M108.356 139.431C108.167 139.445 107.993 139.375 107.836 139.221L103.594 135.088C103.2 134.704 103.003 134.29 103.006 133.849C103.009 133.407 103.207 132.982 103.603 132.577L106.164 129.949C106.328 129.779 106.493 129.687 106.656 129.671C106.819 129.654 106.972 129.714 107.114 129.852C107.248 129.983 107.309 130.133 107.295 130.301C107.28 130.468 107.194 130.633 107.034 130.796L104.662 133.23C104.552 133.343 104.502 133.467 104.513 133.603C104.523 133.739 104.593 133.87 104.723 133.997L105.981 135.224L108.081 133.068C108.245 132.899 108.41 132.807 108.573 132.79C108.736 132.774 108.889 132.834 109.031 132.971C109.165 133.103 109.226 133.252 109.212 133.42C109.197 133.588 109.111 133.752 108.952 133.916L106.853 136.071L108.931 138.097C109.084 138.245 109.155 138.417 109.146 138.611C109.137 138.806 109.051 138.987 108.886 139.156C108.721 139.325 108.545 139.416 108.356 139.43" fill="white"/>
<path d="M112.421 134.801C112.173 134.834 111.954 134.774 111.764 134.621C111.561 134.46 111.448 134.253 111.422 134C111.397 133.748 111.471 133.515 111.643 133.301C111.815 133.086 112.027 132.965 112.279 132.941C112.531 132.916 112.755 132.982 112.951 133.139C113.142 133.292 113.249 133.491 113.273 133.737C113.297 133.984 113.223 134.215 113.051 134.429C112.879 134.644 112.669 134.768 112.421 134.801Z" fill="white"/>
<path d="M115.533 130.351C114.918 130.754 114.247 130.95 113.522 130.938C112.797 130.928 112.053 130.707 111.294 130.28C110.532 129.852 109.958 129.329 109.57 128.713C109.182 128.097 108.997 127.421 109.017 126.689C109.037 125.956 109.263 125.205 109.695 124.438C110.055 123.8 110.496 123.273 111.02 122.855C111.544 122.436 112.061 122.2 112.572 122.143C112.727 122.122 112.863 122.145 112.98 122.211C113.152 122.308 113.253 122.487 113.286 122.749C113.301 122.865 113.274 122.986 113.205 123.11C113.147 123.213 113.067 123.303 112.964 123.38C112.862 123.457 112.75 123.509 112.629 123.53C112.23 123.613 111.884 123.775 111.591 124.015C111.298 124.256 111.025 124.599 110.774 125.045C110.354 125.793 110.257 126.506 110.484 127.184C110.711 127.862 111.239 128.435 112.069 128.902C112.89 129.366 113.65 129.515 114.347 129.352C115.043 129.189 115.604 128.731 116.028 127.977C116.515 127.113 116.649 126.282 116.431 125.483C116.351 125.158 116.363 124.908 116.463 124.729C116.533 124.605 116.637 124.516 116.777 124.46C117.004 124.38 117.199 124.386 117.364 124.479C117.487 124.548 117.581 124.66 117.648 124.815C117.859 125.323 117.916 125.908 117.823 126.572C117.729 127.237 117.49 127.908 117.108 128.586C116.672 129.361 116.147 129.949 115.531 130.352" fill="white"/>
<path d="M119.219 123.172C118.994 123.282 118.767 123.295 118.539 123.212C118.296 123.123 118.121 122.965 118.017 122.734C117.912 122.502 117.908 122.259 118.001 121.999C118.095 121.741 118.258 121.56 118.488 121.455C118.719 121.351 118.952 121.342 119.189 121.428C119.418 121.511 119.583 121.667 119.686 121.892C119.789 122.117 119.792 122.36 119.698 122.619C119.604 122.877 119.444 123.063 119.221 123.173" fill="white"/>
<path d="M44.6931 110.742C44.613 110.611 44.545 110.475 44.4891 110.334C44.4801 110.313 44.4725 110.292 44.465 110.272C44.0858 109.271 44.3245 108.141 45.0526 107.357L46.4077 105.899L44.7414 107.447C44.5737 107.603 44.3819 107.73 44.1704 107.816C44.1704 107.816 44.1674 107.816 44.1659 107.816C43.4589 108.103 42.6612 108.1 41.9542 107.808C41.7473 107.722 41.5599 107.598 41.3953 107.446L39.729 105.897L41.1234 107.399C41.6098 107.922 41.8802 108.613 41.8591 109.326C41.8591 109.349 41.8575 109.373 41.856 109.396C41.8213 110.021 41.5645 110.614 41.143 111.076L39.7532 112.6L41.2548 111.179C41.7473 110.713 42.3969 110.444 43.0736 110.446C43.0948 110.446 43.1159 110.446 43.1371 110.446C43.7882 110.461 44.4076 110.727 44.8819 111.172L46.3911 112.593L44.6931 110.742Z" fill="white"/>
<path d="M120.43 110.742C120.35 110.611 120.282 110.475 120.226 110.334C120.217 110.313 120.21 110.292 120.202 110.272C119.823 109.271 120.062 108.141 120.79 107.357L122.145 105.899L120.479 107.447C120.311 107.603 120.119 107.73 119.908 107.816C119.908 107.816 119.905 107.816 119.903 107.816C119.196 108.103 118.399 108.1 117.692 107.808C117.485 107.722 117.297 107.598 117.133 107.446L115.466 105.897L116.861 107.399C117.347 107.922 117.618 108.613 117.596 109.326C117.596 109.349 117.595 109.373 117.593 109.396C117.559 110.021 117.302 110.614 116.88 111.076L115.49 112.6L116.992 111.179C117.485 110.713 118.134 110.444 118.811 110.446C118.832 110.446 118.853 110.446 118.874 110.446C119.525 110.461 120.145 110.727 120.619 111.172L122.128 112.593L120.43 110.742Z" fill="white"/>
<path d="M101.512 112.472C101.512 111.87 101.514 111.488 101.512 111.104C101.499 108.361 100.613 105.708 100.714 102.944C100.764 101.578 100.544 100.203 100.438 98.732C101.976 98.8755 103.481 99.0175 105.077 99.1671C103.527 96.9283 101.731 95.1351 99.4636 93.851C98.9697 93.5716 98.6509 93.2604 98.5512 92.6667C98.444 92.0322 98.3246 91.3962 98.0995 90.7934C97.6448 89.5789 97.0405 88.4247 96.4876 87.2494C96.3758 87.2539 96.3668 87.2539 96.255 87.2585C96.1689 87.4851 96.0813 87.7117 95.9952 87.9398C95.6824 88.7646 95.3622 89.5879 95.06 90.4158C94.8652 90.9475 94.5781 91.0684 94.0298 90.8357C92.2245 90.0698 90.3301 89.6453 88.3753 89.4852C87.9085 89.4474 87.4024 89.4761 86.9855 89.3024C85.6108 88.7268 84.2693 88.0667 82.9112 87.4503C82.452 87.2418 81.9761 87.0651 81.4126 86.834C83.0744 85.4441 84.6455 84.1314 86.2966 82.7506C85.647 82.7506 85.1107 82.7023 84.5865 82.7582C82.0516 83.0301 79.7025 83.9123 77.4547 85.0619C76.799 85.3973 76.2189 85.4668 75.5406 85.2387C74.9394 85.0363 74.3306 84.8625 73.7021 84.7704C72.5223 84.5967 71.3319 84.4939 70.0282 84.3474C70.1098 84.7568 70.1234 84.9834 70.2004 85.1873C70.5479 86.1194 70.8878 87.056 71.2866 87.967C71.4437 88.325 71.4165 88.5108 71.1128 88.7631C70.4512 89.3115 69.7925 89.8749 69.2049 90.5004C68.4616 91.292 67.7894 92.153 67.0869 92.9824C67.3362 93.0806 67.4691 93.061 67.593 93.0202C69.1611 92.5035 70.7306 91.9959 72.2912 91.4596C72.7942 91.2874 73.0405 91.4566 73.3245 91.8872C74.2188 93.2437 75.1811 94.5565 76.1056 95.895C76.1721 95.9917 76.2265 96.1216 76.2416 96.2455L76.7069 96.1216C77.4018 94.2106 78.0952 92.2981 78.8399 90.4067C78.9336 90.171 79.3249 89.9203 79.5923 89.9052C81.8975 89.7752 84.2043 89.6755 86.5127 89.6242C86.9205 89.6151 87.4296 89.7677 87.7318 90.0305C89.3708 91.4551 90.954 92.9446 92.5705 94.3964C92.9119 94.7031 92.8469 94.9448 92.6067 95.259C91.5704 96.6035 90.5446 97.9586 89.5159 99.3091C89.3829 99.4828 89.2575 99.6611 89.0491 99.9451C90.2168 99.7291 91.2486 99.513 92.288 99.3529C93.4285 99.1762 94.5736 99.0251 95.7232 98.9194C95.9483 98.8982 96.2943 99.0689 96.4212 99.2593C97.7143 101.199 98.9636 103.167 100.251 105.112C100.52 105.518 100.556 105.861 100.353 106.302C99.3232 108.541 98.314 110.787 97.3064 113.037C97.1463 113.393 96.9287 113.517 96.5209 113.503C94.3938 113.429 92.2668 113.402 90.1398 113.331C89.8769 113.322 89.5431 113.262 89.3467 113.109L89.1805 113.352C89.389 113.411 89.5959 113.552 89.7546 113.703C91.2063 115.094 92.6354 116.51 94.0977 117.89C94.3697 118.147 94.4709 118.292 94.279 118.667C92.5282 122.098 90.3437 125.223 87.7212 128.039C87.4961 128.281 87.0882 128.444 86.7498 128.473C86.0081 128.538 85.2573 128.492 84.511 128.492C84.511 128.468 84.511 128.488 84.511 128.488V128.418C84.3071 128.418 84.1031 128.411 83.9007 128.418C82.1105 128.495 80.547 127.918 79.1013 126.879C78.3142 126.314 77.4426 125.861 76.5936 125.388C76.3232 125.238 76.1736 124.936 76.2189 124.63C76.5362 122.487 76.8292 120.342 77.1344 118.199C77.148 118.1 77.1827 118.005 77.2341 117.921C77.2477 117.899 77.2598 117.878 77.2734 117.857L76.799 117.744C76.8005 117.955 76.7008 118.232 76.5634 118.342C74.9953 119.605 73.4045 120.839 71.7987 122.052C71.6537 122.163 71.2745 122.15 71.1234 122.037C69.3741 120.714 67.6398 119.369 65.9222 118.005C65.691 117.821 65.5082 117.522 65.404 117.238C64.8843 115.816 64.3768 114.39 63.9175 112.949C63.8314 112.68 63.8843 112.271 64.0384 112.037C65.256 110.207 66.8981 108.781 68.5704 107.39C68.6233 107.346 68.6837 107.313 68.7411 107.284L68.5477 106.853C67.7304 107.056 66.8845 107.154 65.9947 107.154C64.904 107.154 63.8133 107.4 62.6788 107.541C62.5806 106.781 62.5156 106.06 62.3917 105.352C61.9355 102.763 61.9461 100.17 62.3207 97.5764C62.357 97.3256 62.4522 97.0189 62.6304 96.8633C63.8525 95.7862 65.1034 94.7423 66.3467 93.6894C66.5083 93.5519 66.6836 93.4281 67.0008 93.1833H63.1244C63.5912 91.4717 64.0323 89.8614 64.4719 88.251C60.7768 89.884 54.7946 100.333 55.7553 102.954C56.8581 101.895 58.0621 100.74 59.2964 99.5553C60.239 100.725 61.0427 101.722 61.6923 102.527C60.8841 104.356 60.1136 106.036 59.4081 107.745C59.2344 108.165 59.0743 108.403 58.603 108.502C57.3174 108.769 56.0605 109.141 54.9033 109.946C55.0831 110.178 55.2115 110.425 55.4094 110.589C56.0529 111.123 56.7025 111.654 57.3899 112.129C57.6966 112.34 57.8506 112.71 57.7978 113.079C57.5485 114.819 57.3476 116.569 57.1965 118.321C57.127 119.138 57.5062 119.827 58.0818 120.41C59.1528 118.68 60.1816 117.017 61.2285 115.327C62.6924 116.198 64.0504 117.004 65.404 117.819C65.5113 117.884 65.6034 118.01 65.6563 118.128C66.4313 119.862 67.1926 121.604 67.9722 123.335C68.1504 123.729 68.0703 123.975 67.6746 124.137C66.5884 124.581 65.5082 125.036 64.4191 125.469C64.2982 125.518 64.1743 125.559 64.0474 125.592C63.3797 125.77 62.9839 125.891 62.2135 126.119C64.7741 127.396 67.3513 127.986 70.0388 128.115C70.4406 128.134 70.8092 128.343 71.0464 128.669C72.2383 130.304 73.4816 131.903 74.7641 133.468C75.0391 133.804 75.5527 133.943 76.086 134.246C75.9757 132.21 75.879 130.418 75.7793 128.568C77.5921 128.464 79.2599 128.364 80.9292 128.279C81.0516 128.273 81.2208 128.343 81.3038 128.433C82.245 129.459 83.1741 130.495 84.2179 131.653C83.2375 132.447 82.0849 133.384 80.9171 134.33C85.2528 135.46 96.3199 131.094 98.4515 127.338C96.1991 127.692 94.0313 128.032 91.6882 128.399C91.6882 126.686 91.6731 125.13 91.7094 123.574C91.7139 123.407 91.9843 123.173 92.1807 123.099C93.9572 122.439 95.758 121.844 97.5179 121.143C97.9243 120.981 98.382 120.993 98.7687 121.197C99.8897 121.788 101.045 122.311 102.187 122.862C102.283 122.797 102.305 122.78 102.402 122.715C102.277 121.143 102.135 119.573 102.042 117.999C102.027 117.733 102.154 117.378 102.341 117.194C103.808 115.754 105.08 114.174 105.973 112.314C106.236 111.766 106.432 111.186 106.683 110.562C104.919 111.212 103.283 111.814 101.512 112.467V112.472Z" fill="#E36C24"/>
<path d="M79.5928 107.205H91.1253C91.1253 107.205 89.9077 115.153 80.8104 114.138C83.6852 113.529 85.714 110.417 85.714 110.417C85.714 110.417 81.8588 110.518 79.5928 107.204V107.205Z" fill="#A61916"/>
<path d="M85.6794 105.751H91.7327C91.7327 105.751 90.3127 95.774 80.3362 95.774C78.2061 95.774 73.8765 96.5188 71.8145 99.3921C75.3313 97.3285 83.5841 96.4161 85.6809 105.751H85.6794Z" fill="#A61916"/>
<path d="M91.7325 108.795C91.7325 108.795 89.3985 115.017 82.466 115.017C75.5335 115.017 73.4699 110.52 73.4699 107.205C73.4699 103.891 75.961 100.762 79.7271 100.762C80.8088 100.762 81.8919 100.948 82.8044 101.524C81.9252 100.509 80.132 98.8181 77.0547 98.8181C73.9775 98.8181 68.3291 100.273 68.3291 107.678C68.3291 115.084 74.9232 119.244 80.0308 119.244C86.3212 119.244 91.7325 114.747 91.7325 108.795Z" fill="#A61916"/>
</g>
<defs>
<clipPath id="clip0_406_22991">
<rect width="109.427" height="156.942" fill="white" transform="translate(25.9956 2.28003)"/>
</clipPath>
</defs>
</svg>
