<svg width="1000" height="1000" viewBox="0 0 1000 1000" fill="none" xmlns="http://www.w3.org/2000/svg">
<g clip-path="url(#clip0_1_1566)">
<path d="M499.286 912.844C727.531 912.981 912.759 728.176 912.828 499.817C912.896 271.27 728.251 86.1045 499.474 86.156C268.758 86.2247 86.2239 273.518 86.1724 499.028C86.1037 727.593 270.749 912.707 499.286 912.844Z" fill="#013334"/>
<path d="M499.286 920C266.785 919.88 78.9314 731.54 79 499.011C79.0687 269.605 264.76 79.0515 499.457 79C732.198 78.9485 920.051 267.323 919.983 499.817C919.914 732.123 731.477 920.137 499.268 920H499.286ZM499.286 90.4291C273.803 90.4291 90.7023 273.363 90.4449 498.891C90.1875 725.139 273.031 908.399 499.251 908.622C725.077 908.845 908.452 725.654 908.521 499.766C908.589 273.604 725.472 90.4291 499.268 90.4463L499.286 90.4291Z" fill="white"/>
<path d="M499.268 784.962C338.285 784.481 212.718 653.836 212.889 498.17C213.061 342.779 338.577 212.185 499.491 212.082C657.78 211.979 785.733 340.565 785.579 499.011C785.424 656.873 657.18 784.962 499.285 784.962H499.268ZM466.324 596.81C466.615 596.759 466.924 596.707 467.216 596.673C468.486 599.711 469.704 602.765 471.008 605.785C482.178 631.784 498.393 653.836 521.489 670.568C526.98 674.549 532.916 677.243 539.505 678.736C549.56 681.001 559.77 681.756 570.048 681.911C585.319 682.151 600.505 680.967 615.707 679.663C642.458 677.363 668.573 671.906 694.346 664.578C697.606 663.652 699.922 662.004 701.981 659.379C732.764 620.115 751.089 575.788 756.494 526.142C759.257 500.727 758.382 475.449 753.526 450.394C742.098 391.584 713.615 342.504 668.676 302.931C666.926 301.387 665.124 299.928 663.117 298.247C660.148 301.25 657.969 304.39 656.219 307.857C651.294 317.655 649.802 328.158 650.231 338.952C650.745 352.149 650.385 365.294 648.154 378.319C646.181 389.902 642.698 400.937 635.629 410.564C635.354 410.924 635.285 411.422 634.942 412.297C645.855 409.689 654.126 404.146 660.148 395.274C664.095 389.456 666.72 383.038 668.076 376.208C669.414 369.481 670.22 362.651 671.319 355.564C673.772 364.281 674.167 372.879 672.331 381.528C668.951 397.522 658.295 408.127 645.083 416.982C650.282 419.814 655.361 419.419 660.457 418.578C673.326 416.467 686.59 424.121 691.034 436.597C684.634 431.723 677.427 430.779 670.049 430.471C659.616 430.024 649.321 431.329 639.009 432.77C632.814 433.645 627.255 435.705 622.125 439.205C614.232 444.594 606.116 449.674 598.428 455.354C579.794 469.134 562.55 484.613 545.271 500.023C544.705 500.538 544.241 501.173 543.675 501.808C544.001 501.928 544.138 502.048 544.258 502.014C544.928 501.825 545.58 501.636 546.232 501.396C559.547 496.351 573.308 493.537 587.55 492.782C593.47 492.473 599.441 491.718 605.258 490.516C617.063 488.079 627.238 482.605 633.896 472.206C636.847 467.589 638.837 462.338 641.205 457.344C641.771 456.143 642.149 454.856 642.818 452.986C643.041 454.05 643.178 454.41 643.161 454.77C642.578 466.148 640.055 477.011 633.861 486.724C628.182 495.613 620.374 501.671 609.976 504.159C608.93 504.417 607.9 504.76 605.961 505.326C609.427 505.961 612.001 506.544 614.592 506.905C621.884 507.917 629.177 508.707 636.521 507.317C644.294 505.858 650.162 501.842 653.251 494.498C654.966 490.448 656.391 486.175 657.283 481.867C659.702 470.061 661.744 458.185 663.975 446.344C664.129 445.521 664.558 444.731 664.85 443.942C665.416 454.685 667.595 464.981 669.534 475.329C670.752 481.85 671.885 488.457 672.125 495.064C672.468 504.811 667.921 510.903 658.844 514.524C657.626 515.005 656.373 515.451 655.138 515.914C656.202 516.584 657.128 516.687 658.021 516.566C664.318 515.691 670.718 515.176 676.895 513.752C689.044 510.972 700.334 506.115 709.977 497.981C716.274 492.679 720.959 486.278 722.692 478.023C722.812 477.474 723.121 476.976 723.515 476.067C726.072 481.164 726.844 485.952 725.883 491.048C724.734 497.123 721.662 502.151 717.476 506.527C712.225 512.036 705.842 515.897 698.893 518.849C688.426 523.276 677.444 525.404 666.154 525.919C651.535 526.605 637.07 525.782 623 521.32C614.661 518.677 606.133 516.738 597.433 515.897C585.028 514.696 572.81 515.468 561.057 520.205C558.191 521.354 556.716 522.933 556.115 526.039C554.622 533.83 552.134 541.312 548.171 548.245C545.459 552.999 542.079 557.186 537.361 560.121C536.52 560.653 535.507 560.927 534.221 561.476C532.848 535.049 524.612 511.384 510.216 489.83C515.964 481.318 522.501 473.853 529.931 466.422C528.764 465.53 527.889 465.05 527.237 464.363C522.604 459.404 517.817 454.564 513.493 449.347C508.963 443.89 505.428 437.747 503.215 430.934C499.989 420.929 500.95 411.577 507.23 402.893C509.581 399.65 511.657 396.183 513.579 392.665C523.754 374.149 525.006 354.997 517.028 335.417C514.522 329.273 511.399 323.37 508.585 317.347C508.156 316.437 507.865 315.459 507.504 314.498C507.779 314.326 508.071 314.137 508.345 313.966C513.87 320.676 519.55 327.283 524.869 334.164C527.306 337.322 529.296 340.874 531.098 344.461C536.88 355.993 536.949 367.628 531.269 379.263C530.823 380.189 530.463 381.168 529.776 382.815C548.119 378.216 561.846 368.091 572.982 353.899C573.034 354.671 572.931 355.323 572.708 355.924C570.614 361.656 568.607 367.405 566.376 373.068C564.849 376.929 563.27 380.807 561.28 384.428C554.897 396.063 544.825 400.988 531.733 400.096C531.183 400.062 530.617 400.044 530.068 399.993C527.443 399.718 525.624 400.765 524.2 403.03C518.829 411.525 516.959 420.655 519.19 430.488C521.901 442.449 528.816 451.39 539.094 458.082C540.415 457.07 541.479 456.195 542.594 455.405C546.403 452.642 550.007 449.468 554.108 447.237C564.523 441.574 573.274 434.126 580.48 424.739C587.361 415.781 593.521 406.428 596.558 395.394C600.316 381.751 598.995 368.194 595.391 354.74C591.496 340.188 585.113 326.682 577.769 313.588C577.083 312.353 576.431 311.1 575.779 309.847L576.5 309.47C585.92 321.98 594.962 334.748 601.671 348.974C603.387 352.595 604.897 356.336 606.219 360.128C611.658 375.762 611.16 391.224 604.211 406.274C601.363 412.417 598.154 418.475 594.396 424.07C588.991 432.101 582.9 439.686 577.1 447.46C576.242 448.61 575.367 449.759 574.492 450.909C575.316 451.098 575.796 450.909 576.208 450.635C589.008 441.78 601.174 432.17 611.829 420.758C619.722 412.297 626.706 403.151 631.03 392.305C632.66 388.221 634.222 383.913 634.633 379.589C635.423 371.609 635.663 363.526 635.543 355.512C635.354 344.255 633.81 333.152 630.035 322.443C624.064 305.523 613.168 293.373 595.992 287.349C595.323 287.109 594.722 286.68 594.087 286.337C618.212 289.289 636.109 300.34 643.607 324.863C645.512 313.091 650.008 303.103 660.028 296.325C572.742 223.254 435.301 220.508 344.377 291.76C359.871 297.337 367.747 308.783 369.926 325.549C370.612 323.696 371.041 322.838 371.247 321.928C373.495 312.25 379.243 305.866 388.629 302.348C395.63 299.74 402.322 296.359 409.168 293.339C409.665 293.115 410.249 293.081 411.639 292.755C410.009 294.334 409.013 295.295 408.035 296.256C404.089 300.151 400.057 303.961 396.213 307.96C386.93 317.638 381.182 329.067 379.226 342.436C377.664 353.075 377.887 363.681 378.488 374.372C378.917 381.871 380.839 388.821 384.03 395.514C387.582 402.945 392.232 409.655 397.551 415.901C409.151 429.527 422.981 440.578 437.634 450.703C438.012 450.961 438.492 451.064 438.921 451.235C438.269 449.588 437.325 448.404 436.364 447.237C426.927 435.602 417.456 423.984 410.06 410.907C406.8 405.141 403.934 399.066 401.721 392.854C397.311 380.447 398.615 368.314 404.912 356.713C408.636 349.832 413.44 343.757 418.691 338.008C419.274 337.373 420.029 336.893 421.059 336.035C420.973 337.133 420.956 337.682 420.87 338.214C419.412 347.378 417.627 356.49 416.529 365.689C413.114 394.622 424.851 417.737 445.012 437.884C447.346 434.521 449.697 431.294 451.893 427.965C461.897 412.778 469.035 396.338 473.17 378.611C473.753 376.139 473.616 374.046 471.866 372.055C469.395 369.258 467.25 366.135 464.642 363.492C458.259 357.005 450.898 352.972 441.255 355.323C447.947 350.261 455.153 348.219 462.943 352.029C466.358 353.71 469.292 356.387 472.381 358.704C473.444 359.511 474.319 360.575 475.572 361.793C476.653 358.927 476.996 356.507 476.173 353.865C473.462 345.13 470.768 336.395 468.228 327.626C464.608 315.133 466.461 303.395 473.891 292.755C477.442 287.658 481.612 282.973 485.541 278.151C486.176 277.362 487.051 276.761 487.823 276.075C487.875 277.499 487.429 278.632 487.086 279.781C484.872 287.349 482.436 294.866 480.565 302.537C477.254 316.059 478.06 328.982 487.257 340.359C487.686 340.891 488.012 341.526 488.372 342.11C490.929 346.331 492.611 350.844 492.868 355.787C493.692 371.283 491.839 386.247 483.877 399.942C481.372 404.249 478.695 408.47 476.155 412.761C470.493 422.302 464.865 431.843 459.254 441.402C458.568 442.569 458.019 443.839 457.247 445.332C471.505 454.89 484.392 465.77 495.236 478.898C506.218 492.164 514.608 506.888 520.356 523.139C526.362 540.128 530.892 566.933 528.695 572.099C524.268 565.869 519.945 559.417 515.243 553.273C509.237 545.414 502.288 538.464 493.966 532.989C485.009 527.103 475.315 523.894 464.505 524.786C462.446 524.958 460.764 524.426 459.031 523.414C453.969 520.479 448.513 518.471 442.799 517.184C430.256 514.37 417.713 515.073 405.256 517.596C400.108 518.643 394.926 519.793 389.984 521.56C373.924 527.309 357.675 527.464 341.237 523.946C320.698 519.552 302.046 511.144 285.934 497.518C281.147 493.468 276.908 488.886 273.82 483.377C273.442 482.691 273.322 481.85 273.116 481.198C278.676 484.956 283.875 488.903 289.469 492.181C302.801 500.006 317.077 505.721 332.074 509.479C339.486 511.332 347.002 512.654 354.689 512.208C356.559 512.105 358.395 511.693 360.248 511.435C359.665 510.732 359.133 510.594 358.601 510.509C344.823 508.158 331.782 503.661 319.393 497.243C308.481 491.597 298.426 484.767 290.344 475.363C285.951 470.249 282.519 464.603 280.906 457.997C280.58 456.624 280.478 455.199 280.151 452.865C282.502 454.685 284.047 455.817 285.539 457.001C295.2 464.672 304.774 472.463 314.538 479.997C324.764 487.874 335.574 494.909 347.379 500.246C362.599 507.111 378.419 510.406 395.132 508.055C399.096 507.488 403.162 507.145 407.555 505.051C392.472 502.357 379.02 497.312 366.168 490.636C356.165 485.437 346.744 479.379 338.817 471.228C335.111 467.418 331.936 463.231 329.998 458.254C329.397 456.744 329.122 455.114 328.693 453.535C333.361 461.515 340.138 466.937 347.791 471.348C351.618 473.561 355.581 475.586 359.665 477.32C381.439 486.535 404.278 491.357 427.802 492.919C441.186 493.794 454.124 496.454 466.684 501.139C467.799 501.551 468.949 501.894 471.042 502.563C469.567 500.899 468.812 499.955 467.971 499.097C455.874 486.775 442.61 475.861 427.665 467.178C411.724 457.928 395.578 449.021 379.5 440.029C378.316 439.36 376.961 438.897 375.623 438.605C367.506 436.854 359.408 434.847 351.206 433.577C341.58 432.084 331.765 430.23 322.654 436.117C328.591 423.864 338.217 417.6 352.733 418.149C350.811 416.69 349.73 415.85 348.632 415.026C342.3 410.255 336.398 405.038 331.405 398.843C320.835 385.75 318.776 370.905 322.362 354.894C322.448 354.534 322.825 354.259 323.254 353.693C323.941 355.238 324.575 356.593 325.159 357.966C329.105 367.456 333.738 376.603 339.709 384.994C345.234 392.751 351.72 399.513 359.837 404.609C365.602 408.23 371.762 410.873 379.346 412.469C377.012 409.586 375.245 407.338 373.409 405.141C366.906 397.35 363.097 388.392 362.136 378.336C361.552 372.141 361.244 365.877 361.415 359.665C361.741 348.236 360.78 336.944 358.584 325.772C357.023 317.861 354.843 310.139 351.068 302.966C349.009 299.036 346.59 295.381 342.764 292.549C341.185 293.75 339.761 294.814 338.354 295.93C265.515 353.899 228.984 446.07 243.741 539.15C251.462 587.887 271.727 630.806 303.831 668.217C305.546 670.224 307.502 671.477 310.025 672.061C323.923 675.235 337.788 678.685 351.738 681.585C368.845 685.137 386.141 687.522 403.626 688.381C414.315 688.895 424.92 688.295 435.472 686.201C442.713 684.76 447.723 680.658 451.327 674.549C452.511 672.524 453.523 670.379 454.381 668.199C456.406 663 457.401 657.56 457.744 651.982C457.864 650.112 458.002 648.258 458.122 646.388C459.563 647.641 460.266 648.945 460.97 650.266C466.855 661.369 474.937 670.533 485.164 677.827C487.72 679.646 487.738 679.611 490.826 678.976C479.33 668.577 470.219 656.736 465.706 641.823C461.142 626.739 462.068 611.792 466.324 596.896V596.81Z" fill="white"/>
<path d="M466.821 534.019C470.287 532.921 473.376 533.264 476.173 534.431C480.239 536.13 484.426 537.846 487.961 540.386C493.211 544.178 498.325 548.331 502.837 552.964C518.315 568.855 530.223 587.029 536.966 608.325C539.317 615.756 540.672 623.358 539.815 631.921C537.927 630.686 536.28 629.811 534.838 628.644C524.852 620.561 516.29 611.208 509.238 600.448C508.586 599.453 507.899 598.458 506.87 597.668C510.199 614.52 517.56 629.433 528.404 642.647C539.334 655.981 552.752 665.934 569.122 671.769C569.087 672.043 569.07 672.335 569.036 672.61C566.428 672.867 563.82 673.296 561.194 673.33C549.235 673.502 538.27 670.104 528.112 663.875C520.494 659.207 513.682 653.493 507.865 646.766C489.042 624.971 475.143 600.466 468.108 572.373C465.26 561.013 463.922 549.481 465.929 537.794C466.135 536.576 466.478 535.392 466.787 534.002L466.821 534.019Z" fill="white"/>
<path d="M528.713 167.31C529.931 168.888 531.441 170.158 533.243 171.136C535.044 172.115 537.069 172.75 539.283 173.007C541.496 173.264 543.589 173.144 545.545 172.612C547.502 172.08 549.252 171.205 550.796 170.004C552.34 168.803 553.627 167.292 554.622 165.508C555.618 163.723 556.27 161.698 556.544 159.433C556.819 157.168 556.699 155.057 556.167 153.083C555.635 151.11 554.76 149.342 553.524 147.798C552.289 146.253 550.779 144.983 549.012 144.005C547.244 143.027 545.254 142.409 543.023 142.135C540.81 141.86 538.699 141.997 536.709 142.512C534.718 143.027 532.934 143.919 531.39 145.155C529.845 146.391 528.558 147.884 527.529 149.651C526.499 151.419 525.864 153.426 525.59 155.692C525.315 157.905 525.47 160.016 526.036 161.99C526.602 163.963 527.494 165.748 528.696 167.31H528.713Z" fill="white"/>
<path d="M249.883 259.394C251.411 261.025 253.109 262.26 254.997 263.101C256.884 263.942 258.806 264.405 260.796 264.491C262.787 264.577 264.726 264.234 266.648 263.479C268.569 262.724 270.337 261.591 271.984 260.064C273.614 258.536 274.849 256.855 275.707 255.018C276.565 253.182 277.029 251.277 277.08 249.321C277.149 247.348 276.823 245.408 276.085 243.486C275.364 241.564 274.215 239.78 272.67 238.115C271.109 236.45 269.41 235.181 267.574 234.322C265.721 233.447 263.816 233.001 261.826 232.95C259.836 232.898 257.914 233.241 256.026 233.962C254.139 234.683 252.371 235.815 250.741 237.343C249.111 238.87 247.859 240.569 246.966 242.422C246.074 244.293 245.611 246.215 245.559 248.188C245.508 250.162 245.834 252.118 246.52 254.04C247.224 255.962 248.339 257.747 249.901 259.412L249.883 259.394Z" fill="white"/>
<path d="M384.408 179.957L400.194 174.792L386.295 158.952L384.408 179.957Z" fill="white"/>
<path d="M581.252 176.165C582.196 177.915 583.483 179.408 585.13 180.661C586.76 181.913 588.648 182.857 590.81 183.475C592.955 184.093 595.031 184.299 597.056 184.076C599.063 183.87 600.934 183.286 602.649 182.325C604.365 181.364 605.875 180.094 607.145 178.481C608.415 176.868 609.376 174.98 609.993 172.784C610.628 170.604 610.834 168.494 610.628 166.452C610.422 164.409 609.839 162.539 608.861 160.806C607.883 159.072 606.596 157.597 605.017 156.344C603.422 155.091 601.551 154.164 599.406 153.547C597.262 152.929 595.151 152.723 593.109 152.929C591.05 153.135 589.163 153.718 587.447 154.696C585.714 155.675 584.221 156.944 582.934 158.523C581.647 160.102 580.686 161.99 580.069 164.186C579.451 166.331 579.262 168.425 579.52 170.484C579.777 172.544 580.36 174.414 581.304 176.165H581.252Z" fill="white"/>
<path d="M222.79 295.003L228.778 287.487C231.043 284.655 232.124 282.03 232.055 279.627C231.987 277.225 230.854 275.148 228.675 273.415C226.496 271.682 224.231 271.047 221.897 271.527C219.564 272.008 217.247 273.655 214.983 276.504L208.994 284.02L222.79 295.003Z" fill="white"/>
<path d="M681.614 202.747C684.033 204.205 686.178 204.909 688.031 204.84C689.884 204.772 691.343 203.879 692.389 202.146C693.453 200.378 693.591 198.662 692.767 196.981C691.96 195.316 690.33 193.737 687.911 192.279L677.942 186.272L671.645 196.723L681.614 202.729V202.747Z" fill="white"/>
<path d="M679.778 209.096L668.35 202.198L661.761 213.146L673.189 220.028C675.797 221.589 678.045 222.379 679.984 222.344C681.906 222.344 683.45 221.366 684.617 219.444C685.749 217.574 685.869 215.755 684.994 214.021C684.119 212.288 682.386 210.641 679.778 209.079V209.096Z" fill="white"/>
<path d="M708.673 232.092L721.542 242.594L727.359 222.344L708.673 232.092Z" fill="white"/>
<path d="M842.357 468.001L829.625 468.928L830.586 482.228C830.809 485.248 831.478 487.547 832.611 489.126C833.743 490.705 835.408 491.391 837.638 491.237C839.817 491.083 841.379 490.139 842.288 488.423C843.198 486.707 843.541 484.338 843.335 481.301L842.374 468.001H842.357Z" fill="white"/>
<path d="M164.725 426.609L168.809 410.513L147.995 413.773L164.725 426.609Z" fill="white"/>
<path d="M860.888 466.663L848.723 467.538L849.563 479.139C849.769 481.953 850.421 484.098 851.554 485.591C852.669 487.067 854.248 487.736 856.255 487.599C858.314 487.444 859.79 486.552 860.682 484.939C861.575 483.326 861.918 481.095 861.729 478.263L860.888 466.663Z" fill="white"/>
<path d="M499.68 108.928C283.549 108.774 108.684 283.265 108.513 499.423C108.341 715.512 282.862 890.415 499.062 890.518C715.228 890.638 889.68 715.941 890.092 499.835C890.178 284.278 715.485 109.083 499.68 108.928ZM857.851 411.868L833.777 417.205C829.333 418.183 826.313 419.865 824.717 422.216C823.122 424.584 822.71 427.502 823.499 431.003C824.271 434.503 825.884 436.975 828.321 438.416C830.757 439.858 834.189 440.098 838.633 439.102L862.707 433.765L864.457 441.677L840.126 447.065C833.794 448.472 828.578 447.855 824.512 445.246C820.428 442.62 817.734 438.365 816.43 432.427C815.126 426.541 815.778 421.547 818.369 417.463C820.96 413.378 825.421 410.616 831.77 409.226L856.101 403.837L857.885 411.868H857.851ZM845.377 372.587L810.304 385.286L818.18 407.046L811.643 409.414L800.97 379.915L842.58 364.848L845.377 372.57V372.587ZM799.717 326.871C802.686 325.361 805.654 324.503 808.623 324.297C811.591 324.091 814.491 324.485 817.322 325.464C820.136 326.442 822.693 327.952 824.992 329.994C827.291 332.036 829.213 334.576 830.774 337.613C832.422 340.84 833.383 344.066 833.64 347.309C833.897 350.536 833.4 353.624 832.164 356.593L825.301 354.139C826.09 351.891 826.416 349.677 826.296 347.532C826.159 345.37 825.575 343.277 824.546 341.252C823.482 339.192 822.195 337.476 820.634 336.103C819.089 334.748 817.374 333.752 815.486 333.117C813.599 332.5 811.642 332.259 809.583 332.414C807.524 332.568 805.482 333.152 803.458 334.198C801.433 335.228 799.752 336.549 798.43 338.111C797.109 339.69 796.148 341.423 795.548 343.311C794.947 345.199 794.758 347.172 794.947 349.231C795.153 351.291 795.771 353.35 796.817 355.409C797.847 357.434 799.202 359.133 800.884 360.506C802.548 361.879 804.556 362.891 806.872 363.543L804.848 370.545C801.725 369.824 798.928 368.417 796.44 366.323C793.952 364.23 791.876 361.553 790.211 358.292C788.65 355.255 787.723 352.2 787.414 349.146C787.106 346.091 787.38 343.139 788.255 340.308C789.13 337.476 790.503 334.902 792.408 332.602C794.312 330.303 796.749 328.398 799.7 326.888L799.717 326.871ZM786.093 269.228L791.052 275.783L761.333 298.332L775.317 316.78L769.775 320.985L750.832 295.998L786.093 269.245V269.228ZM763.701 244.43L736.676 270.154L752.634 286.92L747.589 291.708L725.969 268.987L758.022 238.458L763.684 244.413L763.701 244.43ZM735.732 218.586L723.258 265.521L716.549 260.047L719.62 249.338L702.462 235.352L692.578 240.518L686.058 235.198L729.469 213.472L735.75 218.586H735.732ZM692.063 187.268C696.576 189.996 699.493 192.965 700.78 196.191C702.084 199.417 701.827 202.524 700.025 205.527C698.807 207.552 697.297 208.993 695.495 209.851C693.796 210.658 691.978 211.001 690.073 210.898C690.451 211.327 690.794 211.773 691.12 212.237C692.355 214.038 693.007 215.96 693.093 218.037C693.179 220.113 692.544 222.241 691.223 224.438C689.267 227.681 686.504 229.466 682.935 229.792C679.366 230.101 675.162 228.797 670.289 225.862L651.397 214.467L674.253 176.559L692.063 187.302V187.268ZM627.684 162.865L630.481 156.498L664.867 171.617L662.07 177.984L648.635 172.08L633.621 206.23L626.088 202.918L641.102 168.768L627.667 162.865H627.684ZM572.107 161.938C573.016 158.781 574.406 156.035 576.311 153.701C578.198 151.367 580.463 149.514 583.106 148.141C585.731 146.768 588.614 145.944 591.719 145.653C594.825 145.361 598.051 145.687 601.362 146.648C604.64 147.592 607.522 148.999 610.01 150.869C612.498 152.74 614.489 154.954 615.965 157.511C617.44 160.068 618.367 162.848 618.744 165.834C619.122 168.82 618.847 171.909 617.938 175.083C617.028 178.258 615.621 180.987 613.734 183.321C611.829 185.654 609.582 187.508 606.973 188.915C604.365 190.322 601.5 191.146 598.394 191.42C595.288 191.695 592.097 191.352 588.819 190.408C585.542 189.464 582.642 188.04 580.137 186.135C577.632 184.23 575.642 181.999 574.132 179.408C572.622 176.817 571.695 174.054 571.335 171.068C570.957 168.082 571.215 165.044 572.124 161.921L572.107 161.938ZM517.439 154.731C517.834 151.47 518.778 148.536 520.288 145.927C521.798 143.319 523.736 141.139 526.122 139.372C528.507 137.604 531.2 136.317 534.22 135.545C537.24 134.773 540.466 134.584 543.898 134.996C547.295 135.408 550.367 136.334 553.112 137.793C555.858 139.252 558.174 141.122 560.044 143.405C561.915 145.687 563.27 148.278 564.094 151.196C564.935 154.096 565.158 157.185 564.763 160.445C564.368 163.706 563.425 166.64 561.915 169.232C560.405 171.823 558.483 174.037 556.115 175.821C553.747 177.623 551.053 178.893 548.033 179.648C545.013 180.403 541.805 180.575 538.407 180.18C535.01 179.785 531.938 178.824 529.159 177.331C526.379 175.856 524.062 173.951 522.175 171.651C520.288 169.352 518.932 166.743 518.091 163.86C517.25 160.977 517.027 157.923 517.422 154.696L517.439 154.731ZM511.176 132.679L511.296 139.629L487.206 140.024L487.429 153.495L508.791 153.152L508.911 159.982L487.549 160.325L487.823 177.331L479.604 177.469L478.884 133.211L511.193 132.696L511.176 132.679ZM416.803 147.883C417.696 145.687 419.326 143.748 421.694 142.083C424.062 140.419 427.236 139.217 431.217 138.462C433.825 137.965 436.484 137.827 439.178 137.999C441.872 138.188 444.292 138.72 446.419 139.595L445.047 146.356C442.885 145.567 440.705 145.086 438.543 144.915C436.381 144.743 434.322 144.846 432.418 145.189C430.222 145.601 428.471 146.202 427.167 147.008C425.863 147.815 424.971 148.724 424.491 149.737C424.01 150.749 423.873 151.796 424.079 152.877C424.336 154.199 424.988 155.177 426.086 155.812C427.184 156.447 428.506 156.841 430.101 157.013C431.697 157.185 433.465 157.305 435.403 157.373C437.342 157.442 439.281 157.579 441.203 157.802C443.125 158.026 444.944 158.437 446.642 159.038C448.341 159.639 449.8 160.6 451.001 161.887C452.202 163.191 453.025 164.976 453.454 167.241C453.883 169.558 453.66 171.823 452.768 174.037C451.876 176.25 450.229 178.172 447.844 179.854C445.458 181.519 442.267 182.737 438.286 183.475C434.889 184.11 431.56 184.23 428.283 183.835C425.005 183.441 422.311 182.651 420.149 181.467L421.762 174.672C423.753 175.718 426.121 176.456 428.866 176.885C431.611 177.314 434.322 177.28 437.016 176.765C439.298 176.336 441.1 175.753 442.404 174.98C443.725 174.225 444.635 173.35 445.132 172.372C445.63 171.394 445.784 170.381 445.579 169.3C445.338 167.979 444.652 167.001 443.554 166.366C442.456 165.731 441.1 165.319 439.487 165.13C437.891 164.941 436.124 164.821 434.202 164.77C432.281 164.718 430.342 164.581 428.403 164.341C426.447 164.1 424.628 163.689 422.929 163.088C421.23 162.487 419.772 161.526 418.554 160.205C417.335 158.884 416.512 157.065 416.083 154.748C415.637 152.38 415.86 150.097 416.752 147.901L416.803 147.883ZM379.964 152.431L387.651 149.926L420.39 185.809L412.153 188.503L404.809 180.129L383.773 187.01L382.778 198.113L374.782 200.722L379.981 152.465L379.964 152.431ZM327.664 181.124C328.693 178.327 330.255 175.804 332.348 173.539C334.442 171.274 337.015 169.403 340.087 167.91C343.347 166.331 346.59 165.439 349.833 165.25C353.076 165.061 356.147 165.611 359.081 166.915L356.491 173.728C354.26 172.887 352.064 172.526 349.902 172.612C347.74 172.698 345.646 173.247 343.587 174.243C341.494 175.255 339.761 176.525 338.371 178.052C336.981 179.58 335.952 181.261 335.282 183.132C334.613 185.002 334.339 186.959 334.459 189.018C334.579 191.077 335.128 193.119 336.106 195.179C337.101 197.221 338.371 198.92 339.915 200.293C341.459 201.648 343.175 202.644 345.063 203.279C346.95 203.914 348.906 204.154 350.965 203.999C353.024 203.845 355.101 203.261 357.177 202.249C359.219 201.254 360.952 199.932 362.359 198.285C363.766 196.637 364.812 194.664 365.516 192.347L372.482 194.509C371.693 197.616 370.235 200.378 368.09 202.832C365.945 205.286 363.234 207.311 359.939 208.907C356.868 210.4 353.797 211.276 350.725 211.516C347.654 211.773 344.72 211.43 341.906 210.503C339.092 209.577 336.552 208.135 334.287 206.196C332.022 204.257 330.169 201.768 328.711 198.782C327.252 195.779 326.463 192.793 326.325 189.825C326.188 186.839 326.634 183.956 327.664 181.158V181.124ZM280.323 204.034L317.386 215.154L300.502 190.322L307.194 185.775L332.074 222.379L326.48 226.188L289.469 215.051L306.336 239.883L299.592 244.465L274.712 207.861L280.306 204.051L280.323 204.034ZM237.701 248.532C237.872 245.563 238.644 242.68 239.983 239.865C241.321 237.051 243.26 234.46 245.8 232.092C248.288 229.758 250.982 228.007 253.881 226.84C256.764 225.673 259.681 225.107 262.632 225.141C265.584 225.176 268.432 225.811 271.195 227.046C273.957 228.265 276.462 230.084 278.71 232.486C280.958 234.889 282.588 237.497 283.617 240.329C284.647 243.16 285.076 246.043 284.939 249.012C284.801 251.981 284.046 254.864 282.674 257.661C281.301 260.458 279.379 263.033 276.891 265.366C274.403 267.7 271.692 269.451 268.775 270.618C265.858 271.785 262.907 272.351 259.921 272.317C256.936 272.282 254.07 271.647 251.325 270.429C248.579 269.21 246.091 267.426 243.878 265.058C241.63 262.655 240 260.047 238.971 257.215C237.941 254.384 237.529 251.5 237.701 248.532ZM209.784 271.888C212.22 268.816 214.811 266.585 217.522 265.16C220.233 263.736 222.996 263.17 225.793 263.462C228.589 263.753 231.266 264.903 233.84 266.962C236.38 268.987 238.078 271.304 238.953 273.947C239.828 276.572 239.88 279.387 239.125 282.373C239.073 282.596 238.971 282.836 238.902 283.059L256.627 284.14L251.119 291.073L235.35 290.061C235.024 290.524 234.715 290.988 234.338 291.451L228.109 299.276L238.198 307.307L233.085 313.743L198.459 286.165L209.801 271.922L209.784 271.888ZM192.385 294.626L198.322 298.247L190.686 310.774L222.532 330.2L218.26 337.219L186.413 317.793L178.778 330.32L172.841 326.699L192.385 294.626ZM154.738 364.813C155.716 362.342 157.02 360.025 158.599 357.846C160.195 355.667 161.945 353.916 163.833 352.578L168.809 357.348C166.973 358.756 165.411 360.334 164.107 362.068C162.803 363.818 161.791 365.586 161.07 367.387C160.246 369.464 159.817 371.266 159.8 372.81C159.783 374.338 160.075 375.59 160.675 376.534C161.276 377.478 162.082 378.147 163.095 378.559C164.347 379.057 165.531 379.023 166.647 378.439C167.762 377.856 168.826 376.946 169.821 375.693C170.816 374.441 171.863 372.999 172.961 371.403C174.059 369.79 175.209 368.246 176.427 366.718C177.645 365.208 178.966 363.887 180.374 362.788C181.798 361.673 183.376 360.952 185.109 360.626C186.842 360.3 188.798 360.557 190.943 361.416C193.14 362.291 194.924 363.698 196.314 365.637C197.704 367.576 198.459 369.996 198.596 372.913C198.733 375.831 198.047 379.16 196.537 382.918C195.25 386.127 193.569 389.01 191.492 391.567C189.416 394.124 187.288 395.977 185.144 397.161L180.271 392.151C182.227 391.018 184.114 389.422 185.933 387.328C187.769 385.252 189.176 382.935 190.205 380.378C191.063 378.233 191.527 376.38 191.578 374.87C191.63 373.359 191.389 372.124 190.84 371.163C190.291 370.219 189.502 369.533 188.49 369.138C187.237 368.64 186.053 368.692 184.921 369.275C183.788 369.859 182.724 370.802 181.712 372.038C180.7 373.291 179.653 374.715 178.589 376.311C177.525 377.907 176.376 379.469 175.123 380.996C173.87 382.523 172.549 383.845 171.125 384.943C169.701 386.058 168.122 386.779 166.355 387.088C164.587 387.414 162.614 387.122 160.418 386.247C158.187 385.355 156.386 383.948 154.996 382.008C153.606 380.069 152.851 377.65 152.714 374.767C152.576 371.866 153.246 368.554 154.756 364.796L154.738 364.813ZM130.871 462.527L167.899 467.057L170.713 444.079L175.586 444.68L139.072 415.644L141.063 407.801L188.884 399.341L186.757 407.733L175.741 409.466L170.284 430.917L179.121 437.712L177.302 444.886L177.594 444.92L173.785 476.05L129.858 470.678L130.853 462.527H130.871ZM142.298 546.512C142.23 540.712 146.674 536.233 152.456 536.267C158.067 536.301 162.425 540.609 162.494 546.22C162.563 551.849 158.325 556.311 152.748 556.465C146.931 556.62 142.367 552.278 142.298 546.512ZM461.279 848.439C458.808 848.765 456.303 848.886 453.815 848.834C449.937 848.765 446.059 848.474 442.198 848.336C441.529 848.302 440.86 848.491 440.019 848.594C439.813 849.606 439.539 850.533 439.436 851.46C438.749 858.015 434.974 861.962 428.917 864.004C424.611 865.463 420.235 865.532 415.808 864.674C413.852 864.296 413.046 863.301 413.354 861.156C414.092 856.093 416.872 852.524 421.11 849.984C422.878 848.92 424.765 848.096 427.339 846.775C422.603 845.814 418.588 844.973 414.573 844.218C413.028 843.926 412.342 844.956 411.896 846.243C409.425 853.33 403.952 856.23 396.916 856.625C394.171 856.78 391.374 856.556 388.629 856.179C384.168 855.561 383.31 853.313 385.712 849.606C388.303 845.608 391.632 842.725 396.35 841.627C396.985 841.472 397.568 841.112 398.838 840.545C394.325 838.332 390.156 837.422 385.763 836.29C384.494 840.391 381.731 842.982 378.351 844.578C374.284 846.483 369.806 846.929 365.344 846.071C363.045 845.642 360.763 845.024 358.498 844.372C356.611 843.84 356.233 842.433 356.954 840.769C358.224 837.885 360.145 835.534 363.114 834.333C365.996 833.166 368.965 832.222 372.534 830.97C368.364 829.151 364.658 827.538 360.935 825.89C360.351 826.422 359.854 826.731 359.579 827.177C356.491 832.291 351.48 833.544 346.058 833.836C341.408 834.093 336.964 833.08 332.691 831.279C329.105 829.768 328.728 827.726 331.679 825.101C334.545 822.561 338.045 821.291 341.785 820.639C343.416 820.347 345.046 820.158 346.744 819.918C345.663 818.442 339.486 814.787 335.883 813.414C334.064 814.89 332.451 816.658 330.444 817.704C325.399 820.381 319.994 820.124 314.675 818.631C311.895 817.859 309.15 816.778 306.524 815.576C304.053 814.444 303.693 812.539 305.804 810.72C307.417 809.313 309.493 808.197 311.552 807.614C313.903 806.927 316.459 806.927 318.93 806.721C320.217 806.618 321.538 806.704 323.014 805.932C319.531 803.633 316.03 801.316 312.633 799.068C303.504 805.452 290.687 804.92 282.331 798.004C279.774 795.893 279.808 793.988 282.931 792.735C285.694 791.62 288.765 791.191 291.751 790.796C293.998 790.504 296.332 790.745 298.975 790.11C296.212 788.153 293.518 786.128 290.653 784.327C290.018 783.932 288.731 784.069 287.959 784.412C279.517 788.222 271.726 785.905 264.057 782.079C262.941 781.529 261.86 780.877 260.831 780.191C258.102 778.355 258.274 776.038 261.328 774.614C264.537 773.121 267.952 772.657 271.469 773.086C272.773 773.241 274.094 773.361 275.673 772.88C273.494 771.044 271.435 769.019 269.067 767.475C268.157 766.891 266.459 767.234 265.223 767.543C255.1 770.117 246.383 767.337 238.662 760.696C238.284 760.37 238.164 759.752 237.735 758.843C242.78 754.381 248.785 755.514 255.374 755.805C253.041 753.386 251.256 751.326 249.231 749.576C248.579 749.027 247.121 748.958 246.194 749.233C235.419 752.562 226.685 748.323 218.655 741.768C216.321 739.863 216.87 737.615 219.941 737.117C223.305 736.568 226.805 736.688 230.237 736.774C232.107 736.825 233.96 737.392 236.311 737.031C234.218 734.732 232.21 732.346 229.979 730.201C229.482 729.721 228.126 729.807 227.268 730.03C219.684 732.038 212.958 729.738 206.764 725.688C203.675 723.663 201.033 720.935 198.304 718.395C197.618 717.76 197.429 716.593 196.777 715.169C205.254 713.023 212.186 716.353 219.65 718.463C217.316 715.512 215.051 712.491 212.58 709.66C212.1 709.111 210.779 709.025 209.886 709.111C199.128 710.243 191.407 704.632 184.269 697.682C183.273 696.721 182.347 695.657 181.609 694.49C181.06 693.615 180.408 692.327 180.7 691.572C180.957 690.903 182.433 690.423 183.411 690.354C184.766 690.251 186.259 690.337 187.512 690.817C191.87 692.516 196.177 694.387 200.466 696.257C201.324 696.635 202.079 697.218 203.383 697.287C201.29 694.164 199.317 690.937 197.017 687.969C196.4 687.179 194.821 686.87 193.654 686.785C185.109 686.201 178.503 681.808 172.652 676.076C170.593 674.051 168.929 671.632 167.178 669.315C166.732 668.731 166.664 667.856 166.441 667.118C171.399 664.99 175.586 666.329 188.267 674.086C186.911 670.327 185.024 667.376 183.067 664.527C182.518 663.738 180.854 663.583 179.67 663.36C169.1 661.266 161.568 654.814 155.459 646.371C154.841 645.53 154.618 644.397 153.949 642.767C155.493 642.527 156.626 642.115 157.724 642.235C161.773 642.647 165.566 643.951 169.014 646.148C171.297 647.589 173.579 649.031 176.324 650.764C175.758 648.173 174.54 646.645 173.133 645.118C166.732 638.219 162.666 630.222 161.602 620.784C161.31 618.261 161.653 615.91 162.408 612.821C164.004 613.679 165.36 614.057 166.2 614.932C173.596 622.758 178.229 631.784 177.971 642.836C177.885 646.028 179.069 648.705 180.579 651.656C181.712 647.95 182.707 644.603 183.771 641.274C184.68 638.477 186.722 636.606 189.193 635.233C191.51 633.946 193.037 634.65 193.895 637.173C195.473 641.737 195.593 646.457 194.907 651.142C194.135 656.341 191.201 660.305 186.276 663.411C188.335 667.135 190.36 670.791 192.693 674.978C193.363 671.717 193.757 669.178 194.426 666.706C195.336 663.412 197.052 660.649 200.14 658.864C202.92 657.251 204.567 657.697 205.494 660.717C208.342 670.001 207.09 678.444 199.643 686.047C201.616 688.998 203.503 691.83 205.597 694.953C207.141 693.34 206.661 691.761 206.849 690.354C207.381 686.39 208.548 682.786 212.048 680.366C214.622 678.582 216.441 679.045 217.471 681.997C220.405 690.543 220.182 698.849 214.828 707.103C216.87 709.797 218.981 712.612 221.692 716.181C221.692 713.658 221.795 712.114 221.675 710.587C221.383 706.657 222.584 703.207 224.832 700.067C226.719 697.424 228.795 697.407 230.185 700.273C233.84 707.841 235.504 715.786 232.622 723.989C231.747 726.478 232.021 728.176 233.789 729.944C236.019 732.175 238.13 734.526 240.944 736.551C240.566 735.367 240.172 734.166 239.811 732.981C238.387 728.417 237.615 723.818 239.468 719.167C239.777 718.395 240.103 717.623 240.532 716.919C241.956 714.637 243.5 714.516 244.959 716.764C246.469 719.081 247.927 721.467 248.974 724.006C251.634 730.51 253.401 737.169 250.844 744.17C250.209 745.886 250.913 747.191 252.045 748.272C255.117 751.189 258.257 754.021 261.86 756.475C260.848 754.124 259.784 751.773 258.857 749.387C256.987 744.599 256.61 739.691 258.137 734.732C259.029 731.814 260.968 731.283 262.924 733.651C268.81 740.824 272.516 748.89 271.812 758.431C271.675 760.439 270.766 762.378 270.131 764.609C273.734 767.44 277.406 770.306 281.078 773.189C281.25 773.069 281.438 772.932 281.61 772.812C281.232 771.851 280.906 770.873 280.477 769.946C278.35 765.209 276.943 760.336 277.475 755.05C277.526 754.501 277.423 753.866 277.646 753.403C278.384 751.996 278.933 750.091 280.134 749.456C281.781 748.581 282.588 750.674 283.566 751.755C287.598 756.286 290.378 761.434 291.716 767.423C292.694 771.834 292.712 776.175 291.562 781.015C294.685 783.331 297.928 785.717 301.171 788.119C301.394 787.913 301.6 787.707 301.823 787.501C301.308 786.437 300.776 785.391 300.296 784.309C298.099 779.401 296.83 774.339 298.168 768.968C298.443 767.887 299.095 766.291 299.867 766.102C300.776 765.879 302.389 766.634 303.024 767.458C305.512 770.752 308.051 774.099 309.973 777.737C312.513 782.542 314.074 787.759 313.765 793.319C313.628 795.687 314.555 797.163 316.682 798.278C319.119 799.548 321.349 801.213 324.507 803.238C323.752 801.71 323.443 800.938 323.014 800.235C320.131 795.412 318.004 790.35 318.209 784.567C318.227 784.018 318.175 783.451 318.261 782.902C318.724 780.105 320.509 779.316 322.551 781.255C325.056 783.623 327.441 786.163 329.5 788.926C333.446 794.246 336.072 800.166 336.466 806.893C336.604 809.381 337.599 810.96 339.95 811.973C342.403 813.037 344.685 814.53 347.396 815.491C343.004 808.489 338.337 801.762 340.327 792.804C343.673 792.632 345.543 794.76 347.311 796.459C352.218 801.196 356.353 806.584 358.841 813.037C359.579 814.959 360.197 817.001 360.42 819.043C360.694 821.583 361.947 823.076 364.195 824.002C366.992 825.135 369.771 826.319 372.963 827.04C372.448 826.371 371.951 825.684 371.401 825.049C367.077 820.244 363.491 815.062 362.393 808.506C362.256 807.682 362.067 806.859 362.101 806.035C362.187 803.787 363.474 802.809 365.379 803.959C368.193 805.675 370.904 807.682 373.272 809.948C377.802 814.289 381.371 819.386 384.047 825.084C384.408 825.839 384.94 826.594 384.974 827.383C385.18 831.948 388.045 833.733 392.043 834.659C394.274 835.174 396.436 836.049 398.89 836.272C396.419 833.595 393.897 830.97 391.494 828.241C388.612 824.963 386.724 821.102 385.643 816.898C385.3 815.525 385.592 813.98 385.592 811.818C387.479 812.522 388.955 812.831 390.139 813.569C399.576 819.541 407.435 826.92 411.467 837.731C411.93 839.001 413.183 840.511 414.367 840.854C417.644 841.798 421.093 842.176 425.108 842.896C421.745 839.67 418.554 837.199 416.134 834.144C413.492 830.832 411.467 827.006 409.391 823.282C408.807 822.235 408.962 820.759 408.687 818.7C410.712 819.18 412.033 819.335 413.234 819.815C421.865 823.282 428.334 829.442 433.928 836.65C434.769 837.748 435.764 838.829 436.244 840.082C437.788 844.115 440.74 845.247 444.789 845.11C449.491 844.939 454.192 845.179 458.911 845.213C459.734 845.213 460.627 844.973 461.382 845.196C462.051 845.402 462.549 846.088 463.132 846.569C462.566 847.204 462.051 848.319 461.399 848.405L461.279 848.439ZM498.856 807.631C329.054 807.545 191.389 669.572 191.475 499.56C191.561 329.29 329.637 191.678 500.143 191.935C669.723 192.193 807.181 330.166 807.113 500.006C807.027 670.104 669.139 807.717 498.856 807.631ZM832.885 649.528C826.485 657.474 819.107 663.943 808.52 665.574C807.404 665.745 805.946 666.363 805.397 667.238C803.423 670.362 801.759 673.708 799.82 677.26C802.016 677.809 802.926 676.368 804.024 675.561C807.988 672.644 812.329 670.533 817.099 669.452C818.746 669.075 820.514 669.229 822.796 669.109C820.771 674.154 817.511 677.346 814.113 680.263C808.571 685.051 802.428 688.672 794.758 688.878C793.677 688.912 792.236 689.616 791.601 690.474C789.01 694.044 786.659 697.785 784.206 701.474C784.377 701.697 784.549 701.938 784.72 702.161C786.385 701.097 788.049 700.05 789.697 698.969C793.797 696.24 798.31 694.524 803.115 693.632C804.762 693.323 806.529 693.58 808.52 693.58C808.314 694.679 808.382 695.313 808.108 695.691C803.2 702.281 797.092 707.429 789.25 710.106C786.694 710.981 783.777 711.41 781.117 711.136C777.891 710.792 775.884 711.685 774.202 714.345C772.95 716.318 771.199 717.966 769.758 719.819C769.226 720.506 768.952 721.381 768.179 722.942C776.21 719.939 783.245 716.027 791.55 717.914C791.721 720.643 789.696 721.827 788.341 723.114C784.497 726.752 780.053 729.601 775.026 731.437C771.028 732.896 766.91 733.376 762.792 732.089C760.475 731.368 758.948 731.9 757.438 733.839C755.516 736.311 753.2 738.49 751.055 740.79L751.553 741.716C752.891 741.339 754.229 740.978 755.551 740.549C759.171 739.365 762.877 739.005 766.635 739.503C768.351 739.726 769.981 740.429 772.006 741.013C770.994 744.205 768.831 745.131 767.098 746.384C763.238 749.147 759.034 751.275 754.298 752.047C750.729 752.631 747.143 752.837 743.677 751.275C741.824 750.434 740.314 750.863 738.872 752.442C736.933 754.553 734.737 756.406 732.815 758.757C739.164 758.517 745.496 756.972 751.175 761.589C749.356 764.317 746.903 765.879 744.329 767.097C737.654 770.272 730.825 772.039 723.498 769.139C722.503 768.745 720.839 768.865 719.981 769.465C717.081 771.525 714.421 773.927 711.35 776.45C713.049 777.462 714.335 776.673 715.537 776.415C719.569 775.592 723.55 775.557 727.325 777.394C728.337 777.891 729.658 778.904 729.761 779.813C729.864 780.62 728.629 781.821 727.719 782.473C723.807 785.202 719.432 786.884 714.764 787.862C710.578 788.737 706.477 788.651 702.616 786.66C700.523 785.579 698.772 785.751 696.902 787.227C694.14 789.423 691.206 791.414 688.477 793.902C695.478 793.817 702.582 792.083 708.982 797.746C707.592 798.982 706.631 800.115 705.43 800.87C701.158 803.581 696.456 805.211 691.394 805.692C686.847 806.121 682.54 805.383 679.006 802.174C677.993 801.247 676.929 800.629 675.677 801.453C672.125 803.787 668.642 806.207 664.97 808.695C666.325 810.428 667.921 809.725 669.277 809.639C673.378 809.381 677.273 809.879 680.945 811.853C682.592 812.745 683.965 813.775 684.394 815.645C684.273 815.971 684.256 816.349 684.085 816.469C676.432 821.016 668.47 823.659 659.702 819.884C658.158 819.215 656.854 817.842 655.635 816.589C654.572 815.508 653.576 814.701 652.049 815.542C648.549 817.481 645.049 819.438 641.565 821.411C641.359 821.531 641.308 821.874 640.93 822.544C642.2 822.75 643.333 823.024 644.465 823.127C648.394 823.436 652.084 824.483 655.43 826.594C656.459 827.246 657.471 828.052 658.261 828.979C659.616 830.575 659.479 831.793 657.626 832.651C649.887 836.255 641.977 837.474 634.084 833.183C632.591 832.377 631.562 830.678 630.429 829.305C629.554 828.224 628.628 827.555 627.221 828.172C623.446 829.82 619.671 831.485 615.587 833.286C616.857 835.088 618.676 834.711 620.117 835.037C624.115 835.963 627.787 837.439 630.361 840.82C631.253 841.987 631.819 843.394 632.746 845.076C627.409 848.148 622.073 848.868 616.514 848.062C610.68 847.204 606.253 844.218 603.971 838.212C598.995 839.155 594.362 840.58 589.832 843.325C592.08 844.218 594.31 845.145 596.575 846.003C600.539 847.496 602.272 851.116 604.314 854.343C605.223 855.767 604.074 856.951 602.718 857.655C595.803 861.259 583.243 857.861 579.211 851.237C578.576 850.19 578.233 848.954 577.786 847.804C577.255 846.449 576.242 845.831 574.835 846.106C570.494 846.964 566.17 847.89 561.846 848.834C561.657 848.868 561.537 849.246 561.228 849.726C565.964 851.7 570.871 853.519 573.514 858.238C574.681 860.332 575.264 862.769 576.225 865.394C569.876 868.346 564.145 867.505 558.603 865.068C552.443 862.357 550.281 856.985 550.212 850.808C545.923 850.808 542.079 850.859 538.236 850.808C534.495 850.739 530.669 851.271 527.031 849.95C527.426 847.787 528.713 848.233 529.742 848.216C535.422 848.13 541.101 847.976 546.763 847.976C549.903 847.976 551.774 846.586 553.318 843.857C557.831 835.843 564.351 829.665 572.176 824.929C574.475 823.539 577.117 822.732 579.725 821.583C580.703 827.555 575.47 834.968 563.459 845.162C564.385 845.419 565.106 845.848 565.741 845.745C568.881 845.247 572.004 844.595 575.144 844.012C577.203 843.634 578.027 842.176 578.696 840.374C582.814 829.288 590.999 821.84 600.813 815.902C601.174 815.697 601.568 815.542 601.963 815.422C602.22 815.336 602.512 815.336 602.941 815.285C604.451 816.623 603.748 818.236 603.284 819.781C601.157 826.954 596.575 832.428 590.999 837.165C590.021 838.006 589.043 838.846 588.064 839.687C588.253 839.996 588.442 840.322 588.614 840.631C593.281 839.052 597.965 837.559 602.564 835.792C603.319 835.5 603.833 834.093 604.125 833.115C607.076 822.835 613.545 815.096 621.661 808.506C621.987 808.249 622.33 807.957 622.708 807.837C623.84 807.477 624.973 807.202 626.122 806.893C626.328 808.043 626.843 809.227 626.689 810.325C625.762 817.069 622.056 822.389 617.577 827.229C616.668 828.207 615.467 828.945 614.403 829.786C614.558 830.043 614.695 830.318 614.849 830.575C615.45 830.626 616.119 830.867 616.617 830.678C620.065 829.271 623.566 827.898 626.877 826.199C627.907 825.667 628.954 824.243 629.142 823.093C630.584 813.895 635.628 806.721 641.771 800.166C643.539 798.278 645.632 796.734 648.618 795.515C650.608 805.692 644.911 812.367 639.215 819.729C642.252 819.266 644.191 817.979 646.301 817.087C651.363 814.959 653.508 811.492 654.263 805.881C655.515 796.768 661.006 789.681 667.904 783.743C668.196 783.503 668.659 783.451 669.088 783.297C670.821 784.069 670.769 785.579 670.821 787.124C670.993 792.924 668.796 797.935 665.811 802.706C665.296 803.512 664.798 804.353 664.369 805.211C664.283 805.383 664.507 805.692 664.695 806.31C665.536 805.932 666.377 805.64 667.115 805.177C668.762 804.147 670.203 802.672 671.971 802.002C675.831 800.526 676.192 797.643 676.346 794.057C676.741 784.807 680.859 777.068 686.933 770.272C687.293 769.86 687.774 769.534 688.254 769.259C688.597 769.053 689.026 769.002 689.85 768.762C693.453 776.896 690.107 783.983 686.418 791.139C689.507 790.779 694.603 787.416 698.412 783.417C695.941 771.593 700.523 758.208 709.239 752.253C711.041 753.403 711.333 755.325 711.539 757.247C712.173 763.116 710.475 768.487 707.815 773.618C707.249 774.717 706.597 775.763 705.602 777.479C706.906 777.068 707.678 777.033 708.193 776.639C711.727 773.961 715.193 771.199 718.711 768.504C719.878 767.612 720.255 766.565 719.569 765.244C716.583 759.512 718.007 753.763 720.169 748.358C721.8 744.308 724.425 740.635 726.758 736.894C727.256 736.088 728.423 735.693 729.658 734.852C734.343 744.496 730.362 752.39 725.832 760.61C726.724 760.542 727.359 760.679 727.633 760.439C731.151 757.315 734.651 754.175 738.083 750.983C739.37 749.782 739.902 748.306 739.181 746.47C736.676 740.069 738.289 733.925 740.537 727.885C741.875 724.281 743.728 720.917 746.731 717.657C753.423 725.688 750.094 733.41 746.868 741.15C747.143 741.27 747.417 741.373 747.692 741.493C748.876 740.412 750.111 739.382 751.227 738.233C752.96 736.448 754.59 734.56 756.288 732.741C757.953 730.974 758.468 729.189 757.507 726.718C754.384 718.652 756.168 710.93 759.652 703.431C760.115 702.452 761.23 701.766 762.14 700.874C767.888 706.125 767.888 712.337 766.618 719.407C767.802 718.721 768.574 718.498 769.02 717.983C770.736 715.975 772.383 713.933 773.945 711.822C774.991 710.415 775.18 709.094 774.048 707.309C769.484 700.05 769.81 692.327 772.572 684.554C773.447 682.082 774.854 681.825 777.051 683.352C780.396 685.686 781.649 689.136 782.112 692.945C782.353 694.833 782.353 696.755 782.49 699.398C786.213 695.931 788.204 692.122 790.057 688.998C788.049 685.566 786.179 682.717 784.669 679.714C781.975 674.412 782.747 668.937 784.446 663.549C785.338 660.717 786.522 660.408 789.062 661.987C793.935 665.042 795.084 669.967 795.668 675.167C795.771 676.11 795.719 677.072 795.771 678.033C795.771 678.101 795.994 678.17 796.629 678.513C799.271 674.515 801.639 670.327 803.475 666.277C801.073 663.583 798.499 661.524 796.989 658.864C793.523 652.686 794.055 646.062 796.148 639.524C796.749 637.67 798.07 637.087 799.666 638.202C801.45 639.421 803.389 640.862 804.384 642.681C806.409 646.439 808.125 650.438 807.576 654.951C807.542 655.277 807.782 655.655 808.073 656.547C810.424 653.081 812.14 649.734 811.934 646.028C811.419 637.379 814.611 630.034 819.244 623.152C820.617 621.11 822.384 619.291 824.065 617.472C824.563 616.94 825.438 616.734 826.33 616.271C827.531 618.519 827.617 620.647 827.377 622.861C826.382 632.316 822.281 640.33 815.898 647.212C813.856 649.408 812.518 651.811 811.763 655.5C818.849 650.163 825.266 644.981 834.927 645.375C834.017 647.229 833.64 648.585 832.851 649.58L832.885 649.528ZM845.651 556.465C840.109 556.414 835.596 551.952 835.527 546.478C835.459 540.866 840.143 536.233 845.857 536.284C851.382 536.336 855.895 540.798 855.981 546.272C856.049 551.883 851.365 556.517 845.651 556.465ZM857.954 495.836C855.603 496.008 853.544 495.613 851.811 494.635C850.164 493.708 848.843 492.421 847.83 490.808C847.693 491.357 847.539 491.906 847.333 492.421C846.578 494.463 845.377 496.111 843.729 497.381C842.082 498.651 839.989 499.371 837.415 499.543C833.623 499.817 830.586 498.582 828.269 495.853C825.953 493.125 824.597 488.92 824.186 483.24L822.59 461.223L866.739 458.031L868.249 478.778C868.627 484.03 867.872 488.131 866.001 491.048C864.114 493.983 861.437 495.562 857.937 495.819L857.954 495.836Z" fill="white"/>
</g>
<defs>
<clipPath id="clip0_1_1566">
<rect width="841" height="841" fill="white" transform="translate(79 79)"/>
</clipPath>
</defs>
</svg>
