<svg width="1001" height="1000" viewBox="0 0 1001 1000" fill="none" xmlns="http://www.w3.org/2000/svg">
<mask id="path-1-outside-1_42_11465" maskUnits="userSpaceOnUse" x="5.09766" y="180" width="958" height="640" fill="black">
<rect fill="white" x="5.09766" y="180" width="958" height="640"/>
<path d="M905.178 546.35C889.448 523.72 867.508 506.62 839.358 495.03C834.278 492.94 829.058 491.04 823.698 489.33C846.088 477.76 864.008 462.16 877.438 442.49C892.338 420.67 899.788 394.94 899.788 365.3C899.788 321.13 881.428 285.56 844.738 258.62C808.028 231.68 753.258 218.21 680.398 218.21H647.518L577.028 316.81H663.838C696.398 316.81 721.378 322.34 738.758 333.38C756.148 344.43 764.838 361 764.838 383.09C764.838 405.18 756.148 422.57 738.758 433.6C721.368 444.65 696.398 450.17 663.838 450.17H432.248L599.958 214H482.028L342.688 408.22L284.088 329.12H156.328L279.838 495.82L72.0977 785.37H194.238L341.118 578.52L385.168 637.97H512.918L444.438 545.55H687.028C721.798 545.55 748.148 551.35 766.088 562.93C784.018 574.52 792.998 592.16 792.998 615.87C792.998 639.58 784.018 657.77 766.088 668.81C748.148 679.86 721.798 685.38 687.028 685.38H313.558L243.068 783.98H696.958C773.128 783.98 830.788 770.38 869.988 743.16C909.168 715.96 928.768 678.1 928.768 629.61C928.768 596.75 920.898 568.99 905.168 546.36"/>
</mask>
<path d="M905.178 546.35C889.448 523.72 867.508 506.62 839.358 495.03C834.278 492.94 829.058 491.04 823.698 489.33C846.088 477.76 864.008 462.16 877.438 442.49C892.338 420.67 899.788 394.94 899.788 365.3C899.788 321.13 881.428 285.56 844.738 258.62C808.028 231.68 753.258 218.21 680.398 218.21H647.518L577.028 316.81H663.838C696.398 316.81 721.378 322.34 738.758 333.38C756.148 344.43 764.838 361 764.838 383.09C764.838 405.18 756.148 422.57 738.758 433.6C721.368 444.65 696.398 450.17 663.838 450.17H432.248L599.958 214H482.028L342.688 408.22L284.088 329.12H156.328L279.838 495.82L72.0977 785.37H194.238L341.118 578.52L385.168 637.97H512.918L444.438 545.55H687.028C721.798 545.55 748.148 551.35 766.088 562.93C784.018 574.52 792.998 592.16 792.998 615.87C792.998 639.58 784.018 657.77 766.088 668.81C748.148 679.86 721.798 685.38 687.028 685.38H313.558L243.068 783.98H696.958C773.128 783.98 830.788 770.38 869.988 743.16C909.168 715.96 928.768 678.1 928.768 629.61C928.768 596.75 920.898 568.99 905.168 546.36" fill="#010101"/>
<path d="M839.358 495.03L852.302 463.59L852.294 463.587L839.358 495.03ZM823.698 489.33L808.089 459.125L735.206 496.787L813.364 521.722L823.698 489.33ZM877.438 442.49L849.36 423.317L849.358 423.318L877.438 442.49ZM844.738 258.62L864.861 231.214L864.853 231.209L844.738 258.62ZM647.518 218.21V184.21H630.029L619.859 198.436L647.518 218.21ZM577.028 316.81L549.369 297.036L510.926 350.81H577.028V316.81ZM738.758 333.38L756.992 304.683L756.988 304.681L738.758 333.38ZM738.758 433.6L720.547 404.888L720.535 404.896L720.523 404.903L738.758 433.6ZM432.248 450.17L404.526 430.484L366.403 484.17H432.248V450.17ZM599.958 214L627.679 233.686L665.802 180H599.958V214ZM482.028 214V180H464.575L454.402 194.18L482.028 214ZM342.688 408.22L315.368 428.459L343.129 465.931L370.313 428.04L342.688 408.22ZM284.088 329.12L311.407 308.881L301.213 295.12H284.088V329.12ZM156.328 329.12V295.12H88.8213L129.009 349.361L156.328 329.12ZM279.838 495.82L307.463 515.64L321.914 495.498L307.156 475.579L279.838 495.82ZM72.0977 785.37L44.4722 765.55L5.85857 819.37H72.0977V785.37ZM194.238 785.37V819.37H211.795L221.96 805.055L194.238 785.37ZM341.118 578.52L368.436 558.278L340.532 520.619L313.396 558.835L341.118 578.52ZM385.168 637.97L357.85 658.212L368.044 671.97H385.168V637.97ZM512.918 637.97V671.97H580.427L540.236 617.728L512.918 637.97ZM444.438 545.55V511.55H376.928L417.12 565.792L444.438 545.55ZM766.088 562.93L784.545 534.376L784.536 534.37L784.526 534.364L766.088 562.93ZM766.088 668.81L748.261 639.858L748.257 639.861L766.088 668.81ZM313.558 685.38V651.38H296.07L285.899 665.607L313.558 685.38ZM243.068 783.98L215.409 764.206L176.966 817.98H243.068V783.98ZM869.988 743.16L850.598 715.231L850.595 715.233L869.988 743.16ZM933.096 526.944C913.246 498.388 885.834 477.396 852.302 463.59L826.413 526.47C849.181 535.844 865.649 549.052 877.26 565.756L933.096 526.944ZM852.294 463.587C846.339 461.137 840.25 458.922 834.031 456.938L813.364 521.722C817.865 523.158 822.216 524.743 826.422 526.473L852.294 463.587ZM839.306 519.535C866.383 505.543 888.712 486.275 905.517 461.662L849.358 423.318C839.304 438.045 825.792 449.977 808.089 459.125L839.306 519.535ZM905.516 461.663C924.734 433.519 933.788 400.916 933.788 365.3H865.788C865.788 388.964 859.941 407.821 849.36 423.317L905.516 461.663ZM933.788 365.3C933.788 309.919 909.957 264.327 864.861 231.214L824.615 286.026C852.898 306.793 865.788 332.341 865.788 365.3H933.788ZM864.853 231.209C819.746 198.107 756.484 184.21 680.398 184.21V252.21C750.031 252.21 796.309 265.253 824.622 286.031L864.853 231.209ZM680.398 184.21H647.518V252.21H680.398V184.21ZM619.859 198.436L549.369 297.036L604.686 336.584L675.176 237.984L619.859 198.436ZM577.028 350.81H663.838V282.81H577.028V350.81ZM663.838 350.81C693.364 350.81 710.904 355.967 720.527 362.079L756.988 304.681C731.851 288.713 699.431 282.81 663.838 282.81V350.81ZM720.523 362.077C727.27 366.364 730.838 371.62 730.838 383.09H798.838C798.838 350.38 785.026 322.496 756.992 304.683L720.523 362.077ZM730.838 383.09C730.838 395.105 726.85 400.89 720.547 404.888L756.969 462.312C785.445 444.25 798.838 415.255 798.838 383.09H730.838ZM720.523 404.903C710.895 411.021 693.371 416.17 663.838 416.17V484.17C699.424 484.17 731.84 478.279 756.992 462.297L720.523 404.903ZM663.838 416.17H432.248V484.17H663.838V416.17ZM459.969 469.856L627.679 233.686L572.236 194.314L404.526 430.484L459.969 469.856ZM599.958 180H482.028V248H599.958V180ZM454.402 194.18L315.062 388.4L370.313 428.04L509.653 233.82L454.402 194.18ZM370.007 387.981L311.407 308.881L256.768 349.359L315.368 428.459L370.007 387.981ZM284.088 295.12H156.328V363.12H284.088V295.12ZM129.009 349.361L252.519 516.061L307.156 475.579L183.646 308.879L129.009 349.361ZM252.212 476L44.4722 765.55L99.7231 805.19L307.463 515.64L252.212 476ZM72.0977 819.37H194.238V751.37H72.0977V819.37ZM221.96 805.055L368.84 598.205L313.396 558.835L166.516 765.685L221.96 805.055ZM313.8 598.762L357.85 658.212L412.486 617.728L368.436 558.278L313.8 598.762ZM385.168 671.97H512.918V603.97H385.168V671.97ZM540.236 617.728L471.756 525.308L417.12 565.792L485.6 658.212L540.236 617.728ZM444.438 579.55H687.028V511.55H444.438V579.55ZM687.028 579.55C718.963 579.55 737.656 585.046 747.649 591.496L784.526 534.364C758.639 517.654 724.632 511.55 687.028 511.55V579.55ZM747.63 591.484C754.685 596.044 758.998 602.214 758.998 615.87H826.998C826.998 582.106 813.35 552.996 784.545 534.376L747.63 591.484ZM758.998 615.87C758.998 630.047 754.347 636.111 748.261 639.858L783.914 697.762C813.688 679.429 826.998 649.113 826.998 615.87H758.998ZM748.257 639.861C738.121 646.104 719.172 651.38 687.028 651.38V719.38C724.423 719.38 758.175 713.616 783.919 697.759L748.257 639.861ZM687.028 651.38H313.558V719.38H687.028V651.38ZM285.899 665.607L215.409 764.206L270.726 803.753L341.216 705.154L285.899 665.607ZM243.068 817.98H696.958V749.98H243.068V817.98ZM696.958 817.98C776.26 817.98 842.008 803.982 889.38 771.087L850.595 715.233C819.568 736.778 769.995 749.98 696.958 749.98V817.98ZM889.377 771.089C937.889 737.411 962.768 689.021 962.768 629.61H894.768C894.768 667.179 880.446 694.509 850.598 715.231L889.377 771.089ZM962.768 629.61C962.768 591.175 953.488 556.305 933.086 526.954L877.25 565.766C888.308 581.674 894.768 602.325 894.768 629.61H962.768Z" fill="white" mask="url(#path-1-outside-1_42_11465)"/>
</svg>
