<svg width="253" height="367" viewBox="0 0 253 367" fill="none" xmlns="http://www.w3.org/2000/svg">
<g clip-path="url(#clip0_235_10188)">
<path d="M57.1484 94.2319C54.6626 95.0544 49.7641 96.8639 49.7641 96.8639C49.7641 96.8639 42.1789 100.026 38.4868 101.835C37.0063 102.548 35.544 103.334 34.0818 104.102C32.4003 104.979 30.7187 105.838 29.0554 106.771C26.6793 108.105 24.4129 109.695 21.9088 110.755C20.538 111.34 20.6842 112.144 20.6842 113.113C20.6842 116.184 20.6842 119.254 20.6842 122.325C20.6842 143.088 20.6842 166.978 20.6842 187.741C20.6842 188.655 20.6842 189.551 20.6842 190.465H20.739C20.739 201.376 20.739 203.752 20.739 214.664C20.739 215.469 26.1493 139.305 26.131 115.946C26.131 114.868 26.5148 114.374 27.3921 113.935C29.0554 113.095 57.1849 94.4513 57.1849 94.2502L57.1484 94.2319Z" fill="white"/>
<path d="M232.341 204.648C232.341 202.893 232.341 197.063 232.341 189.094H232.286C232.286 161.366 232.25 113.369 232.305 112.437C232.36 111.632 232.012 111.212 231.354 110.865C228.704 109.439 226.072 107.959 223.44 106.533C220.607 104.998 217.829 103.334 214.923 102C210.847 100.136 206.716 98.3445 202.512 96.8274C197.303 94.9265 192.021 93.2084 186.738 91.5269C186.738 91.5269 226.84 115.069 226.84 115.873C226.803 133.767 226.821 140.146 226.821 158.04C226.821 158.04 232.049 217.077 232.396 217.424C232.396 213.166 232.36 208.925 232.36 204.666L232.341 204.648Z" fill="white"/>
<path d="M49.8894 227.185L53.0515 225.814L52.5031 227.715L49.3594 229.067L49.6335 228.044" fill="white"/>
<path d="M24.4479 247.692L23.863 249.867L20.5547 250.361L25.8918 232.832L29.4011 232.302L30.0043 248.953L26.696 249.447V247.363L24.4479 247.692ZM25.179 244.932L26.696 244.713L26.7874 238.773L25.179 244.95V244.932Z" fill="white"/>
<path d="M38.3933 230.95L38.7771 234.02L36.5838 234.349L34.6463 248.259L31.2832 248.752L33.2207 234.843L31.0273 235.172L32.3251 231.864L38.3933 230.968V230.95Z" fill="white"/>
<path d="M40.1105 230.694L43.4919 230.182L41.5544 244.092L44.8627 243.598L43.8574 246.87L37.7344 247.784L40.1105 230.694Z" fill="white"/>
<path d="M47.8239 229.543L54.2212 228.592L54.3491 231.7L50.7667 232.23L50.2 236.287L52.9234 235.885L52.5213 238.828L49.7979 239.23L49.2862 242.959L52.7407 242.447L51.7354 245.719L45.4844 246.651L47.8605 229.561L47.8239 229.543Z" fill="white"/>
<path d="M62.4089 227.367L62.7927 230.438L60.5994 230.767L58.662 244.676L55.2989 245.17L57.2363 231.26L55.043 231.589L56.3407 228.281L62.4089 227.385V227.367Z" fill="white"/>
<path d="M64.13 227.112L67.42 226.618L65.0439 243.708L61.7539 244.201L64.13 227.112Z" fill="white"/>
<path d="M68.974 243.141C67.0913 243.415 66.5247 242.775 66.7806 240.875L68.4987 228.519C68.6815 227.166 69.632 226.289 70.7103 226.143L75.0422 225.503L75.1701 228.61L72.0264 229.085C71.807 229.122 71.7156 229.25 71.6791 229.451L70.29 239.522C70.2534 239.741 70.3082 239.851 70.5458 239.814L73.6896 239.339L72.6661 242.611L68.9922 243.159L68.974 243.141Z" fill="white"/>
<path d="M83.1739 238.645C82.9911 239.943 82.3148 241.149 80.4871 241.423L76.6853 241.99C74.8575 242.264 74.492 241.204 74.6565 239.906L76.3746 227.459C76.5573 226.106 77.3616 225.138 78.8969 224.918L82.9728 224.315C84.5082 224.077 85.0748 224.863 84.892 226.198L83.1739 238.645ZM79.8656 227.715C79.6463 227.751 79.5549 227.879 79.5183 228.08L78.0744 238.499C78.0378 238.755 78.0744 238.846 78.3486 238.809L79.5915 238.627C79.8656 238.59 79.9205 238.48 79.957 238.224L81.401 227.806C81.4375 227.587 81.3827 227.477 81.1451 227.514L79.8474 227.715H79.8656Z" fill="white"/>
<path d="M252.611 184.122H252.538C252.538 151.076 252.501 93.885 252.556 92.7883C252.611 91.8196 252.209 91.3261 251.423 90.9057C248.261 89.2058 245.135 87.4512 241.991 85.7331C238.628 83.9053 235.32 81.913 231.829 80.3228C226.967 78.0929 222.05 75.9727 217.042 74.1449C210.353 71.714 203.572 69.5207 196.791 67.3639C194.469 66.6328 185.276 64.0739 182.918 63.4707C182.223 65.5909 181.419 67.6746 180.468 69.7034C181.218 69.8862 188.785 71.9699 189.516 72.1527C192.386 72.902 195.292 73.5783 198.125 74.4739C202.128 75.7351 206.094 77.1242 210.06 78.5499C213.241 79.6831 216.439 80.8346 219.546 82.1506C222.654 83.4666 225.706 84.9471 228.74 86.4276C232.524 88.2737 236.289 90.1746 240.036 92.0937C241.717 92.9528 243.326 93.9398 244.952 94.9085C245.665 95.3289 246.049 95.859 246.031 96.8277C245.994 118.158 245.994 125.743 245.994 147.073H246.031C246.031 154.129 246.031 178.657 246.031 185.713H246.104C246.104 197.776 246.104 209.839 246.086 221.903C246.086 227.386 245.775 232.869 244.715 238.28C243.874 242.575 243.18 246.907 242.083 251.129C241.206 254.529 239.889 257.819 238.701 261.145C238.007 263.083 237.331 265.02 236.435 266.866C235.375 269.096 234.15 271.253 232.889 273.373C230.403 277.577 228.027 281.89 225.249 285.893C221.1 291.888 216.549 297.609 211.413 302.819C207.885 306.383 204.211 309.819 200.629 313.328C195.493 318.373 189.9 322.869 184.051 327.055C179.39 330.4 174.693 333.69 169.904 336.852C166.248 339.264 162.428 341.44 158.645 343.688C156.049 345.241 153.454 346.831 150.785 348.239C147.02 350.213 143.218 352.077 139.38 353.887C135.834 355.568 132.215 357.14 128.614 358.712C127.244 359.297 125.928 359.608 124.392 358.785C122.126 357.579 119.64 356.793 117.3 355.714C114.559 354.453 111.872 353.046 109.167 351.693C107.138 350.688 105.091 349.738 103.099 348.696C101.179 347.691 99.3152 346.594 97.4326 345.534C96.2628 344.876 95.0564 344.273 93.8867 343.578C90.0849 341.312 86.2283 339.118 82.5362 336.687C78.2226 333.854 73.9822 330.912 69.8148 327.859C57.3494 318.72 45.9075 308.466 35.9279 296.622C34.3194 294.721 33.1131 292.437 31.3584 290.719C29.4575 288.873 28.2512 286.606 26.7524 284.522C25.0526 282.183 23.5904 279.679 22.1099 277.193C20.6842 274.799 19.222 272.404 18.0339 269.882C16.4438 266.501 14.9998 263.064 13.7021 259.555C12.4044 256.046 11.2529 252.481 10.3024 248.881C9.46165 245.664 8.98643 242.337 8.3467 239.066C6.73826 230.968 6.95759 222.762 6.95759 214.555C6.95759 204.393 6.95759 194.23 6.95759 184.086H6.90276C6.90276 155.646 6.90276 124.72 6.8662 96.9008C6.8662 95.6214 7.34143 95.0365 8.38326 94.5064C10.3755 93.5194 12.313 92.4045 14.2687 91.3444C16.4438 90.1746 18.5823 88.9682 20.7939 87.8716C23.9925 86.2814 27.2276 84.7278 30.4994 83.2838C33.9356 81.7851 37.4084 80.3959 40.9177 79.0617C43.2938 78.1661 45.743 77.4532 48.174 76.6856C51.8295 75.5341 55.4668 74.346 59.1406 73.2676C60.1642 72.9752 61.1877 72.6827 62.2296 72.4085C59.8535 71.4581 57.4773 70.5625 55.0647 69.7948C53.4928 69.5207 51.9026 69.2282 50.3307 68.954C49.7459 69.1368 49.1792 69.3013 48.5944 69.4841C44.0432 70.9098 39.5286 72.4451 35.0688 74.1632C30.4994 75.9179 26.0396 77.9467 21.6164 80.0852C19.8434 80.9443 18.107 81.8764 16.3706 82.7903C14.3784 83.8322 12.3495 84.8557 10.3938 85.9524C7.56076 87.5426 4.85565 89.4252 1.87637 90.7046C0.249651 91.3992 0.414151 92.3496 0.414151 93.5194C0.414151 97.175 0.414151 100.831 0.414151 104.486C0.414151 129.216 0.414151 157.693 0.414151 182.423C0.414151 183.501 0.414151 184.598 0.414151 185.676H0.468984C0.468984 198.672 0.468984 211.685 0.450706 224.681C0.450706 225.65 0.267929 226.618 0.322762 227.587C0.414151 229.104 0.633484 230.621 0.779706 232.157C0.980762 234.24 1.09043 236.342 1.41943 238.426C1.76671 240.601 2.33332 242.739 2.77198 244.914C3.22893 247.144 3.50309 249.447 4.12454 251.622C5.09326 255.004 6.28131 258.33 7.43281 261.675C9.55304 267.743 12.2581 273.556 15.5116 279.076C19.8434 286.442 24.6505 293.497 30.2617 299.967C33.0582 303.202 35.9096 306.383 38.834 309.508C40.8811 311.72 43.0379 313.822 45.2312 315.905C47.4977 318.044 49.8555 320.109 52.1951 322.156C54.2787 323.966 56.3624 325.775 58.5375 327.475C61.5167 329.797 64.5326 332.063 67.6032 334.275C71.0212 336.742 74.4391 339.264 77.985 341.531C82.7372 344.565 87.5626 347.508 92.4976 350.231C98.8582 353.722 105.31 357.049 111.817 360.247C115.857 362.24 120.042 363.976 124.228 365.676C125.27 366.096 126.586 366.243 127.664 366.005C129.419 365.621 131.118 364.908 132.782 364.214C134.865 363.336 136.913 362.368 138.941 361.381C141.354 360.211 143.767 359.023 146.161 357.798C150.365 355.66 154.605 353.576 158.736 351.291C162.995 348.933 167.107 346.32 171.366 343.962C172.243 343.487 173.029 343.048 173.669 342.299C173.797 342.134 173.998 342.024 174.181 341.915C177.233 339.868 180.359 337.912 183.338 335.755C187.999 332.374 192.66 328.974 197.174 325.373C200.629 322.613 203.919 319.634 207.117 316.563C210.773 313.036 214.337 309.417 217.737 305.652C221.264 301.74 224.682 297.701 227.936 293.552C230.257 290.572 232.414 287.429 234.333 284.193C237.239 279.295 252.519 256.393 252.519 227.715C252.519 219.38 252.666 211.027 252.666 202.674C252.666 200.591 252.666 193.627 252.666 184.141L252.611 184.122Z" fill="white"/>
<path d="M224.262 290.882L99.1328 313.492L219.163 299.199C221.009 296.512 222.745 293.77 224.262 290.882Z" fill="white"/>
<path d="M5.45703 221.993L75.4243 216.017L5.76775 227.806L5.45703 221.993Z" fill="white"/>
<path d="M111.417 240.254L108.766 238.06C108.547 237.877 86.23 216.986 84.8409 198.653C84.786 197.831 84.6946 197.081 84.6032 196.369C84.2742 193.59 84.0001 191.159 85.7182 188.454C85.3892 187.632 84.8043 186.389 84.256 185.183C83.3421 183.209 82.3002 180.96 81.7336 179.297L81.2036 177.725L84.9871 169.391L82.4465 169.336L85.3344 159.228C79.1382 160.361 72.6313 160.453 66.362 159.521C61.8109 158.863 57.7349 157.199 54.5729 154.695C48.1574 149.742 43.332 140.895 41.358 130.422L40.7914 127.224L41.8698 126.712C47.3532 124.116 52.9644 120.936 58.5574 117.244C60.7508 115.763 63.072 114.173 65.0643 112.327C65.2836 111.688 65.174 110.774 65.0643 109.805V109.677C64.5525 106.46 63.2 102.841 61.9023 99.35C61.5184 98.3082 61.1346 97.2846 60.8056 96.3159L60.5314 95.4934C59.9283 93.7022 59.3068 91.8561 59.0326 89.7907C58.923 88.8951 58.8499 87.1953 59.581 85.7879C60.9701 83.1559 62.3409 80.4507 63.6569 77.7456C63.3645 77.6177 63.0903 77.4897 62.8161 77.3618L62.414 77.179L62.0668 76.9231C62.0668 76.9231 61.9936 76.8683 61.9754 76.85C58.3564 77.3801 54.9933 77.6542 51.9774 77.6542C43.1127 77.6542 38.397 75.3878 35.9661 73.359C35.5457 73.2859 35.1436 73.1762 34.7598 73.0117C33.1148 72.3537 31.8902 71.0377 31.3053 69.3196L31.0859 68.6798V68.0036C31.0859 66.0478 31.6891 64.1469 32.8954 62.3374L33.133 61.9902L33.4255 61.6977C34.7963 60.3269 36.2403 59.3033 38.2325 58.3163C39.2927 57.7863 42.5278 56.5982 43.6062 56.2327C49.4917 54.3318 55.3771 52.7233 61.0615 51.1697L62.3592 50.8042C61.7743 46.1799 61.6646 41.2814 62.0485 36.2002V36.1088C63.5107 22.5832 65.7771 12.7498 69.3961 4.1592L71.0046 0.357422L74.7698 2.07554C81.4229 5.10965 88.0395 11.5617 92.4079 17.0633C93.3035 16.186 94.2174 15.3452 95.1312 14.541C102.296 8.38138 112.093 7.24815 118.838 6.91915C122.731 6.73637 126.733 6.80949 131.029 7.15676C133.569 4.59787 139.491 2.27659 144.883 3.81193C150.732 5.47521 152.706 9.31354 153.346 11.3424C157.458 12.8594 161.151 14.87 164.386 17.3375C174.438 9.77049 182.261 7.97926 182.59 7.90615L185.899 7.17504L186.977 10.3737C187.251 11.1779 193.648 30.5523 188.951 53.5093C188.256 56.9089 186.867 60.5462 184.839 64.3297C184.528 65.6275 181.804 76.9597 179.702 81.2732C177.911 84.9471 174.713 87.7436 172.94 89.2606C174.311 96.261 177.107 110.28 178.277 114.868C178.533 114.904 178.789 114.923 179.008 114.959C180.891 115.16 181.293 115.233 181.713 115.489C183.321 116.476 186.027 118.103 188.823 122.161C190.486 124.573 191.4 126.858 191.949 128.796C193.904 125.688 197.487 121.832 204.085 118.597C212.109 114.649 229.509 115.16 230.259 115.179L232.05 115.233L231.758 117.006C231.648 117.646 229.199 131.958 219.658 139.049C224.446 143.144 230.259 144.021 230.368 144.021L238.795 145.136L232.324 150.638C232.123 150.802 227.298 154.841 220.444 156.925C217.739 157.748 215.052 158.15 212.456 158.15C210.683 158.15 208.874 157.364 207.192 156.468L213.005 167.654L208.38 168.988C208.252 169.025 194.946 173.083 178.661 186.133C153.364 206.421 114.433 237.841 114.085 238.133L111.417 240.29V240.254ZM84.585 177.908L84.7129 178.292C85.2064 179.772 86.2117 181.947 87.1073 183.848C88.0212 185.804 88.734 187.339 88.9899 188.271L89.191 189.021L88.7157 189.642C87.217 191.635 87.3997 193.188 87.7287 196.003C87.8201 196.734 87.9115 197.538 87.9846 198.416C89.2824 215.432 110.576 235.447 110.777 235.629L111.435 236.178L112.111 235.629C112.459 235.337 151.408 203.917 176.705 183.629C193.594 170.085 207.375 165.954 207.503 165.918L208.435 165.644L200.064 149.523L204.048 151.168C205.035 151.57 206.059 152.155 207.137 152.776C208.91 153.8 210.939 154.951 212.456 154.951C214.741 154.951 217.135 154.586 219.53 153.854C225.781 151.972 230.113 148.335 230.295 148.188L231.374 147.274L229.966 147.092C229.966 147.092 221.833 145.958 216.02 139.854L214.668 138.428L216.368 137.423C224.044 132.817 227.279 122.435 228.303 118.231C223.606 118.213 211.396 118.45 205.529 121.356C198.364 124.884 195.22 129.051 193.831 131.939C193.758 132.14 193.776 132.835 193.776 133.255C193.795 134.425 193.831 135.759 192.716 136.436C192.332 136.673 191.528 136.966 190.432 136.344L189.737 135.96L189.646 135.156C189.646 135.028 189.646 135.01 189.646 134.005C189.646 133.694 189.646 133.365 189.646 133.219C189.408 131.263 188.951 127.717 186.301 123.861C183.979 120.497 181.896 119.163 180.342 118.213C179.995 118.158 179.227 118.066 178.734 118.012C177.016 117.829 176.614 117.774 176.175 117.463L175.736 117.153L175.59 116.641C174.585 113.314 171.514 97.8329 169.759 88.8951L169.595 88.0178L170.271 87.4146C170.454 87.2501 170.673 87.0673 170.929 86.848C172.611 85.404 175.444 82.9731 176.961 79.8293C178.551 76.5576 180.671 68.3691 181.512 64.9512L181.055 64.8415L182.024 63.0137C183.979 59.413 185.314 55.9585 185.972 52.7964C190.505 30.662 184.363 12.0735 184.107 11.3058L183.925 10.7758L183.376 10.9037C183.047 10.9768 175.407 12.7132 165.446 20.4996L164.459 21.2672L163.49 20.4813C160.109 17.7396 156.124 15.528 151.61 13.9561L150.769 13.6637L150.586 12.7863C150.385 11.7445 149.307 8.25343 144.116 6.77293C139.327 5.42037 134.301 7.97926 133.039 9.66082L132.509 10.3737L131.632 10.3005C127.172 9.91671 123.06 9.82532 119.057 10.0081C112.769 10.3005 103.685 11.3424 97.2515 16.8623C95.9537 17.9772 94.6743 19.1836 93.468 20.463L92.1885 21.8338L91.0736 20.3351C86.9794 14.87 80.2349 7.94271 73.5269 4.87204L72.7044 4.50648L72.3571 5.32898C68.8478 13.6088 66.6545 23.1864 65.2471 36.3464V36.4012C64.845 41.7384 65.0095 46.8927 65.7223 51.6815L65.9234 53.0706L61.9388 54.1673C56.2727 55.7209 50.4238 57.3293 44.6298 59.1937C43.5514 59.5592 40.499 60.6924 39.6948 61.0946C38.0315 61.9353 36.8434 62.7578 35.7102 63.8911L35.5823 64.0556C34.7232 65.335 34.3028 66.651 34.3028 67.967V68.1315L34.3577 68.296C34.6318 69.1368 35.1984 69.74 35.9844 70.0507C36.2403 70.1603 36.5327 70.2152 36.8434 70.2517L37.3735 70.3066L37.7756 70.6721C39.3292 72.0978 43.2407 74.4739 52.0323 74.4739C55.0664 74.4739 58.5026 74.1815 62.1947 73.6149L62.8161 73.5235L63.3279 73.889C63.5655 74.0535 63.7849 74.218 64.0042 74.3825L64.187 74.4922C64.9546 74.8395 65.704 75.1867 66.4534 75.4975L67.9522 76.1372L67.2576 77.6177C65.7223 80.8529 64.0956 84.088 62.4323 87.2318C62.1947 87.6888 62.1033 88.5113 62.213 89.3703C62.4506 91.1067 62.9989 92.7517 63.5838 94.4698L63.858 95.2923C64.187 96.2245 64.5525 97.2298 64.9364 98.2533C66.2341 101.744 67.6963 105.692 68.2446 109.22V109.421C68.4457 110.81 68.6285 112.4 67.8974 113.899L67.7877 114.082C67.7877 114.082 67.7146 114.192 67.6598 114.246L67.5684 114.374L67.3307 114.594C65.1557 116.623 62.7065 118.322 60.3669 119.876C55.0115 123.404 49.6379 126.474 44.3739 129.033C44.447 129.454 44.4835 129.691 44.5201 129.837C46.3662 139.561 50.7528 147.713 56.5834 152.209C59.3251 154.384 62.8893 155.828 66.8921 156.413C73.6549 157.437 80.6918 157.163 87.2718 155.646L89.8855 155.042L86.6686 166.283L89.9038 166.356L84.6398 177.926L84.585 177.908Z" fill="white"/>
<path d="M69.1737 52.5954C68.3147 47.6787 68.0771 42.3598 68.4975 36.6754C69.7404 25.1604 71.5681 16.515 74.3646 9.11253C80.9629 13.024 87.3053 20.4813 90.0104 24.7035L91.6737 23.6434C92.2586 22.8026 92.8983 21.9801 93.5563 21.1942C89.8276 15.7291 82.0778 7.10197 74.127 3.46469L71.8423 2.42285L70.8553 4.74413C67.2911 13.1702 65.0613 22.8757 63.6356 36.2185V36.2916C63.1786 42.3781 63.4345 48.0991 64.3484 53.3996C65.9569 53.162 67.5653 52.8879 69.1737 52.6137V52.5954Z" fill="white"/>
<path d="M78.2045 50.8767C77.1809 44.4612 77.5465 37.1318 79.356 28.3767C81.33 30.4421 83.3223 32.5441 85.0404 34.5912L85.8263 33.9332C86.4112 32.672 87.0509 31.4291 87.7089 30.2045C85.8446 28.0843 83.7975 25.964 81.8235 23.8987C81.1289 23.1675 80.4344 22.4547 79.7581 21.7419L76.6874 18.4336L75.609 22.8385C73.7447 30.4056 71.6793 41.1346 73.4157 51.8089C75.0241 51.4981 76.6143 51.1874 78.2228 50.8767H78.2045Z" fill="white"/>
<path d="M81.5272 52.1746L76.6836 50.164C77.0126 49.3964 77.3964 48.0987 77.8351 46.6182C79.9736 39.4715 83.9581 26.1653 96.1677 15.6921C102.967 9.84321 112.417 8.76482 118.924 8.4541C126.034 8.12509 133.619 8.65515 142.758 10.1539C151.604 11.5979 159.007 14.7599 164.746 19.5487C165.404 20.0971 165.916 20.7002 166.373 21.2303C166.482 21.3582 166.592 21.4862 166.702 21.6141L162.772 25.1052C162.644 24.959 162.516 24.8127 162.388 24.6665C162.022 24.2461 161.693 23.8623 161.364 23.5881C156.356 19.4025 149.795 16.6243 141.899 15.3448C133.125 13.9192 125.906 13.3891 119.161 13.7181C110.041 14.1568 103.826 16.0394 99.5674 19.6949C88.5276 29.1628 84.8355 41.5186 82.8432 48.1352C82.3314 49.835 81.9293 51.1693 81.5089 52.1929L81.5272 52.1746Z" fill="white"/>
<path d="M65.6806 86.2622C67.545 88.8028 69.6835 91.1241 71.9682 93.2809C73.9604 95.2366 76.2635 96.5892 77.5063 99.3126C78.3288 101.25 78.0912 103.407 77.6708 105.381C76.6656 109.895 73.4487 113.569 69.848 116.22C68.4406 117.243 66.9783 118.157 65.4796 118.961L63.9991 116.475C66.5945 114.739 69.1168 112.783 71.0543 110.371C73.0831 107.867 74.8012 103.9 73.8508 100.884C72.8821 99.0749 70.6522 97.7589 69.1717 96.2602C66.6493 93.8841 64.3098 91.3069 62.3906 88.419L65.6623 86.2622H65.6806Z" fill="white"/>
<path d="M83.5391 99.3308C90.7588 99.6964 96.4614 96.1688 102.895 92.2756C103.736 91.7638 104.595 91.1606 105.436 90.6489C114.41 85.33 121.283 86.4632 128.374 90.0457C129.343 90.5392 130.294 91.1058 131.153 91.8004C128.996 91.581 126.912 91.5079 124.883 91.5262C119.108 91.581 113.222 92.8605 108.342 95.7301C106.569 96.7719 104.723 97.8869 102.987 99.0018C94.0671 104.704 89.0224 103.498 83.5391 99.3125V99.3308Z" fill="white"/>
<path d="M108.325 104.98C104.669 104.98 100.301 103.81 95.293 101.47L96.9562 97.9244C104.304 101.361 109.933 101.982 113.223 99.7521C117.409 96.9008 117.025 90.1015 117.025 90.0283L120.937 89.7725C120.955 90.138 121.467 98.8565 115.453 102.969C113.498 104.303 111.122 104.98 108.343 104.98H108.325Z" fill="white"/>
<path d="M119.91 116.238C124.589 110.938 134.788 109.841 138.809 116.403C131.9 111.395 127.02 116.695 119.91 116.238Z" fill="white"/>
<path d="M73.5935 106.186C72.3506 106.186 70.8701 105.911 69.4079 105.016C66.1727 103.005 64.3266 98.6734 63.9062 92.1299L67.8177 91.874C68.1467 97.0101 69.4079 100.391 71.4732 101.689C73.2096 102.768 75.1105 102.036 75.1288 102.036L76.6276 105.655C76.6276 105.655 75.2933 106.204 73.5935 106.204V106.186Z" fill="white"/>
<path d="M108.98 188.454L99.8232 176.281L94.5592 183.3L93.0056 178.475C91.7261 174.508 91.7079 170.56 91.9455 167.946L84.543 167.8L88.6189 153.544L93.6636 154.988L91.4702 162.682L98.233 162.81L97.5202 165.954C97.5202 165.954 97.0267 168.202 97.0998 171.163L99.8232 167.526L111.192 182.624C114.391 181.801 122.159 179.461 131.407 174.07C142.52 167.599 158.111 155.28 169.242 133.31C173.994 123.934 175.749 116.622 175.749 116.549L180.867 117.756C180.794 118.085 178.966 125.761 173.921 135.704C162.169 158.899 145.627 171.913 133.838 178.749C121.007 186.188 111.009 188.089 110.589 188.162L108.999 188.454H108.98Z" fill="white"/>
<path d="M69.7933 77.6537C68.2945 81.0168 66.6312 84.3251 64.84 87.5237L65.041 87.0851C64.84 87.7065 64.6755 88.0903 64.6572 88.3279C64.6572 88.3279 64.6572 88.3279 64.6572 88.4011L64.6938 88.5473V88.6387C65.7356 92.8426 67.7096 96.8637 69.2815 101.031C70.8351 105.217 72.5166 110.005 70.762 114.447C70.1771 115.891 69.1901 117.262 67.9106 118.194L67.2526 118.706C66.156 119.583 65.1507 120.46 63.9627 121.411C58.5524 125.669 51.5703 128.283 45.7945 131.409L47.1471 128.758C48.6824 136.965 53.654 144.752 60.3802 149.76C62.2994 151.13 64.4196 151.807 66.814 152.172C78.1462 153.982 89.8257 152.136 100.08 146.835C100.08 146.835 104.064 144.002 105.599 142.869C108.56 140.73 111.357 138.172 113.971 135.613C115.177 134.479 116.328 132.853 117.955 131.39C119.216 129.983 122.159 126.638 123.822 124.5C125.742 122.05 127.514 119.51 129.159 116.841L129.251 116.878C127.423 122.964 124.17 128.521 120.587 133.73C119.399 135.064 118.522 136.709 117.078 138.464C113.331 143.052 109.182 147.639 104.155 150.875L102.748 151.807C97.2099 154.914 91.1782 157.217 84.909 158.368C79.4074 159.392 73.7413 159.557 68.2031 158.844C64.1637 158.478 59.8867 157.473 56.5602 154.896C48.591 148.736 42.998 139.488 41.9379 129.435L41.7734 127.607L43.2905 126.784C49.377 123.476 55.4452 121.356 60.7458 117.28C62.0252 116.275 63.4874 114.977 64.8583 113.953C67.801 111.321 65.4797 106.076 64.4013 102.914C62.6466 98.2711 60.0695 93.0071 59.4298 88.6569C59.3384 87.4872 59.7222 86.4636 60.0878 85.4583L60.1791 85.2207L60.2888 85.0197C62.0069 81.9124 63.5971 78.7869 65.041 75.5518L69.8298 77.7085L69.7933 77.6537Z" fill="white"/>
<path d="M174.689 75.8986L173.062 74.674C161.748 66.12 140.272 58.5896 140.053 58.5165L138.371 57.9316L138.59 56.1586C138.645 55.7017 140.126 44.9726 153.048 30.1127C168.091 12.8219 182.347 9.53194 182.951 9.38572L184.87 8.96533L185.509 10.8297C185.784 11.6339 192.053 30.6062 187.429 53.1428C185.217 63.945 176.389 73.9612 176.023 74.3816L174.671 75.8986H174.689ZM143.361 55.0254C148.643 56.9811 163.923 62.9031 174.013 69.9218C176.444 66.8511 181.635 59.6131 183.133 52.2654C186.661 35.066 183.389 19.7127 181.945 14.3025C177.705 15.8012 167.232 20.5169 156.393 33.0006C147.327 43.419 144.311 51.6257 143.361 55.0254Z" fill="white"/>
<path d="M112.142 242.739L110.35 240.801C109.985 240.417 101.413 231.077 94.0649 219.891C84.1949 204.849 81.4167 193.809 85.8216 187.046C85.3647 185.401 84.2315 181.819 83.2079 178.785L82.8789 177.798L89.9524 162.225L94.7412 164.4L88.5267 178.09C88.8375 179.004 89.3127 180.448 89.7696 181.892C91.4146 187.101 91.7253 188.033 90.6652 189.331C86.9548 193.846 89.7331 203.679 98.4698 216.985C103.642 224.863 109.583 231.936 112.471 235.245C120.622 227.678 152.28 198.506 174.396 180.759C187.574 170.194 198.742 165.223 203.732 163.34C202.653 160.763 200.807 156.559 198.614 152.264C192.399 140.017 189.073 138.043 188.195 137.733C186.349 137.056 186.13 135.229 185.947 133.766C185.728 131.92 185.399 129.142 183.224 125.98C181.25 123.129 179.568 122.105 178.197 121.264C177.247 120.68 176.26 120.095 175.565 119.053C175.163 118.45 172.641 112.911 170.758 105.29C169.57 100.464 168.327 94.3595 167.45 88.9675C165.915 79.5362 166.372 78.9879 167.121 78.074C167.669 77.416 168.474 77.0504 169.333 77.087L169.077 82.3327C170.576 82.4058 171.599 81.1995 171.672 80.3039C171.526 82.0037 173.336 93.8112 175.84 104.047C177.393 110.371 179.422 115.087 179.952 116.183C180.135 116.329 180.555 116.585 180.903 116.805C182.511 117.773 184.924 119.254 187.519 123.019C190.444 127.241 190.901 131.098 191.138 133.163C191.138 133.236 191.138 133.291 191.156 133.364C193.66 134.753 197.444 138.464 203.275 149.942C206.875 157.052 209.507 163.687 209.617 163.98L210.677 166.666L207.899 167.471C207.771 167.507 194.264 171.547 177.631 184.889C152.334 205.178 114.408 240.6 114.024 240.947L112.087 242.757L112.142 242.739Z" fill="white"/>
<path d="M103.644 217.187C104.247 217.955 104.96 218.613 105.709 218.978C109.419 220.715 114.61 215.505 117.224 213.093C123.548 206.86 129.452 199.384 135.41 192.768C144.988 182.112 154.73 171.474 165.678 162.171C167.232 160.891 168.913 159.539 170.686 158.552C167.652 161.293 165.112 164.51 162.443 167.581C153.487 178.347 144.019 189.862 135.026 200.518C130.42 205.946 125.668 211.868 120.075 216.31C116.273 219.325 109.364 224.151 104.685 220.495C103.077 219.143 101.779 215.451 101.578 215.012C101.578 215.012 103.168 216.602 103.644 217.187Z" fill="white"/>
<path d="M111.157 212.471C106.404 209.163 101.835 205.562 97.503 201.687C93.0615 197.666 88.9125 193.462 85.5859 188.326L90.7951 185.603C92.9336 190.611 96.2419 195.326 99.6415 199.676C103.206 204.155 107.062 208.432 111.157 212.471Z" fill="white"/>
<path d="M149.887 62.1725C153.286 51.6628 159.647 42.1035 167.872 34.7192C169.024 33.7322 170.669 32.3431 171.875 31.4475C173.118 30.5519 175.914 28.5596 177.194 27.664L177.76 31.5572C177.907 32.4345 177.852 33.3301 177.45 34.2257C176.755 35.7794 174.799 36.876 173.026 35.9439C171.454 35.1214 171.199 33.056 172.204 31.6851C172.643 31.0088 173.392 30.3691 173.922 30.0036L177.285 27.4995C178.93 38.6855 178.711 50.4199 173.538 60.7103C172.076 63.653 170.23 66.3947 168.018 68.7525C170.815 63.0316 172.551 56.9999 173.246 50.7489C173.959 44.6075 173.739 38.3931 172.953 32.27L176.792 33.9333C176.536 34.1344 176.316 34.3171 176.243 34.4085C176.298 34.3354 176.335 34.2623 176.371 34.1526C176.993 32.4528 174.946 30.6616 173.41 31.7034C173.191 31.8679 173.081 32.0324 173.026 32.1604C172.917 32.4162 172.972 32.4711 172.953 32.3614L176.718 33.9881C165.807 41.281 157.234 51.3703 149.887 62.1725Z" fill="white"/>
<path d="M62.6485 146.579C62.6485 146.579 63.8 144.404 66.5417 141.096C69.2834 137.788 69.9231 135.887 69.9231 135.887C69.9231 135.887 68.4791 134.37 65.9751 134.955C64.4032 135.32 64.7505 136.91 62.7765 136.618C60.8025 136.325 62.0454 132.871 64.8967 132.816C66.8707 132.779 68.2415 133.949 70.4897 133.255C71.0563 133.09 71.5681 133.035 72.025 132.67C72.8292 132.012 73.7066 130.659 73.7066 130.659C73.9076 130.422 73.8528 130.056 73.5969 129.892C72.9389 129.435 71.5315 128.667 69.4661 128.448C66.432 128.155 57.7501 127.991 55.8126 128.375C53.7655 128.777 52.5409 130.476 52.0109 131.61C51.8646 131.939 52.1205 132.414 52.4495 132.597C54.2408 133.602 54.4784 131.975 56.5072 132.268C58.7554 132.578 59.6875 135.777 57.6039 136.033C56.69 136.143 56.3244 134.735 55.1181 134.662C53.2903 134.534 52.6506 135.686 52.6506 135.686C52.6506 135.686 53.4365 138.391 56.1051 141.717C58.6091 144.843 62.6668 146.579 62.6668 146.579H62.6485Z" fill="white"/>
<path d="M130.205 60.2539C129.894 47.6971 137.223 26.2938 150.438 22.3823C149.049 23.6618 147.843 24.996 146.746 26.4034C144.041 29.9128 141.957 33.8242 140.038 37.8088C136.474 45.1747 133.732 52.76 130.205 60.2539Z" fill="white"/>
<path d="M145.301 205.873C154.769 188.071 183.758 152.593 199.805 149.961L200.409 154.823C185.677 157.09 154.806 194.578 144.68 207.207L145.283 205.892L145.301 205.873Z" fill="white"/>
<path d="M88.6032 82.3332C80.9997 82.3332 72.6833 80.213 63.453 75.9177L63.1971 75.808L62.9778 75.6435C55.8678 70.3064 46.3633 68.698 38.778 71.5493L38.6867 71.5859C37.5352 71.9697 36.3471 71.9514 35.3053 71.531C34.0989 71.0375 33.1851 70.0871 32.7647 68.8076L32.6367 68.4055V67.9851C32.6367 66.3584 33.1668 64.7317 34.1903 63.1964L34.3366 62.977L34.5193 62.7942C35.7622 61.5513 37.0782 60.6192 38.906 59.7053C39.8564 59.2301 43.0185 58.0603 44.0786 57.713C49.9092 55.8304 55.7764 54.222 61.4608 52.6683C67.0903 51.133 72.9026 49.5246 78.587 47.6968L80.1955 52.7049C74.4014 54.5692 68.516 56.196 62.8499 57.7496C57.2203 59.2849 51.408 60.8934 45.7236 62.7211C44.6087 63.0867 41.8304 64.1468 41.2638 64.421C40.1854 64.951 39.436 65.4445 38.7415 66.066C47.5514 63.4888 57.9697 65.4628 65.9205 71.2934C78.2398 76.9778 88.6032 78.4583 97.5776 75.8629L97.7421 75.8263C98.9667 75.5521 104.048 73.6513 108.946 71.8052C118.579 68.1862 125.634 65.5907 128.595 65.0424C131.081 64.5855 136.893 63.5071 137.935 62.9039C137.935 62.9039 137.734 63.0319 137.515 63.3243L141.755 66.4132C140.677 67.8937 138.629 68.5335 129.527 70.215C126.785 70.7268 117.903 74.0534 110.756 76.7219C104.468 79.0798 100.502 80.5603 98.9302 80.9258C95.6219 81.8763 92.1674 82.3515 88.5667 82.3515L88.6032 82.3332Z" fill="white"/>
<path d="M37.0781 69.1366C37.0781 69.1366 40.8982 76.7402 63.5626 72.847C63.5626 72.847 54.0582 63.507 37.0781 69.1366Z" fill="white"/>
<path d="M51.9368 76.0456C38.6671 76.0456 35.5599 70.8182 35.1943 70.0871L34.0977 67.912L36.4007 67.1444C54.4043 61.1675 64.6033 70.9279 65.0236 71.3482L67.9481 74.2179L63.9087 74.9124C59.193 75.7166 55.245 76.0456 51.9185 76.0456H51.9368ZM41.6098 70.0688C44.187 71.2751 49.0306 72.4084 57.6943 71.531C54.258 69.9409 48.8295 68.5517 41.6098 70.0688Z" fill="white"/>
<path d="M147.932 13.2975C147.932 13.1878 147.456 10.4827 143.326 9.31295C139.761 8.30767 135.74 10.3548 135.101 11.1956L131.555 8.94739C132.926 6.75406 138.884 3.68339 144.477 5.25528C151.441 7.22928 152.081 12.5664 152.099 12.804L147.913 13.2427V13.2792L147.932 13.2975Z" fill="white"/>
<path d="M169.206 89.7907L168.749 81.255C165.404 79.3175 153.651 72.6644 139.449 66.7607C127.825 61.9171 114.244 57.2197 76.2266 53.0523L76.6835 48.8667C118.466 53.4544 132.065 59.1205 141.076 62.8675C158.148 69.9776 171.746 78.1295 171.874 78.2026L172.825 78.7692L172.971 81.6754C173.428 80.8711 173.958 79.8841 174.524 78.6778C176.096 75.4609 178.472 66.1392 179.258 62.8127L183.353 63.7814C183.225 64.2932 180.392 76.2286 178.308 80.5056C175.639 86.0072 173.373 88.9499 171.545 89.2972L169.187 89.7359L169.206 89.7907Z" fill="white"/>
<path d="M213.164 155.061C207.133 155.061 201.558 152.721 196.788 148.097L199.84 144.935C205.433 150.327 212.013 151.935 219.434 149.687C221.718 148.993 223.729 148.042 225.337 147.147C221.536 145.776 216.326 143.071 212.58 137.788C210.423 134.754 208.101 133.201 205.652 133.182C200.79 133.109 196.513 138.757 196.477 138.812L192.949 136.18C193.169 135.869 198.542 128.777 205.579 128.777C205.616 128.777 205.652 128.777 205.689 128.777C209.619 128.814 213.146 130.989 216.162 135.248C221.499 142.76 230.802 144.076 230.894 144.094L235.811 144.752L232.027 147.969C231.844 148.134 227.275 151.972 220.713 153.946C218.136 154.714 215.632 155.116 213.183 155.116L213.164 155.061Z" fill="white"/>
<path d="M215.03 138.592L213.678 134.407C221.537 131.848 225.375 122.946 226.893 118.322C222.085 118.724 212.782 119.821 207.482 122.416C195.967 128.082 196.058 135.284 196.058 135.357L191.653 135.613C191.635 135.211 191.214 125.505 205.526 118.468C213.678 114.447 229.086 113.734 229.744 113.698L232.559 113.57L232.01 116.33C231.864 117.061 228.245 134.297 215.049 138.592H215.03Z" fill="white"/>
<path d="M230.916 126.474L230.496 123.568Z" fill="white"/>
<path d="M59.9792 249.941C63.2144 249.466 64.567 251.275 64.1283 254.401L61.2952 274.854C60.8383 278.089 59.2481 280.757 54.6604 281.434L47.6417 282.475L46.0699 293.844L37.918 295.051L43.84 252.317L59.9792 249.904V249.941ZM50.95 258.623L48.6287 275.42L52.7047 274.817C53.381 274.707 53.5272 274.47 53.6186 273.812L55.7022 258.733C55.7753 258.203 55.6474 257.928 55.0808 258.02L50.95 258.641V258.623Z" fill="white"/>
<path d="M69.19 285.217L67.7095 290.628L59.4297 291.852L72.7725 248.022L81.5458 246.706L83.0446 288.325L74.7647 289.549V284.358L69.1535 285.199L69.19 285.217ZM71.0361 278.308L74.8378 277.742L75.0755 262.882L71.0543 278.308H71.0361Z" fill="white"/>
<path d="M108.874 267.47C108.618 269.352 107.046 271.436 104.67 271.783L107.083 284.761L98.5834 286.022L96.4998 273.008L95.4214 273.173L93.5387 286.789L85.332 288.014L91.254 245.281L106.827 242.959C110.683 242.393 112.072 244.312 111.615 247.675L108.874 267.47ZM98.4372 251.532L96.3901 266.263L100.411 265.66C101.033 265.569 101.234 265.313 101.325 264.655L103.116 251.696C103.189 251.166 103.007 250.837 102.44 250.928L98.4189 251.532H98.4372Z" fill="white"/>
<path d="M116.384 283.389C111.686 284.084 110.242 282.457 110.9 277.741L115.177 246.87C115.634 243.507 117.992 241.314 120.715 240.912L131.536 239.303L131.847 247.053L123.969 248.223C123.402 248.314 123.183 248.625 123.11 249.155L119.619 274.323C119.546 274.854 119.674 275.128 120.24 275.036L128.118 273.867L125.541 282.037L116.365 283.408L116.384 283.389Z" fill="white"/>
<path d="M135.776 238.645L151.751 236.269L152.062 244.019L143.106 245.353L141.698 255.497L148.498 254.492L147.474 261.858L140.675 262.863L139.377 272.167L147.986 270.887L145.463 279.057L129.836 281.379L135.758 238.645H135.776Z" fill="white"/>
<path d="M173.632 257.837C173.376 259.72 171.804 261.803 169.428 262.151L171.84 275.128L163.341 276.389L161.258 263.375L160.179 263.54L158.297 277.157L150.09 278.381L156.012 235.648L171.585 233.326C175.441 232.76 176.83 234.679 176.373 238.042L173.632 257.837ZM163.195 241.899L161.148 256.631L165.169 256.028C165.79 255.936 165.992 255.68 166.083 255.022L167.874 242.063C167.947 241.533 167.764 241.204 167.198 241.296L163.177 241.899H163.195Z" fill="white"/>
<path d="M196.86 265.458C196.403 268.694 194.721 271.728 190.134 272.404L180.611 273.83C176.023 274.506 175.109 271.874 175.566 268.639L179.88 237.53C180.337 234.167 182.347 231.736 186.204 231.169L196.403 229.652C200.26 229.086 201.649 231.005 201.192 234.368L196.878 265.477L196.86 265.458ZM188.617 238.115C188.05 238.206 187.831 238.517 187.758 239.047L184.139 265.093C184.047 265.733 184.139 265.952 184.815 265.86L187.922 265.404C188.598 265.294 188.745 265.056 188.836 264.398L192.455 238.352C192.528 237.822 192.4 237.548 191.833 237.64L188.598 238.115H188.617Z" fill="white"/>
<path d="M199.035 270.705L201.082 262.992L209.91 261.676C210.642 261.566 210.897 261.292 210.989 260.652L212.067 252.866C212.232 251.696 211.848 251.696 210.715 251.86L206.474 252.5C204.043 252.866 201.96 252.591 202.563 248.351L204.573 233.857C205.03 230.494 207.041 228.063 210.897 227.496L222.23 225.814L219.543 233.546L213.237 234.953C212.561 235.063 212.177 235.392 212.085 236.05L211.007 243.836C210.879 244.714 211.245 244.896 212.104 244.769L217.258 244.001C219.872 243.617 221.17 244.567 220.731 247.748L218.775 261.84C218.117 266.556 216.289 268.566 211.592 269.261L199.035 270.76V270.705Z" fill="white"/>
<path d="M188.364 277.066L195.456 276.408L195.675 279.314L191.709 279.679L191.197 283.463L194.213 283.189L193.847 285.93L190.831 286.205L189.954 292.657L186.207 293.004L188.364 277.047V277.066Z" fill="white"/>
<path d="M195.84 286.077L196.9 278.199C197.065 276.938 198.089 276.152 199.295 276.042L204.102 275.604L203.024 278.674L200.83 278.839C200.574 278.857 200.483 278.985 200.465 279.186L199.204 288.581C199.185 288.782 199.24 288.873 199.496 288.855L202.987 288.526L201.927 291.56L197.851 291.944C195.767 292.145 195.109 291.505 195.347 289.751L195.84 286.095" fill="white"/>
<path d="M153.49 323.546C151.315 324.843 149.14 326.178 146.892 327.366C143.73 329.011 140.531 330.583 137.315 332.1C134.335 333.507 131.301 334.841 128.285 336.139C127.134 336.633 126.037 336.889 124.739 336.194C122.839 335.17 120.755 334.531 118.781 333.617C116.478 332.557 114.23 331.369 111.963 330.254C110.263 329.413 108.545 328.609 106.864 327.731C105.255 326.891 103.702 325.958 102.112 325.081C101.125 324.533 100.119 324.021 99.1506 323.454C95.9702 321.553 92.7351 319.707 89.6279 317.679C86.0089 315.302 61.1328 302.49 61.1328 302.837C62.1381 303.733 63.1434 304.61 64.1486 305.487C65.885 307.004 67.6397 308.521 69.4675 309.947C71.9715 311.903 74.5121 313.785 77.071 315.65C79.9406 317.715 82.792 319.835 85.7895 321.736C89.7741 324.277 93.8135 326.763 97.9625 329.029C103.3 331.954 108.71 334.75 114.175 337.437C117.575 339.118 121.084 340.562 124.593 341.988C125.452 342.335 126.567 342.463 127.481 342.262C128.962 341.951 130.369 341.348 131.776 340.745C133.531 340.014 135.231 339.192 136.949 338.369C138.978 337.4 141.007 336.395 142.999 335.371C146.527 333.562 150.072 331.826 153.545 329.906C157.109 327.932 160.564 325.739 164.146 323.765C164.877 323.363 165.554 322.997 166.084 322.358C166.193 322.23 166.358 322.138 166.504 322.029C169.063 320.311 171.677 318.666 174.181 316.856C177.836 314.206 181.474 311.537 185.02 308.741C181.528 309.289 156.671 321.627 153.509 323.509L153.49 323.546Z" fill="white"/>
</g>
<defs>
<clipPath id="clip0_235_10188">
<rect width="252.325" height="365.812" fill="white" transform="translate(0.304688 0.303223)"/>
</clipPath>
</defs>
</svg>
